<svg width="33" height="35" viewBox="0 0 33 35" fill="none" xmlns="http://www.w3.org/2000/svg">
<path d="M3.69922 11.1405V28.8765C3.69922 31.1273 5.51429 32.9536 7.73544 32.9536H25.2634C27.4846 32.9536 29.2998 31.1273 29.2998 28.8765V6.17598C29.2998 3.92521 27.4846 2.08594 25.2634 2.08594H12.6347C11.5558 2.08594 10.5405 2.51039 9.77888 3.28213L4.87967 8.24667C4.11816 9.01833 3.69922 10.0472 3.69922 11.1405ZM18.1305 12.4138H19.2727V11.2562C19.2727 10.536 19.844 9.97007 20.5419 9.97007C21.2401 9.97007 21.8112 10.536 21.8112 11.2562V12.4138H22.9537C23.6516 12.4138 24.2229 12.9797 24.2229 13.6999C24.2229 14.4073 23.6516 14.9861 22.9537 14.9861H21.8112V16.1308C21.8112 16.851 21.2401 17.4169 20.5419 17.4169C19.844 17.4169 19.2727 16.851 19.2727 16.1308V14.9861H18.1305C17.4324 14.9861 16.8613 14.4073 16.8613 13.6999C16.8613 12.9797 17.4324 12.4138 18.1305 12.4138ZM8.82696 23.449L10.3881 17.7127C10.7816 16.2208 12.1398 15.1791 13.6628 15.1791C15.1985 15.1791 16.544 16.2208 16.9501 17.7127L18.5114 23.449C18.6889 24.1435 18.2954 24.8509 17.6228 25.031C16.9501 25.2239 16.2394 24.8252 16.0615 24.1306L15.8204 23.2561H11.5179L11.2766 24.1306C11.1116 24.7094 10.6039 25.0824 10.0454 25.0824C9.93134 25.0824 9.8297 25.0695 9.71536 25.031C9.03008 24.8509 8.6367 24.1435 8.82696 23.449Z" fill="#0062FF"/>
<path d="M14.5004 18.3943C14.3989 18.0084 14.0563 17.7512 13.6628 17.7512C13.2819 17.7512 12.9392 18.0084 12.825 18.3943L12.2031 20.6836H15.1223L14.5004 18.3943Z" fill="#0062FF"/>
</svg>
