<svg version="1.2" xmlns="http://www.w3.org/2000/svg" viewBox="0 0 132 33" width="132" height="33">
	<title>ministry-of-health</title>
	<style>
		.s0 { fill: #a1b0d5 } 
	</style>
	<path class="s0" d="m45.1 2.8c0 0 5.7 5 11.5 5 0 4.9-0.2 9.6-2.4 13.3-2.1 3.7-6.2 6.4-9.1 7.1-2.9-0.6-7.2-3.3-9.3-7-2-3.5-2.2-7.9-2.2-12.4v-1c5.8 0 11.5-5 11.5-5zm0 6.4c-2 0-3.6 1.6-3.6 3.6v1.6h-0.2c-0.6 0-1.1 0.5-1.1 1v0.1 3.9c0 0.8 0.3 1.6 0.8 2.2q2 2.2 4.1 2.2 2.1 0 4.1-2.2c0.5-0.6 0.8-1.3 0.9-2v-0.2-3.9c0-0.5-0.5-1-1-1.1h-0.1-0.3v-1.6c0-2-1.6-3.6-3.6-3.6zm0 7.4c0.6 0 1.1 0.5 1.1 1.1 0 0.4-0.2 0.8-0.5 1v1.2h-1.1v-1.2c-0.4-0.2-0.6-0.6-0.6-1 0-0.6 0.5-1.1 1.1-1.1zm0-5.7c1.1 0 1.9 0.8 1.9 1.9v1.6h-3.8v-1.6c0-1.1 0.8-1.9 1.9-1.9z"/>
	<path class="s0" d="m67.2 20q0.4 0.2 0.8 0.4 0.4 0.2 0.8 0.6 0.3 0.3 0.6 0.7 0.2 0.4 0.2 0.9 0 0.2 0 0.4 0 0.2-0.1 0.4-0.1 0.3-0.2 0.6-0.1 0.2-0.2 0.5-0.8 1.1-2.4 1.1-0.4 0-0.9-0.1-0.4-0.1-0.8-0.4-0.4-0.2-0.7-0.5-0.3-0.4-0.5-0.8 0-0.1 0.1-0.1l1.2-1.1q0.1-0.1 0.2 0 0 0.1 0 0.1 0.1 0.1 0.1 0.2 0.2 0.3 0.5 0.6 0.4 0.3 0.8 0.3 0.1 0 0.3-0.1 0.2 0 0.3-0.1 0.2-0.1 0.2-0.3 0.1-0.2 0.1-0.4 0-0.2-0.1-0.4-0.1-0.2-0.4-0.4-0.2-0.1-0.4-0.2-0.2-0.1-0.4-0.2-0.5-0.2-0.9-0.4-0.5-0.2-0.9-0.6-0.8-0.8-0.8-1.7 0-0.7 0.3-1.1 0.2-0.5 0.7-0.8 0.4-0.4 0.9-0.5 0.6-0.2 1.1-0.2 1.7 0 2.6 1.8 0 0.1 0 0.2l-1.2 0.8q-0.1 0.1-0.2 0-0.3-0.5-0.7-0.8-0.3-0.2-0.7-0.2-0.1 0-0.2 0-0.2 0.1-0.4 0.1-0.1 0.1-0.2 0.2-0.1 0.1-0.1 0.3 0 0.2 0.2 0.4 0.1 0.2 0.4 0.3 0.3 0.2 0.6 0.3 0.2 0.1 0.4 0.2zm8.2 0q0.3 0.2 0.8 0.4 0.4 0.2 0.7 0.6 0.4 0.3 0.6 0.7 0.2 0.4 0.2 0.9 0 0.2 0 0.4 0 0.2-0.1 0.4 0 0.3-0.1 0.6-0.1 0.2-0.3 0.5-0.7 1.1-2.3 1.1-0.5 0-0.9-0.1-0.5-0.1-0.9-0.4-0.4-0.2-0.7-0.5-0.3-0.4-0.4-0.8-0.1-0.1 0-0.1l1.2-1.1q0.1-0.1 0.2 0 0 0.1 0.1 0.1 0 0.1 0.1 0.2 0.1 0.3 0.4 0.6 0.4 0.3 0.8 0.3 0.1 0 0.3-0.1 0.2 0 0.3-0.1 0.2-0.1 0.3-0.3 0.1-0.2 0.1-0.4 0-0.2-0.2-0.4-0.1-0.2-0.3-0.4-0.2-0.1-0.5-0.2-0.2-0.1-0.4-0.2-0.5-0.2-0.9-0.4-0.5-0.2-0.9-0.6-0.8-0.8-0.8-1.7 0-0.7 0.3-1.1 0.2-0.5 0.7-0.8 0.4-0.4 0.9-0.5 0.6-0.2 1.1-0.2 1.8 0 2.6 1.8 0.1 0.1 0 0.2l-1.2 0.8q-0.1 0.1-0.1 0-0.4-0.5-0.7-0.8-0.3-0.2-0.7-0.2-0.2 0-0.3 0-0.2 0.1-0.3 0.1-0.2 0.1-0.3 0.2-0.1 0.1-0.1 0.3 0 0.2 0.2 0.4 0.2 0.2 0.4 0.3 0.3 0.2 0.6 0.3 0.3 0.1 0.5 0.2zm6.7-3.5q0.1 0 0.1 0.2v7h2.9q0.2 0 0.2 0.2v1.4q0 0.1-0.2 0.1h-4.5q-0.1 0-0.1-0.1v-8.6q0-0.2 0.1-0.2z"/>
	<path class="s0" d="m67.5 13.3q-0.3 0.4-0.8 0.6-0.4 0.1-0.9 0.1-0.3 0-0.6 0-0.3-0.1-0.6-0.3-0.2-0.1-0.5-0.3-0.2-0.2-0.3-0.5l0.8-0.7 0.1 0.1q0.1 0.3 0.4 0.5 0.3 0.3 0.7 0.3 0.4 0 0.6-0.3 0.3-0.2 0.3-0.6 0-0.2-0.1-0.4-0.1-0.1-0.2-0.3-0.2-0.1-0.4-0.2-0.2-0.1-0.4-0.2-0.3-0.1-0.7-0.3-0.3-0.2-0.6-0.4-0.6-0.6-0.6-1.2 0-0.5 0.2-0.8 0.2-0.3 0.5-0.5 0.3-0.2 0.7-0.4 0.4-0.1 0.7-0.1 0.6 0 1.1 0.4 0.4 0.3 0.7 0.8l-0.8 0.5q-0.2-0.3-0.5-0.5-0.2-0.2-0.6-0.2-0.2 0-0.3 0-0.2 0.1-0.3 0.2-0.2 0.1-0.3 0.2 0 0.1 0 0.3 0 0.2 0.1 0.3 0.2 0.2 0.4 0.3 0.2 0.2 0.4 0.3 0.2 0.1 0.4 0.1 0.3 0.2 0.6 0.3 0.3 0.2 0.6 0.4 0.2 0.3 0.4 0.5 0.1 0.3 0.1 0.7 0 0.2 0 0.6-0.1 0.3-0.3 0.7zm3.2-3.1h1.9v0.9h-1.9v1.9h2.4v0.9h-3.3v-6.4h3.3v0.9h-2.4zm6.6-1.8h-0.1q-0.6 0-0.9 0.4-0.1 0.2-0.2 0.4-0.1 0.2-0.1 0.5v2.1q0 0.7 0.4 1 0.3 0.2 0.8 0.2h0.1q0.2 0 0.5 0 0.2-0.1 0.4-0.3 0.1-0.2 0.2-0.4 0-0.3 0-0.5v-0.3h1v0.6q0 0.5-0.2 0.9-0.1 0.4-0.4 0.6-0.3 0.3-0.7 0.3-0.4 0.1-0.9 0.1-1 0-1.6-0.4-0.5-0.4-0.5-1.5v-2.7q0-0.6 0.1-0.9 0.2-0.4 0.4-0.6 0.3-0.3 0.7-0.4 0.4-0.1 0.9-0.1 1.1 0 1.6 0.5 0.6 0.4 0.6 1.5v0.1h-1v-0.1q0-0.2-0.1-0.4-0.1-0.2-0.2-0.3-0.2-0.2-0.4-0.2-0.2-0.1-0.4-0.1zm8.5 3.7q0 0.6-0.2 0.9-0.2 0.4-0.5 0.7-0.3 0.2-0.7 0.3-0.3 0-0.8 0-0.5 0-0.9-0.1-0.4 0-0.7-0.3-0.3-0.2-0.4-0.6-0.2-0.4-0.2-0.9v-4.6h1v4.3q0 0.6 0.3 0.9 0.3 0.3 0.8 0.3h0.2q1.1 0 1.1-1.2v-4.3h1zm4.8 1.9l-0.8-1.8h-0.8v1.8h-1v-6.4h2q0.8 0 1.2 0.4 0.5 0.5 0.5 1.2v1.3q0 0.5-0.2 0.9-0.2 0.4-0.5 0.6l-0.2 0.1 0.9 1.9zm-0.9-5.4h-0.8v2.6h0.7q0.2 0 0.4 0 0.2 0 0.3-0.1 0.2-0.2 0.3-0.4 0-0.3 0-0.5v-0.7q0-0.9-0.9-0.9zm5.1 1.7h1.8v0.9h-1.8v1.9h2.3v0.9h-3.3v-6.4h3.3v0.9h-2.3z"/>
</svg>