<svg width="44" height="44" viewBox="0 0 44 44" fill="none" xmlns="http://www.w3.org/2000/svg">
<path d="M19.7701 24.8764C19.7701 24.3057 19.6935 23.8143 19.5402 23.4022C19.387 22.99 19.1111 22.5938 18.7126 22.2133C18.3142 21.8012 17.7471 21.3098 17.0115 20.7391C15.6628 19.6929 14.6207 18.726 13.8851 17.8383C13.1801 16.9506 12.6897 16.0788 12.4138 15.2228C12.1379 14.3668 12 13.4475 12 12.4647C12 9.80163 12.9042 7.72509 14.7126 6.23505C16.5211 4.74502 19.0192 4 22.2069 4C23.7395 4 25.3793 4.28533 27.1264 4.85598C28.9042 5.42663 30.5287 6.17165 32 7.09103L29.4253 12.8451C28.0766 12.1159 26.7893 11.5294 25.5632 11.0856C24.3372 10.6101 23.249 10.3723 22.2989 10.3723C21.2874 10.3723 20.5364 10.6259 20.046 11.1332C19.5862 11.6087 19.3563 12.2269 19.3563 12.9878C19.3563 13.5584 19.4483 14.0657 19.6322 14.5095C19.8467 14.9216 20.1839 15.3655 20.6437 15.841C21.1341 16.2849 21.7625 16.808 22.5287 17.4103C23.5402 18.2029 24.3372 18.9796 24.9195 19.7405C25.5326 20.4697 25.977 21.2305 26.2529 22.0231C26.5287 22.8157 26.6667 23.6716 26.6667 24.591V26.5883H19.7701V24.8764ZM22.9885 39C21.6092 39 20.5364 38.6196 19.7701 37.8587C19.0345 37.0978 18.6667 36.0833 18.6667 34.8152C18.6667 33.4837 19.0345 32.4534 19.7701 31.7242C20.5364 30.995 21.6092 30.6304 22.9885 30.6304C24.3372 30.6304 25.3946 30.995 26.1609 31.7242C26.9272 32.4216 27.3103 33.452 27.3103 34.8152C27.3103 36.1784 26.9272 37.2246 26.1609 37.9538C25.3946 38.6513 24.3372 39 22.9885 39Z" fill="#FF7A00"/>
</svg>
