<svg width="44" height="44" viewBox="0 0 44 44" fill="none" xmlns="http://www.w3.org/2000/svg">
<path d="M30.2322 8.07812C30.2322 10.3555 29.4502 12.2633 27.8947 13.8273C26.3393 15.3828 24.4229 16.1648 22.1455 16.1648C19.8768 16.1648 17.9604 15.3828 16.4049 13.8273C14.8494 12.2719 14.0674 10.3555 14.0674 8.07812C14.0674 5.80078 14.8494 3.89297 16.4049 2.32891C17.9604 0.764844 19.8854 0 22.1541 0C24.4314 0 26.3393 0.782031 27.9033 2.3375C29.4674 3.89297 30.2408 5.80937 30.2322 8.07812Z" fill="#0062FF"/>
<path d="M40.8887 16.6201V35.217C40.8887 36.2396 40.098 37.0818 39.084 37.1506C36.291 37.3482 33.541 37.9842 30.9457 39.0326C28.1613 40.1498 25.5574 41.6795 23.2199 43.5701C22.5066 44.1373 21.5012 44.1373 20.7879 43.5701C18.4504 41.6795 15.8465 40.1498 13.0621 39.0326C10.4668 37.9842 7.7168 37.3482 4.92383 37.1506C3.90977 37.0818 3.11914 36.231 3.11914 35.217V16.6201C3.12773 15.5459 3.9957 14.6779 5.06992 14.6779C5.13867 14.6779 5.19883 14.6779 5.26758 14.6865C7.82852 14.9443 10.3723 15.6576 12.9074 16.8349C16.1387 18.3389 19.1809 20.4357 22.0082 23.1342C24.8441 20.4443 27.8777 18.3389 31.109 16.8349C33.6355 15.6576 36.1879 14.9443 38.7488 14.6865C39.8145 14.5748 40.777 15.3482 40.8887 16.4224C40.8801 16.4912 40.8887 16.5599 40.8887 16.6201Z" fill="#0062FF"/>
</svg>
