<svg width="34" height="34" viewBox="0 0 34 34" fill="none" xmlns="http://www.w3.org/2000/svg">
<g clip-path="url(#clip0_406_761)">
<path d="M24.6025 18.4868C20.3437 18.4868 16.8789 21.94 16.8789 26.1846C16.8789 30.4292 20.3437 33.8824 24.6025 33.8824C28.897 33.8824 32.3909 30.4292 32.3909 26.1846C32.3909 21.94 28.897 18.4868 24.6025 18.4868ZM26.9729 25.2533L24.3768 28.3583C24.1906 28.5809 23.9159 28.7074 23.629 28.7074C23.5917 28.7074 23.5542 28.7053 23.5166 28.701C23.1903 28.6632 22.905 28.464 22.7581 28.1711L21.7196 26.1011C21.4792 25.6218 21.6741 25.0389 22.155 24.7993C22.6359 24.5595 23.2207 24.7539 23.4612 25.2332L23.8339 25.9762L25.4771 24.0109C25.8214 23.5993 26.4353 23.5438 26.8483 23.8867C27.2614 24.2298 27.3172 24.8416 26.9729 25.2533Z" fill="#00BF58"/>
<path d="M24.1826 6.29019L20.2325 2.21883C20.2306 2.21688 20.2286 2.21488 20.2267 2.21294C19.3172 1.29114 18.0517 0.762451 16.7547 0.762451H4.22243C2.61197 0.762451 1.30176 2.0683 1.30176 3.67339V28.8368C1.30176 30.4419 2.61197 31.7478 4.22243 31.7478H16.7093C15.5901 30.1751 14.9316 28.2552 14.9316 26.1846C14.9316 20.87 19.2698 16.5462 24.6022 16.5462C24.9308 16.5462 25.2555 16.5626 25.5758 16.5943V9.68803C25.5758 8.40922 25.081 7.20274 24.1826 6.29019ZM11.6215 22.4328H6.42916C5.8915 22.4328 5.4556 21.9983 5.4556 21.4625C5.4556 20.9266 5.8915 20.4921 6.42916 20.4921H11.6215C12.1591 20.4921 12.595 20.9266 12.595 21.4625C12.595 21.9983 12.1591 22.4328 11.6215 22.4328ZM11.6215 17.2578H6.42916C5.8915 17.2578 5.4556 16.8233 5.4556 16.2875C5.4556 15.7516 5.8915 15.3171 6.42916 15.3171H11.6215C12.1591 15.3171 12.595 15.7516 12.595 16.2875C12.595 16.8233 12.1591 17.2578 11.6215 17.2578ZM11.6215 12.0828H6.42916C5.8915 12.0828 5.4556 11.6483 5.4556 11.1125C5.4556 10.5766 5.8915 10.1421 6.42916 10.1421H11.6215C12.1591 10.1421 12.595 10.5766 12.595 11.1125C12.595 11.6483 12.1591 12.0828 11.6215 12.0828ZM17.8522 17.2578H16.8138C16.2761 17.2578 15.8402 16.8233 15.8402 16.2875C15.8402 15.7516 16.2761 15.3171 16.8138 15.3171H17.8522C18.3899 15.3171 18.8258 15.7516 18.8258 16.2875C18.8258 16.8233 18.3899 17.2578 17.8522 17.2578ZM17.8522 12.0828H16.8138C16.2761 12.0828 15.8402 11.6483 15.8402 11.1125C15.8402 10.5766 16.2761 10.1421 16.8138 10.1421H17.8522C18.3899 10.1421 18.8258 10.5766 18.8258 11.1125C18.8258 11.6483 18.3899 12.0828 17.8522 12.0828Z" fill="#00BF58"/>
</g>
<defs>
<clipPath id="clip0_406_761">
<rect width="33.2308" height="33.12" fill="white" transform="translate(0.230469 0.762451)"/>
</clipPath>
</defs>
</svg>
