<svg width="26" height="26" viewBox="0 0 26 26" fill="none" xmlns="http://www.w3.org/2000/svg">
<path d="M1.12604 2.62734C-0.375345 4.12872 -0.375345 6.56294 1.12604 8.06432L3.24302 10.1813C3.25891 10.1629 3.27559 10.145 3.29304 10.1275L8.62638 4.79419C8.64378 4.77679 8.66167 4.76016 8.67999 4.74431L6.56302 2.62734C5.06164 1.12596 2.62742 1.12596 1.12604 2.62734Z" fill="url(#paint0_linear_1191_65542)"/>
<path d="M10.0905 6.1548C10.0746 6.17312 10.058 6.191 10.0406 6.20841L4.70726 11.5417C4.6898 11.5592 4.67186 11.5759 4.65348 11.5918L17.437 24.3753C18.9384 25.8766 21.3726 25.8766 22.874 24.3753C24.3753 22.8739 24.3753 20.4397 22.874 18.9383L10.0905 6.1548Z" fill="url(#paint1_linear_1191_65542)"/>
<path d="M17.4667 0.577554C17.6813 0.0314406 18.4513 0.0314401 18.6659 0.577554L19.2398 2.03793C19.3053 2.20467 19.4368 2.33665 19.6029 2.4024L21.0579 2.97837C21.602 3.19375 21.602 3.96664 21.0579 4.18202L19.6029 4.75799C19.4368 4.82375 19.3053 4.95573 19.2398 5.12246L18.6659 6.58284C18.4513 7.12895 17.6813 7.12896 17.4667 6.58284L16.8929 5.12246C16.8274 4.95573 16.6959 4.82375 16.5297 4.75799L15.0747 4.18202C14.5306 3.96664 14.5306 3.19375 15.0747 2.97837L16.5297 2.4024C16.6959 2.33665 16.8274 2.20467 16.8929 2.03793L17.4667 0.577554Z" fill="url(#paint2_linear_1191_65542)"/>
<path d="M22.6229 9.67391C22.8375 9.12779 23.6075 9.12779 23.8221 9.67391L24.0314 10.2064C24.0969 10.3731 24.2284 10.5051 24.3945 10.5708L24.925 10.7808C25.4691 10.9962 25.4691 11.7691 24.925 11.9845L24.3945 12.1945C24.2284 12.2603 24.0969 12.3922 24.0314 12.559L23.8221 13.0914C23.6075 13.6375 22.8375 13.6375 22.6229 13.0914L22.4137 12.559C22.3482 12.3922 22.2167 12.2603 22.0506 12.1945L21.5201 11.9845C20.976 11.7691 20.976 10.9962 21.5201 10.7808L22.0506 10.5708C22.2167 10.5051 22.3482 10.3731 22.4137 10.2064L22.6229 9.67391Z" fill="url(#paint3_linear_1191_65542)"/>
<path d="M2.84426 17.9109C3.05885 17.3648 3.82889 17.3648 4.04348 17.9109L4.25271 18.4433C4.31822 18.6101 4.44972 18.7421 4.61584 18.8078L5.14634 19.0178C5.69044 19.2332 5.69044 20.0061 5.14634 20.2215L4.61584 20.4315C4.44972 20.4972 4.31822 20.6292 4.25271 20.7959L4.04348 21.3284C3.82889 21.8745 3.05885 21.8745 2.84426 21.3284L2.63504 20.7959C2.56952 20.6292 2.43803 20.4972 2.27191 20.4315L1.74141 20.2215C1.19731 20.0061 1.19731 19.2332 1.74141 19.0178L2.27191 18.8078C2.43803 18.7421 2.56952 18.6101 2.63504 18.4433L2.84426 17.9109Z" fill="url(#paint4_linear_1191_65542)"/>
<defs>
<linearGradient id="paint0_linear_1191_65542" x1="12.6665" y1="0.167969" x2="12.6665" y2="25.5013" gradientUnits="userSpaceOnUse">
<stop stop-color="#1E02AA"/>
<stop offset="1" stop-color="#C64EFF"/>
</linearGradient>
<linearGradient id="paint1_linear_1191_65542" x1="12.6665" y1="0.167969" x2="12.6665" y2="25.5013" gradientUnits="userSpaceOnUse">
<stop stop-color="#1E02AA"/>
<stop offset="1" stop-color="#C64EFF"/>
</linearGradient>
<linearGradient id="paint2_linear_1191_65542" x1="12.6665" y1="0.167969" x2="12.6665" y2="25.5013" gradientUnits="userSpaceOnUse">
<stop stop-color="#1E02AA"/>
<stop offset="1" stop-color="#C64EFF"/>
</linearGradient>
<linearGradient id="paint3_linear_1191_65542" x1="12.6665" y1="0.167969" x2="12.6665" y2="25.5013" gradientUnits="userSpaceOnUse">
<stop stop-color="#1E02AA"/>
<stop offset="1" stop-color="#C64EFF"/>
</linearGradient>
<linearGradient id="paint4_linear_1191_65542" x1="12.6665" y1="0.167969" x2="12.6665" y2="25.5013" gradientUnits="userSpaceOnUse">
<stop stop-color="#1E02AA"/>
<stop offset="1" stop-color="#C64EFF"/>
</linearGradient>
</defs>
</svg>
