<svg width="19" height="18" viewBox="0 0 19 18" fill="none" xmlns="http://www.w3.org/2000/svg">
<path d="M13.498 10.6673C13.9583 10.6673 14.3314 10.2942 14.3314 9.83398C14.3314 9.37375 13.9583 9.00065 13.498 9.00065C13.0378 9.00065 12.6647 9.37375 12.6647 9.83398C12.6647 10.2942 13.0378 10.6673 13.498 10.6673Z" fill="#7E8799"/>
<path d="M13.498 14.0007C13.9583 14.0007 14.3314 13.6276 14.3314 13.1673C14.3314 12.7071 13.9583 12.334 13.498 12.334C13.0378 12.334 12.6647 12.7071 12.6647 13.1673C12.6647 13.6276 13.0378 14.0007 13.498 14.0007Z" fill="#7E8799"/>
<path d="M10.1647 9.83398C10.1647 10.2942 9.79162 10.6673 9.33138 10.6673C8.87114 10.6673 8.49805 10.2942 8.49805 9.83398C8.49805 9.37375 8.87114 9.00065 9.33138 9.00065C9.79162 9.00065 10.1647 9.37375 10.1647 9.83398Z" fill="#7E8799"/>
<path d="M10.1647 13.1673C10.1647 13.6276 9.79162 14.0007 9.33138 14.0007C8.87114 14.0007 8.49805 13.6276 8.49805 13.1673C8.49805 12.7071 8.87114 12.334 9.33138 12.334C9.79162 12.334 10.1647 12.7071 10.1647 13.1673Z" fill="#7E8799"/>
<path d="M5.16471 10.6673C5.62495 10.6673 5.99805 10.2942 5.99805 9.83398C5.99805 9.37375 5.62495 9.00065 5.16471 9.00065C4.70448 9.00065 4.33138 9.37375 4.33138 9.83398C4.33138 10.2942 4.70448 10.6673 5.16471 10.6673Z" fill="#7E8799"/>
<path d="M5.16471 14.0007C5.62495 14.0007 5.99805 13.6276 5.99805 13.1673C5.99805 12.7071 5.62495 12.334 5.16471 12.334C4.70448 12.334 4.33138 12.7071 4.33138 13.1673C4.33138 13.6276 4.70448 14.0007 5.16471 14.0007Z" fill="#7E8799"/>
<path fill-rule="evenodd" clip-rule="evenodd" d="M5.16471 0.458984C5.50989 0.458984 5.78971 0.738806 5.78971 1.08398V1.71958C6.34138 1.70897 6.94915 1.70898 7.6176 1.70898H11.0451C11.7135 1.70898 12.3214 1.70897 12.873 1.71958V1.08398C12.873 0.738806 13.1529 0.458984 13.498 0.458984C13.8432 0.458984 14.123 0.738806 14.123 1.08398V1.77322C14.3397 1.78974 14.5448 1.8105 14.7389 1.8366C15.7159 1.96795 16.5067 2.24472 17.1303 2.86835C17.754 3.49199 18.0307 4.28278 18.1621 5.2598C18.2897 6.20914 18.2897 7.42215 18.2897 8.9536V10.7143C18.2897 12.2458 18.2897 13.4588 18.1621 14.4082C18.0307 15.3852 17.754 16.176 17.1303 16.7996C16.5067 17.4233 15.7159 17.7 14.7389 17.8314C13.7896 17.959 12.5765 17.959 11.0451 17.959H7.61771C6.08625 17.959 4.8732 17.959 3.92386 17.8314C2.94684 17.7 2.15605 17.4233 1.53242 16.7996C0.90878 16.176 0.632016 15.3852 0.500659 14.4082C0.373024 13.4588 0.373034 12.2458 0.373047 10.7143V8.95364C0.373034 7.42217 0.373024 6.20914 0.500659 5.2598C0.632016 4.28278 0.90878 3.49199 1.53242 2.86835C2.15605 2.24472 2.94684 1.96795 3.92386 1.8366C4.11797 1.8105 4.3231 1.78974 4.53971 1.77322V1.08398C4.53971 0.738806 4.81954 0.458984 5.16471 0.458984ZM4.09042 3.07545C3.25201 3.18817 2.76897 3.39956 2.4163 3.75224C2.06363 4.10491 1.85223 4.58795 1.73951 5.42636C1.72042 5.56835 1.70446 5.71783 1.69112 5.87565H16.9716C16.9583 5.71783 16.9423 5.56835 16.9232 5.42636C16.8105 4.58795 16.5991 4.10491 16.2465 3.75224C15.8938 3.39956 15.4107 3.18817 14.5723 3.07545C13.716 2.96031 12.5871 2.95898 10.998 2.95898H7.66471C6.0757 2.95898 4.94681 2.96031 4.09042 3.07545ZM1.62305 9.00065C1.62305 8.28897 1.62331 7.66959 1.63395 7.12565H17.0288C17.0394 7.66959 17.0397 8.28897 17.0397 9.00065V10.6673C17.0397 12.2563 17.0384 13.3852 16.9232 14.2416C16.8105 15.08 16.5991 15.5631 16.2465 15.9157C15.8938 16.2684 15.4107 16.4798 14.5723 16.5925C13.716 16.7077 12.5871 16.709 10.998 16.709H7.66471C6.0757 16.709 4.94681 16.7077 4.09042 16.5925C3.25201 16.4798 2.76897 16.2684 2.4163 15.9157C2.06363 15.5631 1.85223 15.08 1.73951 14.2416C1.62437 13.3852 1.62305 12.2563 1.62305 10.6673V9.00065Z" fill="#7E8799"/>
</svg>
