<svg width="19" height="18" viewBox="0 0 19 18" fill="none" xmlns="http://www.w3.org/2000/svg">
<path fill-rule="evenodd" clip-rule="evenodd" d="M9.83138 1.29102C5.57418 1.29102 2.12305 4.74215 2.12305 8.99935C2.12305 13.2565 5.57418 16.7077 9.83138 16.7077C14.0886 16.7077 17.5397 13.2565 17.5397 8.99935C17.5397 4.74215 14.0886 1.29102 9.83138 1.29102ZM0.873047 8.99935C0.873047 4.0518 4.88383 0.0410156 9.83138 0.0410156C14.7789 0.0410156 18.7897 4.0518 18.7897 8.99935C18.7897 13.9469 14.7789 17.9577 9.83138 17.9577C4.88383 17.9577 0.873047 13.9469 0.873047 8.99935ZM9.83138 5.04102C10.1766 5.04102 10.4564 5.32084 10.4564 5.66602V8.74047L12.3567 10.6407C12.6007 10.8848 12.6007 11.2805 12.3567 11.5246C12.1126 11.7687 11.7168 11.7687 11.4728 11.5246L9.38944 9.44129C9.27223 9.32408 9.20638 9.16511 9.20638 8.99935V5.66602C9.20638 5.32084 9.4862 5.04102 9.83138 5.04102Z" fill="#7E8799"/>
</svg>
