<svg width="20" height="20" viewBox="0 0 20 20" fill="none" xmlns="http://www.w3.org/2000/svg">
<path d="M13.3307 1.66797H6.66406C3.33073 1.66797 1.66406 3.33464 1.66406 6.66797V17.5013C1.66406 17.9596 2.03906 18.3346 2.4974 18.3346H13.3307C16.6641 18.3346 18.3307 16.668 18.3307 13.3346V6.66797C18.3307 3.33464 16.6641 1.66797 13.3307 1.66797ZM11.6641 12.7096H5.83073C5.48906 12.7096 5.20573 12.4263 5.20573 12.0846C5.20573 11.743 5.48906 11.4596 5.83073 11.4596H11.6641C12.0057 11.4596 12.2891 11.743 12.2891 12.0846C12.2891 12.4263 12.0057 12.7096 11.6641 12.7096ZM14.1641 8.54297H5.83073C5.48906 8.54297 5.20573 8.25964 5.20573 7.91797C5.20573 7.5763 5.48906 7.29297 5.83073 7.29297H14.1641C14.5057 7.29297 14.7891 7.5763 14.7891 7.91797C14.7891 8.25964 14.5057 8.54297 14.1641 8.54297Z" fill="#0FE8E8"/>
</svg>
