<svg width="15" height="15" viewBox="0 0 15 15" fill="none" xmlns="http://www.w3.org/2000/svg">
<path d="M9.84531 1.5H5.04531C2.64531 1.5 1.44531 2.7 1.44531 5.1V12.9C1.44531 13.23 1.71531 13.5 2.04531 13.5H9.84531C12.2453 13.5 13.4453 12.3 13.4453 9.9V5.1C13.4453 2.7 12.2453 1.5 9.84531 1.5ZM8.64531 9.45H4.44531C4.19931 9.45 3.99531 9.246 3.99531 9C3.99531 8.754 4.19931 8.55 4.44531 8.55H8.64531C8.89131 8.55 9.09531 8.754 9.09531 9C9.09531 9.246 8.89131 9.45 8.64531 9.45ZM10.4453 6.45H4.44531C4.19931 6.45 3.99531 6.246 3.99531 6C3.99531 5.754 4.19931 5.55 4.44531 5.55H10.4453C10.6913 5.55 10.8953 5.754 10.8953 6C10.8953 6.246 10.6913 6.45 10.4453 6.45Z" fill="#1E02AA"/>
</svg>
