<svg width="30" height="30" viewBox="0 0 30 30" fill="none" xmlns="http://www.w3.org/2000/svg">
<path d="M22 12V22C22 22 17.8431 24 15 24C12.1569 24 8 22 8 22V12C8 9.19108 8 7.78661 8.67412 6.77772C8.96596 6.34096 9.34096 5.96596 9.77772 5.67412C10.7866 5 12.1911 5 15 5C17.8089 5 19.2134 5 20.2223 5.67412C20.659 5.96596 21.034 6.34096 21.3259 6.77772C22 7.78661 22 9.19108 22 12Z" fill="#1E02AA"/>
<path fill-rule="evenodd" clip-rule="evenodd" d="M7.21145 20.7843C7.45074 21.1089 7.3999 21.5806 7.09789 21.8379C6.56425 22.2924 6.39535 22.693 6.39535 23C6.39535 23.2665 6.52012 23.5995 6.90408 23.9837C7.28903 24.369 7.88412 24.7504 8.67787 25.0864C9.80388 25.563 11.2595 25.9186 12.907 26.0843V25.625C12.907 25.3307 13.0671 25.0637 13.3164 24.9421C13.5656 24.8205 13.8581 24.8668 14.0641 25.0606L15.4594 26.3731C15.6108 26.5155 15.6977 26.7213 15.6977 26.9375C15.6977 27.1538 15.6108 27.3595 15.4594 27.502L14.0641 28.8145C13.8581 29.0082 13.5656 29.0546 13.3164 28.933C13.0671 28.8114 12.907 28.5443 12.907 28.25V27.5904C11.0984 27.4199 9.46488 27.0316 8.16665 26.4821C7.27702 26.1055 6.50981 25.6385 5.95332 25.0816C5.39582 24.5237 5 23.8209 5 23C5 22.0498 5.52713 21.262 6.23135 20.6622C6.53336 20.4049 6.97217 20.4596 7.21145 20.7843ZM22.7885 20.7843C23.0278 20.4596 23.4666 20.4049 23.7686 20.6622C24.4729 21.262 25 22.0498 25 23C25 24.3781 23.9134 25.4106 22.6311 26.1014C21.2899 26.8238 19.4568 27.3351 17.3959 27.5597C17.0126 27.6014 16.6703 27.3012 16.6315 26.8891C16.5926 26.477 16.8719 26.1091 17.2552 26.0673C19.2066 25.8547 20.8618 25.3767 22.006 24.7603C23.2089 24.1123 23.6047 23.4567 23.6047 23C23.6047 22.693 23.4357 22.2924 22.9021 21.8379C22.6001 21.5806 22.5493 21.1089 22.7885 20.7843Z" fill="#FF4747"/>
<path d="M12 7.25C11.5858 7.25 11.25 7.58579 11.25 8C11.25 8.41421 11.5858 8.75 12 8.75H18C18.4142 8.75 18.75 8.41421 18.75 8C18.75 7.58579 18.4142 7.25 18 7.25H12Z" fill="white"/>
</svg>
