<svg width="31" height="30" viewBox="0 0 31 30" fill="none" xmlns="http://www.w3.org/2000/svg">
<path fill-rule="evenodd" clip-rule="evenodd" d="M6.96447 23.5355C8.42893 25 10.786 25 15.5 25C20.214 25 22.5711 25 24.0355 23.5355C25.5 22.0711 25.5 19.714 25.5 15C25.5 10.286 25.5 7.92893 24.0355 6.46447C22.5711 5 20.214 5 15.5 5C10.786 5 8.42893 5 6.96447 6.46447C5.5 7.92893 5.5 10.286 5.5 15C5.5 19.714 5.5 22.0711 6.96447 23.5355ZM22.25 19C22.25 19.4142 21.9142 19.75 21.5 19.75H9.5C9.08579 19.75 8.75 19.4142 8.75 19C8.75 18.5858 9.08579 18.25 9.5 18.25H21.5C21.9142 18.25 22.25 18.5858 22.25 19ZM21.5 15.75C21.9142 15.75 22.25 15.4142 22.25 15C22.25 14.5858 21.9142 14.25 21.5 14.25H9.5C9.08579 14.25 8.75 14.5858 8.75 15C8.75 15.4142 9.08579 15.75 9.5 15.75H21.5ZM22.25 11C22.25 11.4142 21.9142 11.75 21.5 11.75H9.5C9.08579 11.75 8.75 11.4142 8.75 11C8.75 10.5858 9.08579 10.25 9.5 10.25H21.5C21.9142 10.25 22.25 10.5858 22.25 11Z" fill="#1E02AA"/>
</svg>
