<svg width="374" height="34" viewBox="0 0 374 34" fill="none" xmlns="http://www.w3.org/2000/svg">
<circle cx="18.9062" cy="17" r="17" fill="#EDEFF2"/>
<path d="M18.9689 23.192C18.2542 23.192 17.6089 23.064 17.0329 22.808C16.4569 22.5413 15.9929 22.1467 15.6409 21.624C15.2995 21.1013 15.1182 20.4507 15.0969 19.672H16.4569C16.4675 20.312 16.6915 20.8667 17.1289 21.336C17.5662 21.7947 18.1795 22.024 18.9689 22.024C19.7582 22.024 20.3502 21.8053 20.7449 21.368C21.1502 20.9307 21.3529 20.4027 21.3529 19.784C21.3529 19.2613 21.2249 18.8347 20.9689 18.504C20.7235 18.1733 20.3875 17.928 19.9609 17.768C19.5449 17.608 19.0862 17.528 18.5849 17.528H17.7529V16.392H18.5849C19.3102 16.392 19.8755 16.2267 20.2809 15.896C20.6969 15.5653 20.9049 15.1013 20.9049 14.504C20.9049 14.0027 20.7395 13.592 20.4089 13.272C20.0889 12.9413 19.6089 12.776 18.9689 12.776C18.3502 12.776 17.8542 12.9627 17.4809 13.336C17.1075 13.6987 16.8995 14.1573 16.8569 14.712H15.4969C15.5289 14.104 15.6889 13.5653 15.9769 13.096C16.2755 12.6267 16.6809 12.264 17.1929 12.008C17.7049 11.7413 18.2969 11.608 18.9689 11.608C19.6942 11.608 20.2969 11.736 20.7769 11.992C21.2675 12.248 21.6355 12.5893 21.8809 13.016C22.1369 13.4427 22.2649 13.912 22.2649 14.424C22.2649 14.9893 22.1102 15.5067 21.8009 15.976C21.4915 16.4347 21.0275 16.744 20.4089 16.904C21.0702 17.0427 21.6195 17.3573 22.0569 17.848C22.4942 18.3387 22.7129 18.984 22.7129 19.784C22.7129 20.4027 22.5689 20.9733 22.2809 21.496C22.0035 22.008 21.5875 22.4187 21.0329 22.728C20.4782 23.0373 19.7902 23.192 18.9689 23.192Z" fill="#7E8799"/>
<rect x="53.9062" y="14" width="98.0907" height="6" rx="3" fill="#EDEFF2"/>
<circle cx="187" cy="17" r="17" fill="#EDEFF2"/>
<path d="M183.43 23V22.056C184.187 21.4587 184.902 20.856 185.574 20.248C186.257 19.6293 186.859 19.0213 187.382 18.424C187.915 17.8267 188.331 17.24 188.63 16.664C188.939 16.088 189.094 15.5333 189.094 15C189.094 14.6053 189.025 14.2373 188.886 13.896C188.758 13.5547 188.545 13.2827 188.246 13.08C187.947 12.8667 187.542 12.76 187.03 12.76C186.539 12.76 186.129 12.872 185.798 13.096C185.467 13.3093 185.217 13.5973 185.046 13.96C184.886 14.3227 184.806 14.712 184.806 15.128H183.51C183.51 14.392 183.665 13.7627 183.974 13.24C184.283 12.7067 184.705 12.3013 185.238 12.024C185.771 11.7467 186.374 11.608 187.046 11.608C188.038 11.608 188.849 11.8907 189.478 12.456C190.118 13.0107 190.438 13.8427 190.438 14.952C190.438 15.6133 190.273 16.2693 189.942 16.92C189.611 17.56 189.19 18.184 188.678 18.792C188.166 19.3893 187.617 19.9493 187.03 20.472C186.454 20.9947 185.915 21.464 185.414 21.88H190.822V23H183.43Z" fill="#7E8799"/>
<rect x="222" y="14" width="98.0907" height="6" rx="3" fill="#EDEFF2"/>
<rect x="283.016" y="14" width="37" height="6" rx="3" fill="#0062FF"/>
<circle cx="355.094" cy="17" r="17" fill="#0062FF"/>
<path d="M354.694 22V12.72L352.886 13.136V11.888L355.366 10.8H356.454V22H354.694Z" fill="white"/>
</svg>
