<svg width="373" height="34" viewBox="0 0 373 34" fill="none" xmlns="http://www.w3.org/2000/svg">
<circle cx="18.4062" cy="17" r="17" fill="#EAEFF4"/>
<path d="M18.4689 23.192C17.7542 23.192 17.1089 23.064 16.5329 22.808C15.9569 22.5413 15.4929 22.1467 15.1409 21.624C14.7995 21.1013 14.6182 20.4507 14.5969 19.672H15.9569C15.9675 20.312 16.1915 20.8667 16.6289 21.336C17.0662 21.7947 17.6795 22.024 18.4689 22.024C19.2582 22.024 19.8502 21.8053 20.2449 21.368C20.6502 20.9307 20.8529 20.4027 20.8529 19.784C20.8529 19.2613 20.7249 18.8347 20.4689 18.504C20.2235 18.1733 19.8875 17.928 19.4609 17.768C19.0449 17.608 18.5862 17.528 18.0849 17.528H17.2529V16.392H18.0849C18.8102 16.392 19.3755 16.2267 19.7809 15.896C20.1969 15.5653 20.4049 15.1013 20.4049 14.504C20.4049 14.0027 20.2395 13.592 19.9089 13.272C19.5889 12.9413 19.1089 12.776 18.4689 12.776C17.8502 12.776 17.3542 12.9627 16.9809 13.336C16.6075 13.6987 16.3995 14.1573 16.3569 14.712H14.9969C15.0289 14.104 15.1889 13.5653 15.4769 13.096C15.7755 12.6267 16.1809 12.264 16.6929 12.008C17.2049 11.7413 17.7969 11.608 18.4689 11.608C19.1942 11.608 19.7969 11.736 20.2769 11.992C20.7675 12.248 21.1355 12.5893 21.3809 13.016C21.6369 13.4427 21.7649 13.912 21.7649 14.424C21.7649 14.9893 21.6102 15.5067 21.3009 15.976C20.9915 16.4347 20.5275 16.744 19.9089 16.904C20.5702 17.0427 21.1195 17.3573 21.5569 17.848C21.9942 18.3387 22.2129 18.984 22.2129 19.784C22.2129 20.4027 22.0689 20.9733 21.7809 21.496C21.5035 22.008 21.0875 22.4187 20.5329 22.728C19.9782 23.0373 19.2902 23.192 18.4689 23.192Z" fill="#A3AED0"/>
<rect x="53.4062" y="14" width="98.0907" height="6" rx="3" fill="#EAEFF4"/>
<rect x="114.422" y="14" width="37" height="6" rx="3" fill="#0062FF"/>
<circle cx="186.5" cy="17" r="17" fill="#0062FF"/>
<path d="M182.93 23V22.056C183.687 21.4587 184.402 20.856 185.074 20.248C185.757 19.6293 186.359 19.0213 186.882 18.424C187.415 17.8267 187.831 17.24 188.13 16.664C188.439 16.088 188.594 15.5333 188.594 15C188.594 14.6053 188.525 14.2373 188.386 13.896C188.258 13.5547 188.045 13.2827 187.746 13.08C187.447 12.8667 187.042 12.76 186.53 12.76C186.039 12.76 185.629 12.872 185.298 13.096C184.967 13.3093 184.717 13.5973 184.546 13.96C184.386 14.3227 184.306 14.712 184.306 15.128H183.01C183.01 14.392 183.165 13.7627 183.474 13.24C183.783 12.7067 184.205 12.3013 184.738 12.024C185.271 11.7467 185.874 11.608 186.546 11.608C187.538 11.608 188.349 11.8907 188.978 12.456C189.618 13.0107 189.938 13.8427 189.938 14.952C189.938 15.6133 189.773 16.2693 189.442 16.92C189.111 17.56 188.69 18.184 188.178 18.792C187.666 19.3893 187.117 19.9493 186.53 20.472C185.954 20.9947 185.415 21.464 184.914 21.88H190.322V23H182.93Z" fill="white"/>
<rect x="221.5" y="14" width="98.0907" height="6" rx="3" fill="#0062FF"/>
<circle cx="354.594" cy="17" r="17" fill="#0062FF"/>
<path d="M354.194 22V12.72L352.386 13.136V11.888L354.866 10.8H355.954V22H354.194Z" fill="white"/>
</svg>
