<svg version="1.1" id="Layer_1" xmlns="http://www.w3.org/2000/svg" xmlns:xlink="http://www.w3.org/1999/xlink" x="0px" y="0px"
	 width="100%" viewBox="0 0 1142 671" enable-background="new 0 0 1142 671" xml:space="preserve">
<path fill="#FFFFFF" opacity="1.000000" stroke="none" 
	d="
M808.000000,672.000000 
	C538.666687,672.000000 269.833374,672.000000 1.000036,672.000000 
	C1.000024,448.333374 1.000024,224.666733 1.000012,1.000066 
	C381.666626,1.000044 762.333252,1.000044 1143.000000,1.000022 
	C1143.000000,224.666611 1143.000000,448.333221 1143.000000,671.999878 
	C1031.500000,672.000000 920.000000,672.000000 808.000000,672.000000 
M612.878357,249.489044 
	C612.590576,249.329025 612.302795,249.169006 612.005127,248.992813 
	C612.005127,248.992813 611.986816,248.989090 611.703369,248.410477 
	C610.463379,247.624649 609.223328,246.838821 607.987976,245.994156 
	C607.987976,245.994156 607.937317,246.024551 607.609619,245.451462 
	C605.724609,244.280548 603.839600,243.109619 601.753601,241.787476 
	C601.753601,241.787476 601.522278,241.886230 601.212646,241.234940 
	C594.468811,236.971481 587.725037,232.708023 580.441956,227.949783 
	C571.303711,223.602356 562.165466,219.254929 553.026367,214.986206 
	C553.026367,214.986206 553.090454,214.940506 552.843689,214.281311 
	C550.548279,213.484329 548.252869,212.687363 545.730286,211.753906 
	C545.730286,211.753906 545.480896,211.843445 545.085388,211.231766 
	C543.764648,210.563660 542.511902,209.639206 541.112427,209.267990 
	C529.944214,206.305466 518.773193,203.346207 507.554565,200.582581 
	C492.102386,196.776031 476.914185,197.615280 462.398804,204.381241 
	C448.379822,210.915848 439.205078,222.132889 432.965271,236.480911 
	C432.965271,236.480911 432.950165,236.885651 432.362091,237.219574 
	C426.105164,249.157562 421.819031,261.734802 419.499237,275.604706 
	C418.738342,280.707214 417.977448,285.809723 416.707764,291.613129 
	C416.704926,292.179047 416.702118,292.744965 416.334656,294.040527 
	C416.296509,295.696991 416.258362,297.353455 416.056671,299.227753 
	C416.056671,299.227753 416.108795,299.495087 415.628052,300.030182 
	C414.913940,308.460083 413.802216,316.878571 413.560089,325.322021 
	C412.824799,350.961243 415.473145,376.344666 420.597931,401.442627 
	C421.689728,406.789490 424.138641,411.859283 425.996124,417.002441 
	C425.996124,417.002441 425.932343,416.997314 425.861023,417.839172 
	C428.168854,424.114380 430.263031,430.480682 432.882080,436.623169 
	C434.046265,439.353516 436.269226,441.632385 438.088013,444.534637 
	C438.088013,444.534637 438.322723,444.889374 438.317780,445.563538 
	C441.493225,448.431335 444.668671,451.299133 448.072876,454.608948 
	C448.296021,454.882996 448.583618,455.035706 449.113190,455.714478 
	C450.420288,456.464600 451.727356,457.214722 453.367828,458.563751 
	C456.207062,459.754242 459.046265,460.944702 462.200287,462.753204 
	C469.257263,464.413666 476.238586,466.937286 483.386169,467.563324 
	C500.781830,469.087097 517.920837,466.600983 534.496033,461.257751 
	C546.163391,457.496643 557.846436,453.502167 568.977051,448.417786 
	C590.938293,438.386139 611.140808,425.441528 629.531799,409.654602 
	C646.377075,395.194580 661.150574,379.100128 670.060730,358.544128 
	C676.874390,342.824799 677.857483,326.916962 669.658569,310.943848 
	C660.467163,293.037140 647.248840,278.539276 632.559082,265.227142 
	C627.582581,260.717377 621.890137,256.997559 616.235229,252.269394 
	C615.168213,251.499557 614.101257,250.729721 612.996582,249.984512 
	C612.996582,249.984512 613.037415,249.975616 612.878357,249.489044 
M390.767883,43.991978 
	C392.977112,42.044258 395.186310,40.096542 397.395508,38.148811 
	C394.804199,36.687683 392.213959,35.224602 389.618500,33.770893 
	C389.481354,33.694077 389.299835,33.696514 388.830658,33.100487 
	C387.201080,32.464169 385.571533,31.827848 383.468018,30.710833 
	C378.753174,28.926655 378.150513,29.286963 378.416046,34.055752 
	C378.619232,37.704620 378.882385,41.359596 379.365631,44.978909 
	C379.566071,46.480064 380.409607,47.895348 380.960693,49.349670 
	C382.598694,48.549637 384.236694,47.749607 386.530518,46.861835 
	C387.708893,45.940449 388.887299,45.019062 390.767883,43.991978 
M859.647461,218.599838 
	C860.464600,216.745743 861.281738,214.891647 862.708008,212.726242 
	C863.318237,210.961716 863.928467,209.197189 864.538696,207.432693 
	C862.893372,207.033524 861.256287,206.342117 859.600952,206.295105 
	C855.994385,206.192688 852.353516,206.200470 848.778076,206.611130 
	C847.220947,206.789978 845.790405,208.070908 844.302368,208.851288 
	C845.189697,210.245438 846.077026,211.639587 846.983948,213.725937 
	C848.258545,215.520096 849.533142,217.314255 850.941406,219.814453 
	C852.504211,221.715500 854.067017,223.616531 855.629822,225.517578 
	C856.807800,223.371109 857.985779,221.224625 859.647461,218.599838 
M712.217651,521.144897 
	C711.803223,522.177734 711.282227,523.181702 710.992493,524.248413 
	C709.616760,529.313232 710.030823,529.797913 715.091980,529.061890 
	C718.519470,528.563477 721.997864,528.225342 725.333069,527.354248 
	C727.263123,526.850098 728.954224,525.431213 730.752869,524.424011 
	C729.446045,522.701843 728.139221,520.979614 726.489685,518.684998 
	C724.537048,516.442139 722.586304,514.197571 720.631409,511.956696 
	C718.048645,508.996063 715.623840,509.355652 714.474365,513.066162 
	C713.694641,515.583191 713.382996,518.245117 712.217651,521.144897 
M822.228577,443.099213 
	C813.580444,440.852814 812.407654,441.545929 811.630188,449.359070 
	C811.601196,449.939758 811.572205,450.520416 811.332458,451.785858 
	C811.359192,452.494934 811.385864,453.204041 811.239319,454.535278 
	C811.809021,455.060974 812.378784,455.586670 813.236023,456.286621 
	C813.236023,456.286621 813.570496,456.320709 814.004517,456.941742 
	C816.864014,457.432129 819.832092,458.660553 822.560364,458.259094 
	C828.229736,457.424988 826.916016,452.012787 827.707031,448.331207 
	C828.396057,445.124146 826.755676,442.864319 822.228577,443.099213 
M239.812958,208.136093 
	C238.584015,205.398712 237.355057,202.661346 235.924530,199.335526 
	C235.251190,199.048035 234.577850,198.760529 233.095688,198.239639 
	C231.429657,198.325607 229.763626,198.411575 227.500305,198.335098 
	C226.939087,198.851944 226.377869,199.368790 225.327560,200.142303 
	C224.834137,200.682312 224.340729,201.222321 223.279282,202.012604 
	C222.989456,202.704865 222.699646,203.397125 222.192215,204.836899 
	C222.204758,205.871338 222.217300,206.905762 222.102554,208.680664 
	C222.947205,213.775467 226.143402,216.036606 231.105728,215.911148 
	C235.698334,215.795013 239.079819,214.019684 239.812958,208.136093 
M768.905701,141.363983 
	C767.228882,135.579941 763.257568,131.900024 758.040466,131.296005 
	C752.382446,130.640930 748.057434,133.214813 745.010376,139.844482 
	C743.180237,145.364731 744.102661,150.143829 748.776672,153.930237 
	C752.779602,157.172943 757.330627,158.024750 761.793030,155.597900 
	C766.938843,152.799377 769.831970,148.348755 768.905701,141.363983 
M239.222443,303.500793 
	C237.674774,304.560974 236.127106,305.621155 233.959808,307.150055 
	C233.711609,309.756836 233.266464,312.362335 233.249405,314.970612 
	C233.176422,326.118073 233.155151,337.267090 233.268188,348.414001 
	C233.325821,354.097565 236.903717,357.258301 240.843781,355.055176 
	C253.264587,348.109955 265.581879,340.976654 277.856812,333.775665 
	C280.600189,332.166321 280.959381,327.294891 278.390533,325.640656 
	C275.100616,323.522064 271.405334,322.032959 267.303162,319.906830 
	C258.939636,314.873688 250.576126,309.840546 242.011581,304.333069 
	C241.337296,304.066895 240.663010,303.800720 239.222443,303.500793 
M561.794250,87.964928 
	C563.979614,83.374268 566.313049,78.846924 568.310669,74.175987 
	C570.516418,69.018242 569.127380,63.990383 564.368164,61.481266 
	C556.934937,57.562359 549.328430,53.935028 541.618591,50.591705 
	C536.796997,48.500881 532.397583,50.554081 530.112427,55.529766 
	C530.112427,55.529766 529.997864,55.997147 529.344055,56.171593 
	C528.626587,57.797928 527.909180,59.424263 526.882751,61.681351 
	C525.659546,64.467110 524.436340,67.252861 522.900269,70.702927 
	C521.768494,73.031586 520.657104,75.370407 519.500488,77.686676 
	C517.474976,81.743149 518.322571,86.700867 522.325134,88.838318 
	C529.094788,92.453438 536.211548,95.418602 543.513367,99.335587 
	C545.228210,99.897026 546.910522,100.787918 548.663696,100.961197 
	C555.222229,101.609436 559.160950,97.500626 561.794250,87.964928 
M514.815063,598.045959 
	C517.400879,611.516479 530.824463,619.500916 543.621460,615.406250 
	C553.242554,612.327820 558.675964,605.965393 560.359741,595.420410 
	C560.197388,593.625916 560.035034,591.831360 559.927002,589.370117 
	C559.847168,588.932861 559.767395,588.495667 559.815918,587.310608 
	C557.565918,577.904663 551.127502,572.306885 542.188599,570.489685 
	C532.257080,568.470764 523.157349,571.205933 517.620667,580.375610 
	C514.607117,585.366455 510.983490,590.868103 514.815063,598.045959 
M775.350891,302.841248 
	C769.641296,302.390564 765.324951,304.784485 763.390808,309.514404 
	C761.431335,314.306183 762.680725,318.737305 766.534973,321.550476 
	C770.988403,324.801056 776.194824,327.020081 781.380798,330.306763 
	C791.633484,336.354218 801.811584,342.534637 812.191101,348.355957 
	C814.800964,349.819702 818.121094,350.998535 821.001160,350.783905 
	C826.142334,350.400787 829.335876,346.730621 830.380981,341.782501 
	C831.382690,337.039581 829.211731,333.287109 825.154907,330.881927 
	C815.029541,324.878876 804.864502,318.937836 794.607483,313.163513 
	C788.454163,309.699402 782.098083,306.595367 775.350891,302.841248 
M341.269989,511.270813 
	C340.014801,511.511597 338.031006,511.342194 337.625977,512.061584 
	C335.464691,515.900452 332.943359,519.829224 332.208740,524.018372 
	C331.955170,525.464478 336.468445,527.775391 338.848053,529.635193 
	C339.491791,530.138245 340.291687,530.444153 341.026978,530.826965 
	C344.405273,532.585754 347.064545,532.124146 348.751312,528.402527 
	C349.503265,526.743469 350.479095,525.183533 351.195709,523.511108 
	C353.547150,518.023499 352.889130,516.472778 347.386230,513.985352 
	C345.580017,513.168884 343.814392,512.262573 341.269989,511.270813 
M334.058838,152.859802 
	C330.781982,154.409546 327.281555,155.637131 324.343872,157.675674 
	C323.247192,158.436707 322.654236,161.508789 323.304108,162.765747 
	C323.984375,164.081497 326.867462,165.570740 328.038910,165.104156 
	C334.931213,162.359009 341.705017,159.254364 348.263672,155.788162 
	C349.504669,155.132294 350.631989,151.381653 350.002106,150.677261 
	C348.769745,149.299133 346.061279,148.160400 344.324005,148.545853 
	C341.004333,149.282440 337.936920,151.155930 334.058838,152.859802 
M245.957733,473.378540 
	C252.506149,469.523376 259.116180,465.765594 265.533875,461.703827 
	C266.453979,461.121521 267.171448,458.642548 266.680145,457.810822 
	C266.083557,456.800934 263.631561,455.739380 262.796356,456.194458 
	C253.672165,461.165192 244.658142,466.347351 235.774277,471.736023 
	C234.880936,472.277893 234.506134,474.724976 234.908493,475.954773 
	C235.146118,476.680969 237.581100,477.352325 238.684357,476.993134 
	C240.997620,476.239960 243.083862,474.789581 245.957733,473.378540 
M679.532715,48.308216 
	C682.159119,40.812447 684.887817,33.349384 687.305359,25.786846 
	C687.682678,24.606426 686.643066,22.973030 686.258667,21.549093 
	C684.993042,22.361654 683.633179,23.064041 682.501282,24.032839 
	C681.927612,24.523863 681.700134,25.472822 681.427246,26.253578 
	C678.040161,35.945789 674.596558,45.620010 671.410278,55.378143 
	C671.057251,56.459358 672.202881,58.029907 672.653503,59.373505 
	C673.785339,58.699642 675.435364,58.293446 675.948486,57.300014 
	C677.302368,54.678894 678.162903,51.802982 679.532715,48.308216 
M666.251282,618.666199 
	C666.367798,619.822876 666.121704,621.214905 666.684448,622.082031 
	C667.564453,623.438232 669.114197,625.498352 670.162720,625.377258 
	C672.590454,625.096924 676.651367,623.972656 676.860229,622.676392 
	C677.259155,620.202026 676.130615,615.891602 674.355591,615.052673 
	C672.055542,613.965576 667.765015,613.598999 666.251282,618.666199 
M404.541290,613.008545 
	C403.512695,611.950134 401.716064,609.872986 401.569031,609.983826 
	C398.673889,612.166504 395.966003,614.598450 393.267334,617.032104 
	C393.225220,617.070068 393.690887,617.957275 394.064941,618.125977 
	C397.511230,619.680481 400.989594,621.163818 404.458618,622.667847 
	C404.862244,622.238770 405.265869,621.809692 405.669464,621.380554 
	C405.316711,618.852051 404.963928,616.323547 404.541290,613.008545 
z"/>
<path fill="#A86FCA" opacity="1.000000" stroke="none" 
	d="
M616.524902,252.916748 
	C621.890137,256.997559 627.582581,260.717377 632.559082,265.227142 
	C647.248840,278.539276 660.467163,293.037140 669.658569,310.943848 
	C677.857483,326.916962 676.874390,342.824799 670.060730,358.544128 
	C661.150574,379.100128 646.377075,395.194580 629.531799,409.654602 
	C611.140808,425.441528 590.938293,438.386139 568.977051,448.417786 
	C557.846436,453.502167 546.163391,457.496643 534.496033,461.257751 
	C517.920837,466.600983 500.781830,469.087097 483.386169,467.563324 
	C476.238586,466.937286 469.257263,464.413666 462.086304,462.390137 
	C461.972321,462.027100 462.057495,461.917694 462.467957,461.940247 
	C464.251495,461.979858 465.624542,461.996857 467.221771,462.303711 
	C472.406982,463.727051 477.346954,464.965393 482.334564,465.966675 
	C488.148010,467.133698 492.225006,465.254669 494.005371,459.162262 
	C494.596649,457.138977 495.961395,455.330353 497.039978,453.462585 
	C506.245422,437.521576 515.483337,421.599335 524.677185,405.651672 
	C531.800964,393.294708 538.827148,380.881317 545.983459,368.543274 
	C555.878540,351.483215 565.917358,334.506378 575.778564,317.426880 
	C585.144592,301.205170 594.273071,284.845978 603.692993,268.656036 
	C606.831299,263.262299 610.547852,258.205017 614.420044,252.991364 
	C615.401733,252.964798 615.963318,252.940781 616.524902,252.916748 
M671.792542,321.321594 
	C668.516296,314.886841 665.240112,308.452118 661.714783,301.382324 
	C658.534790,297.152222 655.460266,292.836609 652.130249,288.728119 
	C650.467224,286.676331 648.025024,285.805176 646.360229,288.602905 
	C640.796997,297.952423 635.391052,307.397858 630.059631,316.882355 
	C624.879395,326.098175 620.016174,335.494293 614.738892,344.652924 
	C608.531982,355.425018 601.900879,365.952667 595.688843,376.721924 
	C588.698853,388.840027 582.022400,401.138550 575.113953,413.304291 
	C568.823181,424.382263 562.359192,435.362061 556.098633,446.456818 
	C555.308472,447.857117 555.290161,449.692993 554.914246,451.327057 
	C555.333496,451.734161 555.752747,452.141296 556.172058,452.548401 
	C565.455078,447.717255 574.738098,442.886139 584.657715,437.743835 
	C595.780273,430.499969 606.902893,423.256104 618.615417,415.700470 
	C621.629456,413.121338 624.599548,410.488647 627.664795,407.971893 
	C644.842163,393.868347 659.442078,377.633728 668.298096,356.994110 
	C673.080811,345.847626 674.794617,334.106873 671.792542,321.321594 
M640.494568,275.993561 
	C639.434021,274.933167 638.384033,273.861908 637.311035,272.814240 
	C632.882202,268.490082 631.080017,268.700378 627.941528,274.137665 
	C622.814880,283.019287 617.835693,291.986145 612.694580,300.859253 
	C594.407959,332.420166 576.053589,363.941864 557.776123,395.508087 
	C547.468445,413.309967 537.249023,431.162994 527.018188,449.009186 
	C524.897217,452.708862 522.901489,456.480286 520.440857,460.959900 
	C522.642822,461.418884 524.155090,462.236237 525.340332,461.900146 
	C533.447876,459.601410 541.499207,457.099243 549.519775,454.511322 
	C550.057739,454.337708 550.269470,452.945374 550.505981,452.084991 
	C551.138000,449.786224 551.296448,447.258698 552.365723,445.196869 
	C555.800964,438.572937 559.528076,432.098724 563.205566,425.602417 
	C570.226135,413.200775 577.242310,400.796234 584.348450,388.443634 
	C592.599548,374.100830 600.970032,359.826691 609.242249,345.495972 
	C615.706238,334.297729 622.058533,323.034973 628.536133,311.844666 
	C634.335510,301.826080 640.238220,291.867371 646.652649,280.932251 
	C644.673279,279.379700 642.835815,277.938477 640.494568,275.993561 
z"/>
<path fill="#B26DBF" opacity="1.000000" stroke="none" 
	d="
M614.000000,252.993927 
	C610.547852,258.205017 606.831299,263.262299 603.692993,268.656036 
	C594.273071,284.845978 585.144592,301.205170 575.778564,317.426880 
	C565.917358,334.506378 555.878540,351.483215 545.983459,368.543274 
	C538.827148,380.881317 531.800964,393.294708 524.677185,405.651672 
	C515.483337,421.599335 506.245422,437.521576 497.039978,453.462585 
	C495.961395,455.330353 494.596649,457.138977 494.005371,459.162262 
	C492.225006,465.254669 488.148010,467.133698 482.334564,465.966675 
	C477.346954,464.965393 472.406982,463.727051 467.369751,461.996643 
	C468.362976,459.931305 469.581360,458.548187 470.478699,456.981262 
	C479.836487,440.640717 489.153534,424.276794 498.459900,407.906860 
	C505.738251,395.104218 513.042297,382.315430 520.181091,369.435181 
	C521.165405,367.659180 521.262268,365.391388 521.944702,363.104309 
	C536.683777,349.285248 551.255005,335.720459 565.806152,322.134247 
	C568.393860,319.718140 571.652283,317.019135 568.096130,313.425659 
	C565.016113,310.313263 562.184570,312.563904 559.568237,315.079681 
	C556.224670,318.294708 552.593262,321.210266 549.061768,323.835754 
	C550.635437,319.734741 551.968933,315.909119 553.879150,312.397156 
	C560.270935,300.645447 566.824707,288.980835 573.401794,277.331055 
	C578.894348,267.602356 584.727051,258.058838 589.983093,248.206024 
	C593.104248,242.355118 595.179626,240.798309 601.522278,241.886230 
	C601.522278,241.886230 601.753601,241.787476 601.903564,242.223236 
	C604.014832,243.780853 605.976074,244.902710 607.937317,246.024551 
	C607.937317,246.024551 607.987976,245.994156 608.030151,246.375244 
	C609.377197,247.500580 610.682007,248.244827 611.986816,248.989090 
	C611.986816,248.989090 612.005127,248.992813 612.113159,249.224319 
	C612.427368,249.732407 612.699463,249.905670 613.037415,249.975616 
	C613.037415,249.975616 612.996582,249.984512 613.025024,250.295578 
	C613.369019,251.402405 613.684509,252.198151 614.000000,252.993927 
z"/>
<path fill="#D168A1" opacity="1.000000" stroke="none" 
	d="
M545.480896,211.843445 
	C545.480896,211.843445 545.730286,211.753906 546.042297,212.118515 
	C548.599670,213.302246 550.845093,214.121384 553.090454,214.940506 
	C553.090454,214.940506 553.026367,214.986206 553.169189,215.277069 
	C554.747009,216.325302 556.543030,216.775360 557.519897,217.922791 
	C558.589539,219.179214 559.888062,221.539932 559.382141,222.623169 
	C556.550842,228.684967 553.367310,234.601013 549.998596,240.389038 
	C543.431396,251.672531 536.615112,262.810730 529.989929,274.060913 
	C523.785828,284.596069 517.637146,295.164886 511.573761,305.781555 
	C506.926453,313.918701 502.450012,322.153442 497.511902,330.299194 
	C490.795013,330.877380 489.708221,333.885742 493.330048,339.890167 
	C489.346558,345.281616 485.352844,350.328369 482.169922,355.843048 
	C470.590881,375.904968 459.392609,396.186676 447.812195,416.247772 
	C443.883148,423.054169 439.247620,429.452728 434.676880,435.799133 
	C431.590027,429.372833 428.761200,423.185089 425.932343,416.997314 
	C425.932343,416.997314 425.996124,417.002441 426.007263,416.624207 
	C426.010223,415.162811 426.002075,414.079590 426.368225,412.989563 
	C428.399384,411.764771 430.683929,410.903290 431.610931,409.270874 
	C437.551483,398.809937 443.016357,388.078369 448.977783,377.629822 
	C457.249359,363.132263 465.886322,348.843628 474.241089,334.392914 
	C480.343536,323.837921 486.183563,313.131500 492.250824,302.555878 
	C497.840912,292.811981 503.568909,283.147125 509.253052,273.457336 
	C514.679688,264.206421 521.037842,255.368683 525.328979,245.619751 
	C530.313843,234.294739 540.796021,225.947647 542.557190,212.981171 
	C542.625427,212.478821 544.466125,212.217224 545.480896,211.843445 
z"/>
<path fill="#C86AAB" opacity="1.000000" stroke="none" 
	d="
M545.283142,211.537613 
	C544.466125,212.217224 542.625427,212.478821 542.557190,212.981171 
	C540.796021,225.947647 530.313843,234.294739 525.328979,245.619751 
	C521.037842,255.368683 514.679688,264.206421 509.253052,273.457336 
	C503.568909,283.147125 497.840912,292.811981 492.250824,302.555878 
	C486.183563,313.131500 480.343536,323.837921 474.241089,334.392914 
	C465.886322,348.843628 457.249359,363.132263 448.977783,377.629822 
	C443.016357,388.078369 437.551483,398.809937 431.610931,409.270874 
	C430.683929,410.903290 428.399384,411.764771 426.319794,412.618774 
	C424.933990,408.833923 423.970978,405.413055 423.355103,401.964630 
	C426.477753,398.941711 429.853119,396.308441 431.919708,392.885101 
	C438.920685,381.287994 445.454010,369.408691 452.174225,357.641907 
	C458.818268,346.008423 465.520935,334.408173 472.109222,322.743256 
	C480.077148,308.635712 487.828949,294.404877 495.898071,280.355927 
	C506.021851,262.729675 516.377869,245.236786 526.622009,227.679565 
	C529.214050,223.237152 531.904236,218.843338 534.284790,214.288925 
	C536.168640,210.684753 534.801086,208.194443 530.910034,207.163925 
	C527.073364,206.147781 523.211365,205.227295 519.364197,204.250229 
	C512.973999,202.627304 511.307220,203.333298 507.886932,209.185089 
	C507.467896,209.902008 507.154663,210.679871 506.762207,211.413345 
	C501.552765,221.150253 496.523926,230.989792 491.075928,240.591476 
	C484.706879,251.816360 477.916779,262.801483 471.417297,273.953552 
	C468.101471,279.643066 465.146301,285.543427 461.809570,291.220062 
	C454.705017,303.306854 447.420715,315.287842 440.278961,327.352966 
	C432.467468,340.549500 424.733582,353.791962 416.708954,366.775909 
	C416.321991,363.670746 416.191956,360.804077 416.427185,357.971558 
	C418.920807,355.904541 421.575714,354.122742 423.080048,351.643005 
	C427.786530,343.884613 431.939270,335.792877 436.524139,327.957581 
	C446.279083,311.286835 456.246216,294.740051 465.970459,278.051605 
	C469.935120,271.247589 473.329254,264.111877 477.271667,257.294037 
	C486.527069,241.288315 495.999603,225.408295 505.290466,209.422882 
	C508.239044,204.349716 506.812347,201.568985 500.995850,201.094818 
	C497.029968,200.771515 493.020447,200.982986 488.787170,200.696838 
	C487.370270,200.323471 486.196655,200.208618 484.685394,200.065247 
	C483.565186,200.347794 482.782623,200.658890 481.578613,200.980438 
	C479.083466,201.609665 477.009796,202.228424 474.524658,202.870483 
	C472.503021,203.184219 470.863831,203.365036 469.287292,203.782410 
	C456.356689,207.205597 447.857391,216.170731 440.554077,226.695847 
	C438.281128,229.971436 435.650787,232.998978 433.184082,236.140076 
	C439.205078,222.132889 448.379822,210.915848 462.398804,204.381241 
	C476.914185,197.615280 492.102386,196.776031 507.554565,200.582581 
	C518.773193,203.346207 529.944214,206.305466 541.112427,209.267990 
	C542.511902,209.639206 543.764648,210.563660 545.283142,211.537613 
z"/>
<path fill="#BE6BB4" opacity="1.000000" stroke="none" 
	d="
M601.367432,241.560577 
	C595.179626,240.798309 593.104248,242.355118 589.983093,248.206024 
	C584.727051,258.058838 578.894348,267.602356 573.401794,277.331055 
	C566.824707,288.980835 560.270935,300.645447 553.879150,312.397156 
	C551.968933,315.909119 550.635437,319.734741 548.912842,324.124451 
	C538.583069,334.369843 528.378113,343.907410 517.793579,353.799744 
	C514.574402,349.843384 511.789948,346.421356 509.387878,342.998322 
	C515.500366,341.547852 516.787842,335.957977 519.299622,331.922516 
	C525.060242,322.667542 529.792053,312.779785 535.206787,303.300415 
	C545.294067,285.640991 555.453430,268.020233 565.821716,250.524994 
	C570.371887,242.847198 573.656067,234.238815 580.981201,228.444580 
	C587.725037,232.708023 594.468811,236.971481 601.367432,241.560577 
z"/>
<path fill="#C86AAB" opacity="1.000000" stroke="none" 
	d="
M580.711548,228.197174 
	C573.656067,234.238815 570.371887,242.847198 565.821716,250.524994 
	C555.453430,268.020233 545.294067,285.640991 535.206787,303.300415 
	C529.792053,312.779785 525.060242,322.667542 519.299622,331.922516 
	C516.787842,335.957977 515.500366,341.547852 509.095062,342.837372 
	C504.912415,338.566528 501.404968,334.455658 497.897552,330.344757 
	C502.450012,322.153442 506.926453,313.918701 511.573761,305.781555 
	C517.637146,295.164886 523.785828,284.596069 529.989929,274.060913 
	C536.615112,262.810730 543.431396,251.672531 549.998596,240.389038 
	C553.367310,234.601013 556.550842,228.684967 559.382141,222.623169 
	C559.888062,221.539932 558.589539,219.179214 557.519897,217.922791 
	C556.543030,216.775360 554.747009,216.325302 553.169617,215.237701 
	C562.165466,219.254929 571.303711,223.602356 580.711548,228.197174 
z"/>
<path fill="#C86AAB" opacity="1.000000" stroke="none" 
	d="
M434.934937,436.037659 
	C439.247620,429.452728 443.883148,423.054169 447.812195,416.247772 
	C459.392609,396.186676 470.590881,375.904968 482.169922,355.843048 
	C485.352844,350.328369 489.346558,345.281616 493.554260,340.097229 
	C498.296539,345.374420 502.452789,350.574463 506.269073,355.936462 
	C500.407532,365.474426 494.864014,374.837646 489.371002,384.230408 
	C484.548218,392.477112 479.766205,400.747772 474.995148,409.024567 
	C469.728302,418.161530 464.672089,427.425903 459.181335,436.425598 
	C455.753387,442.044159 454.306915,449.340729 446.710083,451.824158 
	C443.715240,449.417633 441.018982,447.153503 438.322723,444.889374 
	C438.322723,444.889374 438.088013,444.534637 438.024170,443.949432 
	C436.951904,440.922028 435.943420,438.479858 434.934937,436.037659 
z"/>
<path fill="#F7627D" opacity="1.000000" stroke="none" 
	d="
M433.074677,236.310486 
	C435.650787,232.998978 438.281128,229.971436 440.554077,226.695847 
	C447.857391,216.170731 456.356689,207.205597 469.287292,203.782410 
	C470.863831,203.365036 472.503021,203.184219 474.671753,203.217377 
	C475.123871,205.094040 475.466461,206.867203 474.832092,208.161545 
	C472.269867,213.389313 469.484222,218.513123 466.631714,223.591415 
	C463.966309,228.336655 461.081482,232.958069 458.347473,237.665497 
	C453.562592,245.904160 448.807648,254.160294 444.061249,262.421234 
	C436.785065,275.085205 429.586914,287.794861 422.168701,300.374969 
	C421.420166,301.644318 419.387909,302.156616 417.954102,302.569031 
	C418.268555,298.071625 418.580292,294.025482 418.922607,289.559326 
	C419.008331,287.456207 419.063477,285.773041 419.295105,283.947144 
	C419.705017,283.578674 419.807861,283.304047 419.839478,282.566223 
	C420.024719,280.494019 420.150696,278.836182 420.619141,277.021484 
	C423.956482,266.811218 426.945435,256.756073 429.949463,246.705368 
	C430.929565,243.426117 431.948822,240.158554 432.950165,236.885651 
	C432.950165,236.885651 432.965271,236.480911 433.074677,236.310486 
z"/>
<path fill="#FF9452" opacity="1.000000" stroke="none" 
	d="
M775.833130,303.329468 
	C782.098083,306.595367 788.454163,309.699402 794.607483,313.163513 
	C804.864502,318.937836 815.029541,324.878876 825.154907,330.881927 
	C829.211731,333.287109 831.382690,337.039581 830.380981,341.782501 
	C829.335876,346.730621 826.142334,350.400787 821.001160,350.783905 
	C818.121094,350.998535 814.800964,349.819702 812.191101,348.355957 
	C801.811584,342.534637 791.633484,336.354218 781.182983,329.638245 
	C779.955933,326.768982 778.713806,324.640106 777.941650,322.352600 
	C776.343750,317.618744 774.751343,312.853027 773.704529,307.982697 
	C773.417236,306.645844 775.070374,304.891968 775.833130,303.329468 
z"/>
<path fill="#F7627D" opacity="1.000000" stroke="none" 
	d="
M559.687622,588.058411 
	C559.767395,588.495667 559.847168,588.932861 559.647339,589.959656 
	C559.562256,592.361877 559.756775,594.174561 559.951355,595.987244 
	C558.675964,605.965393 553.242554,612.327820 543.621460,615.406250 
	C530.824463,619.500916 517.400879,611.516479 514.899109,597.187439 
	C515.169922,585.442078 515.165955,585.413391 524.470032,584.123047 
	C525.749878,583.945557 527.092468,584.279419 528.405334,584.270752 
	C533.070068,584.239929 537.757568,583.846313 542.393250,584.183472 
	C548.308044,584.613708 554.745422,583.152344 559.687622,588.058411 
z"/>
<path fill="#9585F3" opacity="1.000000" stroke="none" 
	d="
M523.213135,70.038628 
	C524.436340,67.252861 525.659546,64.467110 527.367676,61.286774 
	C528.567688,59.260517 529.282776,57.628838 529.997864,55.997154 
	C529.997864,55.997147 530.112427,55.529766 530.543457,55.290241 
	C534.804504,53.713528 536.882080,55.678909 539.187683,58.565357 
	C541.915955,61.980976 545.078064,65.446114 548.801514,67.585464 
	C555.792603,71.602280 561.720764,80.606987 561.153564,88.235649 
	C559.160950,97.500626 555.222229,101.609436 548.663696,100.961197 
	C546.910522,100.787918 545.228210,99.897026 543.615234,98.801598 
	C546.949890,98.505928 550.182678,98.744247 553.415405,98.982567 
	C553.549988,98.459595 553.684570,97.936623 553.819092,97.413643 
	C550.012146,94.394905 546.003052,91.594559 542.447083,88.304504 
	C537.532410,83.757370 532.998962,78.800659 528.216370,74.106850 
	C526.688965,72.607788 524.888611,71.386833 523.213135,70.038628 
M553.407837,74.478683 
	C553.407837,74.478683 553.524719,74.406425 553.407837,74.478683 
z"/>
<path fill="#82DED5" opacity="1.000000" stroke="none" 
	d="
M267.884705,320.272614 
	C271.405334,322.032959 275.100616,323.522064 278.390533,325.640656 
	C280.959381,327.294891 280.600189,332.166321 277.856812,333.775665 
	C265.581879,340.976654 253.264587,348.109955 240.843781,355.055176 
	C236.903717,357.258301 233.325821,354.097565 233.268188,348.414001 
	C233.155151,337.267090 233.176422,326.118073 233.249405,314.970612 
	C233.266464,312.362335 233.711609,309.756836 234.386230,307.399078 
	C234.812668,318.719788 234.812668,329.791473 234.812668,340.955536 
	C237.471832,338.795563 239.765396,336.932587 242.132843,335.009552 
	C243.169861,335.970276 243.964066,336.706024 243.900757,336.647369 
	C252.373093,331.739532 260.337128,327.126129 268.516754,322.387848 
	C268.446503,322.152771 268.165588,321.212708 267.884705,320.272614 
z"/>
<path fill="#3ED5BF" opacity="1.000000" stroke="none" 
	d="
M267.593933,320.089722 
	C268.165588,321.212708 268.446503,322.152771 268.516754,322.387848 
	C260.337128,327.126129 252.373093,331.739532 243.900757,336.647369 
	C243.964066,336.706024 243.169861,335.970276 242.132843,335.009552 
	C239.765396,336.932587 237.471832,338.795563 234.812668,340.955536 
	C234.812668,329.791473 234.812668,318.719788 234.696045,307.164703 
	C236.127106,305.621155 237.674774,304.560974 239.742920,303.851746 
	C240.913132,304.404297 241.562866,304.605865 242.212616,304.807434 
	C250.576126,309.840546 258.939636,314.873688 267.593933,320.089722 
z"/>
<path fill="#ADA2F2" opacity="1.000000" stroke="none" 
	d="
M561.473877,88.100288 
	C561.720764,80.606987 555.792603,71.602280 548.801514,67.585464 
	C545.078064,65.446114 541.915955,61.980976 539.187683,58.565357 
	C536.882080,55.678909 534.804504,53.713528 530.644287,55.071785 
	C532.397583,50.554081 536.796997,48.500881 541.618591,50.591705 
	C549.328430,53.935028 556.934937,57.562359 564.368164,61.481266 
	C569.127380,63.990383 570.516418,69.018242 568.310669,74.175987 
	C566.313049,78.846924 563.979614,83.374268 561.473877,88.100288 
z"/>
<path fill="#F97F94" opacity="1.000000" stroke="none" 
	d="
M559.751770,587.684509 
	C554.745422,583.152344 548.308044,584.613708 542.393250,584.183472 
	C537.757568,583.846313 533.070068,584.239929 528.405334,584.270752 
	C527.092468,584.279419 525.749878,583.945557 524.470032,584.123047 
	C515.165955,585.413391 515.169922,585.442078 514.915894,596.795288 
	C510.983490,590.868103 514.607117,585.366455 517.620667,580.375610 
	C523.157349,571.205933 532.257080,568.470764 542.188599,570.489685 
	C551.127502,572.306885 557.565918,577.904663 559.751770,587.684509 
z"/>
<path fill="#8771E8" opacity="1.000000" stroke="none" 
	d="
M523.056702,70.370781 
	C524.888611,71.386833 526.688965,72.607788 528.216370,74.106850 
	C532.998962,78.800659 537.532410,83.757370 542.447083,88.304504 
	C546.003052,91.594559 550.012146,94.394905 553.819092,97.413643 
	C553.684570,97.936623 553.549988,98.459595 553.415405,98.982567 
	C550.182678,98.744247 546.949890,98.505928 543.449768,98.462326 
	C536.211548,95.418602 529.094788,92.453438 522.325134,88.838318 
	C518.322571,86.700867 517.474976,81.743149 519.500488,77.686676 
	C520.657104,75.370407 521.768494,73.031586 523.056702,70.370781 
z"/>
<path fill="#3ED5BF" opacity="1.000000" stroke="none" 
	d="
M768.774231,142.101227 
	C769.831970,148.348755 766.938843,152.799377 761.793030,155.597900 
	C757.330627,158.024750 752.779602,157.172943 748.776672,153.930237 
	C744.102661,150.143829 743.180237,145.364731 745.493958,139.429718 
	C747.797791,139.016800 749.620483,138.958618 751.437927,139.031509 
	C757.352783,139.268753 763.606079,137.639191 768.774231,142.101227 
z"/>
<path fill="#FF9452" opacity="1.000000" stroke="none" 
	d="
M341.650085,511.334106 
	C343.814392,512.262573 345.580017,513.168884 347.386230,513.985352 
	C352.889130,516.472778 353.547150,518.023499 351.195709,523.511108 
	C350.479095,525.183533 349.503265,526.743469 348.751312,528.402527 
	C347.064545,532.124146 344.405273,532.585754 341.026978,530.826965 
	C340.291687,530.444153 339.491791,530.138245 338.848053,529.635193 
	C336.468445,527.775391 331.955170,525.464478 332.208740,524.018372 
	C332.943359,519.829224 335.464691,515.900452 337.625977,512.061584 
	C338.031006,511.342194 340.014801,511.511597 341.650085,511.334106 
z"/>
<path fill="#FF9452" opacity="1.000000" stroke="none" 
	d="
M334.411804,152.708679 
	C337.936920,151.155930 341.004333,149.282440 344.324005,148.545853 
	C346.061279,148.160400 348.769745,149.299133 350.002106,150.677261 
	C350.631989,151.381653 349.504669,155.132294 348.263672,155.788162 
	C341.705017,159.254364 334.931213,162.359009 328.038910,165.104156 
	C326.867462,165.570740 323.984375,164.081497 323.304108,162.765747 
	C322.654236,161.508789 323.247192,158.436707 324.343872,157.675674 
	C327.281555,155.637131 330.781982,154.409546 334.411804,152.708679 
z"/>
<path fill="#F7627D" opacity="1.000000" stroke="none" 
	d="
M775.592041,303.085358 
	C775.070374,304.891968 773.417236,306.645844 773.704529,307.982697 
	C774.751343,312.853027 776.343750,317.618744 777.941650,322.352600 
	C778.713806,324.640106 779.955933,326.768982 781.029724,329.328339 
	C776.194824,327.020081 770.988403,324.801056 766.534973,321.550476 
	C762.680725,318.737305 761.431335,314.306183 763.390808,309.514404 
	C765.324951,304.784485 769.641296,302.390564 775.592041,303.085358 
z"/>
<path fill="#F97F94" opacity="1.000000" stroke="none" 
	d="
M245.610535,473.502014 
	C243.083862,474.789581 240.997620,476.239960 238.684357,476.993134 
	C237.581100,477.352325 235.146118,476.680969 234.908493,475.954773 
	C234.506134,474.724976 234.880936,472.277893 235.774277,471.736023 
	C244.658142,466.347351 253.672165,461.165192 262.796356,456.194458 
	C263.631561,455.739380 266.083557,456.800934 266.680145,457.810822 
	C267.171448,458.642548 266.453979,461.121521 265.533875,461.703827 
	C259.116180,465.765594 252.506149,469.523376 245.610535,473.502014 
z"/>
<path fill="#F97F94" opacity="1.000000" stroke="none" 
	d="
M679.376282,48.668365 
	C678.162903,51.802982 677.302368,54.678894 675.948486,57.300014 
	C675.435364,58.293446 673.785339,58.699642 672.653503,59.373508 
	C672.202881,58.029907 671.057251,56.459358 671.410278,55.378143 
	C674.596558,45.620010 678.040161,35.945789 681.427246,26.253578 
	C681.700134,25.472822 681.927612,24.523863 682.501282,24.032839 
	C683.633179,23.064041 684.993042,22.361654 686.258667,21.549095 
	C686.643066,22.973030 687.682678,24.606426 687.305359,25.786846 
	C684.887817,33.349384 682.159119,40.812447 679.376282,48.668365 
z"/>
<path fill="#B26DBF" opacity="1.000000" stroke="none" 
	d="
M416.061951,357.937378 
	C416.191956,360.804077 416.321991,363.670746 416.868286,367.152527 
	C419.192352,379.175812 421.100189,390.584015 423.007996,401.992188 
	C423.970978,405.413055 424.933990,408.833923 425.945435,412.625610 
	C426.002075,414.079590 426.010223,415.162811 425.990356,416.651367 
	C424.138641,411.859283 421.689728,406.789490 420.597931,401.442627 
	C415.473145,376.344666 412.824799,350.961243 413.560089,325.322021 
	C413.802216,316.878571 414.913940,308.460083 415.836700,300.147003 
	C416.101715,301.886993 416.158081,303.510193 416.177551,305.586975 
	C416.067841,311.023560 415.994995,316.006561 415.654175,321.262573 
	C413.284027,330.406799 413.001190,339.240906 415.941406,348.462036 
	C415.991882,351.922089 416.026886,354.929718 416.061951,357.937378 
z"/>
<path fill="#9585F3" opacity="1.000000" stroke="none" 
	d="
M223.847321,201.762329 
	C224.340729,201.222321 224.834137,200.682312 225.878326,200.032303 
	C226.985275,199.447388 227.541443,198.972473 228.097595,198.497543 
	C229.763626,198.411575 231.429657,198.325607 233.596497,198.630569 
	C234.773560,199.322327 235.449829,199.623154 236.126099,199.923981 
	C237.355057,202.661346 238.584015,205.398712 239.326355,208.541885 
	C233.303131,208.611847 227.766479,208.276016 222.229843,207.940201 
	C222.217300,206.905762 222.204758,205.871338 222.592407,204.369034 
	C223.277496,203.188232 223.562408,202.475281 223.847321,201.762329 
z"/>
<path fill="#82DED5" opacity="1.000000" stroke="none" 
	d="
M768.839966,141.732605 
	C763.606079,137.639191 757.352783,139.268753 751.437927,139.031509 
	C749.620483,138.958618 747.797791,139.016800 745.513306,139.021149 
	C748.057434,133.214813 752.382446,130.640930 758.040466,131.296005 
	C763.257568,131.900024 767.228882,135.579941 768.839966,141.732605 
z"/>
<path fill="#DE6595" opacity="1.000000" stroke="none" 
	d="
M846.964355,213.033722 
	C846.077026,211.639587 845.189697,210.245438 844.302368,208.851303 
	C845.790405,208.070908 847.220947,206.789978 848.778076,206.611130 
	C852.353516,206.200470 855.994385,206.192688 859.600952,206.295105 
	C861.256287,206.342117 862.893372,207.033524 864.538696,207.432678 
	C863.928467,209.197189 863.318237,210.961716 861.929199,212.867554 
	C856.421753,213.017136 851.693054,213.025436 846.964355,213.033722 
z"/>
<path fill="#9585F3" opacity="1.000000" stroke="none" 
	d="
M812.167419,449.045502 
	C812.407654,441.545929 813.580444,440.852814 822.654053,443.493591 
	C823.555115,444.529419 824.506714,445.233063 824.432312,445.802734 
	C823.709351,451.338959 819.071167,455.742401 813.570496,456.320709 
	C813.570496,456.320709 813.236023,456.286621 813.087219,455.893921 
	C812.429810,454.971832 811.921204,454.442474 811.412598,453.913116 
	C811.385864,453.204041 811.359192,452.494934 811.666504,451.364868 
	C812.056152,450.311066 812.111816,449.678284 812.167419,449.045502 
z"/>
<path fill="#3ED5BF" opacity="1.000000" stroke="none" 
	d="
M712.862061,520.842285 
	C713.382996,518.245117 713.694641,515.583191 714.474365,513.066162 
	C715.623840,509.355652 718.048645,508.996063 720.631409,511.956696 
	C722.586304,514.197571 724.537048,516.442139 726.661865,519.346558 
	C722.613525,521.261108 718.402405,522.550964 714.139282,523.636658 
	C713.962280,523.681763 713.298889,521.817200 712.862061,520.842285 
z"/>
<path fill="#ED6387" opacity="1.000000" stroke="none" 
	d="
M385.874695,46.949577 
	C384.236694,47.749607 382.598694,48.549637 380.960693,49.349678 
	C380.409607,47.895348 379.566071,46.480064 379.365631,44.978909 
	C378.882385,41.359596 378.619232,37.704620 378.416046,34.055752 
	C378.150513,29.286963 378.753174,28.926655 383.733826,31.356571 
	C384.624664,36.984730 385.249695,41.967155 385.874695,46.949577 
z"/>
<path fill="#82DED5" opacity="1.000000" stroke="none" 
	d="
M712.539856,520.993591 
	C713.298889,521.817200 713.962280,523.681763 714.139282,523.636658 
	C718.402405,522.550964 722.613525,521.261108 726.833252,519.632812 
	C728.139221,520.979614 729.446045,522.701843 730.752869,524.424011 
	C728.954224,525.431213 727.263123,526.850098 725.333069,527.354248 
	C721.997864,528.225342 718.519470,528.563477 715.091980,529.061890 
	C710.030823,529.797913 709.616760,529.313232 710.992493,524.248413 
	C711.282227,523.181702 711.803223,522.177734 712.539856,520.993591 
z"/>
<path fill="#FF9452" opacity="1.000000" stroke="none" 
	d="
M666.239014,618.266602 
	C667.765015,613.598999 672.055542,613.965576 674.355591,615.052673 
	C676.130615,615.891602 677.259155,620.202026 676.860229,622.676392 
	C676.651367,623.972656 672.590454,625.096924 670.162720,625.377258 
	C669.114197,625.498352 667.564453,623.438232 666.684448,622.082031 
	C666.121704,621.214905 666.367798,619.822876 666.239014,618.266602 
z"/>
<path fill="#9585F3" opacity="1.000000" stroke="none" 
	d="
M404.576233,613.401794 
	C404.963928,616.323547 405.316711,618.852051 405.669464,621.380554 
	C405.265869,621.809692 404.862244,622.238770 404.458618,622.667847 
	C400.989594,621.163818 397.511230,619.680481 394.064941,618.125977 
	C393.690887,617.957275 393.225220,617.070068 393.267334,617.032104 
	C395.966003,614.598450 398.673889,612.166504 401.569031,609.983826 
	C401.716064,609.872986 403.512695,611.950134 404.576233,613.401794 
z"/>
<path fill="#ADA2F2" opacity="1.000000" stroke="none" 
	d="
M222.166199,208.310425 
	C227.766479,208.276016 233.303131,208.611847 239.227844,208.920105 
	C239.079819,214.019684 235.698334,215.795013 231.105728,215.911148 
	C226.143402,216.036606 222.947205,213.775467 222.166199,208.310425 
z"/>
<path fill="#C86AAB" opacity="1.000000" stroke="none" 
	d="
M432.656128,237.052612 
	C431.948822,240.158554 430.929565,243.426117 429.949463,246.705368 
	C426.945435,256.756073 423.956482,266.811218 420.532776,276.685760 
	C420.090820,276.048981 420.077667,275.591064 420.064514,275.133179 
	C421.819031,261.734802 426.105164,249.157562 432.656128,237.052612 
z"/>
<path fill="#ADA2F2" opacity="1.000000" stroke="none" 
	d="
M813.787476,456.631226 
	C819.071167,455.742401 823.709351,451.338959 824.432312,445.802734 
	C824.506714,445.233063 823.555115,444.529419 823.003662,443.603485 
	C826.755676,442.864319 828.396057,445.124146 827.707031,448.331207 
	C826.916016,452.012787 828.229736,457.424988 822.560364,458.259094 
	C819.832092,458.660553 816.864014,457.432129 813.787476,456.631226 
z"/>
<path fill="#BE6BB4" opacity="1.000000" stroke="none" 
	d="
M846.974121,213.379837 
	C851.693054,213.025436 856.421753,213.017136 861.624695,213.023193 
	C861.281738,214.891647 860.464600,216.745743 858.941162,218.822174 
	C855.759155,219.065811 853.283508,219.087097 850.807800,219.108398 
	C849.533142,217.314255 848.258545,215.520096 846.974121,213.379837 
z"/>
<path fill="#A86FCA" opacity="1.000000" stroke="none" 
	d="
M389.138977,33.662056 
	C389.299835,33.696514 389.481354,33.694077 389.618500,33.770893 
	C392.213959,35.224602 394.804199,36.687683 397.395508,38.148819 
	C395.186310,40.096542 392.977112,42.044258 390.242615,43.661301 
	C389.524536,40.107769 389.331757,36.884914 389.138977,33.662056 
z"/>
<path fill="#A86FCA" opacity="1.000000" stroke="none" 
	d="
M434.676880,435.799133 
	C435.943420,438.479858 436.951904,440.922028 437.985962,443.740204 
	C436.269226,441.632385 434.046265,439.353516 432.882080,436.623169 
	C430.263031,430.480682 428.168854,424.114380 425.896667,417.418243 
	C428.761200,423.185089 431.590027,429.372833 434.676880,435.799133 
z"/>
<path fill="#C86AAB" opacity="1.000000" stroke="none" 
	d="
M388.984802,33.381271 
	C389.331757,36.884914 389.524536,40.107769 389.891479,43.714149 
	C388.887299,45.019062 387.708893,45.940449 386.202637,46.905708 
	C385.249695,41.967155 384.624664,36.984730 383.970795,31.596918 
	C385.571533,31.827848 387.201080,32.464169 388.984802,33.381271 
z"/>
<path fill="#9585F3" opacity="1.000000" stroke="none" 
	d="
M850.874634,219.461426 
	C853.283508,219.087097 855.759155,219.065811 858.699280,219.061340 
	C857.985779,221.224625 856.807800,223.371109 855.629822,225.517578 
	C854.067017,223.616531 852.504211,221.715500 850.874634,219.461426 
z"/>
<path fill="#B26DBF" opacity="1.000000" stroke="none" 
	d="
M419.781860,275.368958 
	C420.077667,275.591064 420.090820,276.048981 420.190308,276.842590 
	C420.150696,278.836182 420.024719,280.494019 419.661804,282.703003 
	C419.210052,283.491333 419.108002,283.769928 419.118591,284.089874 
	C419.063477,285.773041 419.008331,287.456207 418.739868,289.645294 
	C418.089844,290.404877 417.653198,290.658539 417.216553,290.912231 
	C417.977448,285.809723 418.738342,280.707214 419.781860,275.368958 
z"/>
<path fill="#C86AAB" opacity="1.000000" stroke="none" 
	d="
M416.962158,291.262695 
	C417.653198,290.658539 418.089844,290.404877 418.709290,290.065247 
	C418.580292,294.025482 418.268555,298.071625 417.915680,302.869812 
	C417.321167,304.125671 416.767792,304.629517 416.214417,305.133362 
	C416.158081,303.510193 416.101715,301.886993 416.077087,299.879456 
	C416.108795,299.495087 416.056671,299.227753 416.355652,298.856506 
	C416.669495,296.760498 416.684387,295.035675 416.699280,293.310883 
	C416.702118,292.744965 416.704926,292.179047 416.962158,291.262695 
z"/>
<path fill="#A86FCA" opacity="1.000000" stroke="none" 
	d="
M438.320251,445.226440 
	C441.018982,447.153503 443.715240,449.417633 446.811981,452.086426 
	C447.491486,452.977570 447.770508,453.464111 447.997864,454.004395 
	C447.946198,454.058197 447.844086,454.166931 447.844086,454.166931 
	C444.668671,451.299133 441.493225,448.431335 438.320251,445.226440 
z"/>
<path fill="#A86FCA" opacity="1.000000" stroke="none" 
	d="
M461.928894,462.081116 
	C459.046265,460.944702 456.207062,459.754242 453.222565,458.241058 
	C453.077301,457.918365 453.120514,457.872162 453.488525,457.918030 
	C456.590210,459.281799 459.323853,460.599731 462.057495,461.917664 
	C462.057495,461.917694 461.972321,462.027100 461.928894,462.081116 
z"/>
<path fill="#BE6BB4" opacity="1.000000" stroke="none" 
	d="
M607.773438,245.738007 
	C605.976074,244.902710 604.014832,243.780853 602.004089,242.298859 
	C603.839600,243.109619 605.724609,244.280548 607.773438,245.738007 
z"/>
<path fill="#C86AAB" opacity="1.000000" stroke="none" 
	d="
M552.967041,214.610901 
	C550.845093,214.121384 548.599670,213.302246 546.155884,212.186752 
	C548.252869,212.687363 550.548279,213.484329 552.967041,214.610901 
z"/>
<path fill="#F97F94" opacity="1.000000" stroke="none" 
	d="
M560.155518,595.703857 
	C559.756775,594.174561 559.562256,592.361877 559.620239,590.293030 
	C560.035034,591.831360 560.197388,593.625916 560.155518,595.703857 
z"/>
<path fill="#ADA2F2" opacity="1.000000" stroke="none" 
	d="
M529.670959,56.084373 
	C529.282776,57.628838 528.567688,59.260517 527.522095,60.971397 
	C527.909180,59.424263 528.626587,57.797928 529.670959,56.084373 
z"/>
<path fill="#A86FCA" opacity="1.000000" stroke="none" 
	d="
M453.055847,457.941589 
	C451.727356,457.214722 450.420288,456.464600 449.057159,455.353210 
	C449.001129,454.991943 449.063049,454.913788 449.417664,454.944092 
	C450.888367,455.940338 452.004456,456.906250 453.120514,457.872131 
	C453.120514,457.872162 453.077301,457.918365 453.055847,457.941589 
z"/>
<path fill="#BE6BB4" opacity="1.000000" stroke="none" 
	d="
M611.845093,248.699783 
	C610.682007,248.244827 609.377197,247.500580 608.027832,246.404663 
	C609.223328,246.838821 610.463379,247.624649 611.845093,248.699783 
z"/>
<path fill="#BE6BB4" opacity="1.000000" stroke="none" 
	d="
M614.420044,252.991364 
	C613.684509,252.198151 613.369019,251.402405 613.043884,250.283264 
	C614.101257,250.729721 615.168213,251.499557 616.380066,252.593079 
	C615.963318,252.940781 615.401733,252.964798 614.420044,252.991364 
z"/>
<path fill="#B26DBF" opacity="1.000000" stroke="none" 
	d="
M416.516968,293.675720 
	C416.684387,295.035675 416.669495,296.760498 416.437439,298.747620 
	C416.258362,297.353455 416.296509,295.696991 416.516968,293.675720 
z"/>
<path fill="#82DED5" opacity="1.000000" stroke="none" 
	d="
M242.112091,304.570251 
	C241.562866,304.605865 240.913132,304.404297 240.126068,303.868652 
	C240.663010,303.800720 241.337296,304.066895 242.112091,304.570251 
z"/>
<path fill="#ADA2F2" opacity="1.000000" stroke="none" 
	d="
M227.798950,198.416321 
	C227.541443,198.972473 226.985275,199.447388 226.122864,199.903961 
	C226.377869,199.368790 226.939087,198.851944 227.798950,198.416321 
z"/>
<path fill="#ADA2F2" opacity="1.000000" stroke="none" 
	d="
M236.025314,199.629761 
	C235.449829,199.623154 234.773560,199.322327 234.000900,198.747253 
	C234.577850,198.760529 235.251190,199.048035 236.025314,199.629761 
z"/>
<path fill="#ADA2F2" opacity="1.000000" stroke="none" 
	d="
M811.325928,454.224182 
	C811.921204,454.442474 812.429810,454.971832 812.943481,455.806763 
	C812.378784,455.586670 811.809021,455.060974 811.325928,454.224182 
z"/>
<path fill="#ADA2F2" opacity="1.000000" stroke="none" 
	d="
M811.898804,449.202271 
	C812.111816,449.678284 812.056152,450.311066 811.771851,451.022461 
	C811.572205,450.520416 811.601196,449.939758 811.898804,449.202271 
z"/>
<path fill="#ADA2F2" opacity="1.000000" stroke="none" 
	d="
M223.563293,201.887466 
	C223.562408,202.475281 223.277496,203.188232 222.701202,203.995270 
	C222.699646,203.397125 222.989456,202.704865 223.563293,201.887466 
z"/>
<path fill="#A86FCA" opacity="1.000000" stroke="none" 
	d="
M448.968384,455.029541 
	C448.583618,455.035706 448.296021,454.882996 447.958496,454.387939 
	C447.844086,454.166931 447.946198,454.058197 448.208984,454.116333 
	C448.736389,454.366943 448.933472,454.613373 449.063049,454.913788 
	C449.063049,454.913788 449.001129,454.991943 448.968384,455.029541 
z"/>
<path fill="#BE6BB4" opacity="1.000000" stroke="none" 
	d="
M612.957886,249.732330 
	C612.699463,249.905670 612.427368,249.732407 612.118042,249.232407 
	C612.302795,249.169006 612.590576,249.329025 612.957886,249.732330 
z"/>
<path fill="#9C6FD4" opacity="1.000000" stroke="none" 
	d="
M640.746460,276.245422 
	C642.835815,277.938477 644.673279,279.379700 646.652649,280.932251 
	C640.238220,291.867371 634.335510,301.826080 628.536133,311.844666 
	C622.058533,323.034973 615.706238,334.297729 609.242249,345.495972 
	C600.970032,359.826691 592.599548,374.100830 584.348450,388.443634 
	C577.242310,400.796234 570.226135,413.200775 563.205566,425.602417 
	C559.528076,432.098724 555.800964,438.572937 552.365723,445.196869 
	C551.296448,447.258698 551.138000,449.786224 550.505981,452.084991 
	C550.269470,452.945374 550.057739,454.337708 549.519775,454.511322 
	C541.499207,457.099243 533.447876,459.601410 525.340332,461.900146 
	C524.155090,462.236237 522.642822,461.418884 520.440857,460.959900 
	C522.901489,456.480286 524.897217,452.708862 527.018188,449.009186 
	C537.249023,431.162994 547.468445,413.309967 557.776123,395.508087 
	C576.053589,363.941864 594.407959,332.420166 612.694580,300.859253 
	C617.835693,291.986145 622.814880,283.019287 627.941528,274.137665 
	C631.080017,268.700378 632.882202,268.490082 637.311035,272.814240 
	C638.384033,273.861908 639.434021,274.933167 640.746460,276.245422 
z"/>
<path fill="#9171DE" opacity="1.000000" stroke="none" 
	d="
M584.021179,438.054993 
	C574.738098,442.886139 565.455078,447.717255 556.172058,452.548401 
	C555.752747,452.141296 555.333496,451.734161 554.914246,451.327057 
	C555.290161,449.692993 555.308472,447.857117 556.098633,446.456818 
	C562.359192,435.362061 568.823181,424.382263 575.113953,413.304291 
	C582.022400,401.138550 588.698853,388.840027 595.688843,376.721924 
	C601.900879,365.952667 608.531982,355.425018 614.738892,344.652924 
	C620.016174,335.494293 624.879395,326.098175 630.059631,316.882355 
	C635.391052,307.397858 640.796997,297.952423 646.360229,288.602905 
	C648.025024,285.805176 650.467224,286.676331 652.130249,288.728119 
	C655.460266,292.836609 658.534790,297.152222 661.492676,301.731445 
	C660.267212,302.897308 658.953491,303.521851 658.309692,304.561371 
	C653.352966,312.563812 648.410522,320.579590 643.684753,328.719604 
	C635.620911,342.609497 627.748108,356.610077 619.741028,370.533112 
	C607.852600,391.205261 595.870422,411.823853 584.105835,432.566071 
	C583.313782,433.962494 584.014648,436.205658 584.021179,438.054993 
z"/>
<path fill="#8771E8" opacity="1.000000" stroke="none" 
	d="
M584.339478,437.899414 
	C584.014648,436.205658 583.313782,433.962494 584.105835,432.566071 
	C595.870422,411.823853 607.852600,391.205261 619.741028,370.533112 
	C627.748108,356.610077 635.620911,342.609497 643.684753,328.719604 
	C648.410522,320.579590 653.352966,312.563812 658.309692,304.561371 
	C658.953491,303.521851 660.267212,302.897308 661.617188,302.048950 
	C665.240112,308.452118 668.516296,314.886841 671.465088,321.675171 
	C670.438049,322.379669 669.430664,322.542755 669.084900,323.109558 
	C663.625000,332.058044 658.142700,340.996338 652.897522,350.071075 
	C649.940491,355.187012 647.592163,360.654480 644.641846,365.774689 
	C638.873474,375.785583 632.919739,385.690857 626.954834,395.586853 
	C623.579041,401.187531 620.253479,406.843109 616.465088,412.160370 
	C614.472900,414.956573 614.672180,415.860870 618.025513,416.012207 
	C606.902893,423.256104 595.780273,430.499969 584.339478,437.899414 
z"/>
<path fill="#BE6BB4" opacity="1.000000" stroke="none" 
	d="
M449.417664,454.944092 
	C448.933472,454.613373 448.736389,454.366943 448.260681,454.062561 
	C447.770508,453.464111 447.491486,452.977570 447.110535,452.228790 
	C454.306915,449.340729 455.753387,442.044159 459.181335,436.425598 
	C464.672089,427.425903 469.728302,418.161530 474.995148,409.024567 
	C479.766205,400.747772 484.548218,392.477112 489.371002,384.230408 
	C494.864014,374.837646 500.407532,365.474426 506.530121,356.111206 
	C510.855804,360.872528 514.305481,366.177979 521.770020,363.351257 
	C521.262268,365.391388 521.165405,367.659180 520.181091,369.435181 
	C513.042297,382.315430 505.738251,395.104218 498.459900,407.906860 
	C489.153534,424.276794 479.836487,440.640717 470.478699,456.981262 
	C469.581360,458.548187 468.362976,459.931305 467.145599,461.706787 
	C465.624542,461.996857 464.251495,461.979858 462.467957,461.940247 
	C459.323853,460.599731 456.590210,459.281799 453.488525,457.917999 
	C452.004456,456.906250 450.888367,455.940338 449.417664,454.944092 
z"/>
<path fill="#8072F0" opacity="1.000000" stroke="none" 
	d="
M618.320435,415.856354 
	C614.672180,415.860870 614.472900,414.956573 616.465088,412.160370 
	C620.253479,406.843109 623.579041,401.187531 626.954834,395.586853 
	C632.919739,385.690857 638.873474,375.785583 644.641846,365.774689 
	C647.592163,360.654480 649.940491,355.187012 652.897522,350.071075 
	C658.142700,340.996338 663.625000,332.058044 669.084900,323.109558 
	C669.430664,322.542755 670.438049,322.379669 671.485596,322.032898 
	C674.794617,334.106873 673.080811,345.847626 668.298096,356.994110 
	C659.442078,377.633728 644.842163,393.868347 627.664795,407.971893 
	C624.599548,410.488647 621.629456,413.121338 618.320435,415.856354 
z"/>
<path fill="#FFFFFF" opacity="1.000000" stroke="none" 
	d="
M521.944702,363.104309 
	C514.305481,366.177979 510.855804,360.872528 506.870087,355.949310 
	C502.452789,350.574463 498.296539,345.374420 493.916077,339.967285 
	C489.708221,333.885742 490.795013,330.877380 497.511902,330.299194 
	C501.404968,334.455658 504.912415,338.566528 508.712646,342.838348 
	C511.789948,346.421356 514.574402,349.843384 517.793579,353.799744 
	C528.378113,343.907410 538.583069,334.369843 548.937012,324.543579 
	C552.593262,321.210266 556.224670,318.294708 559.568237,315.079681 
	C562.184570,312.563904 565.016113,310.313263 568.096130,313.425659 
	C571.652283,317.019135 568.393860,319.718140 565.806152,322.134247 
	C551.255005,335.720459 536.683777,349.285248 521.944702,363.104309 
z"/>
<path fill="#DE6595" opacity="1.000000" stroke="none" 
	d="
M423.355103,401.964630 
	C421.100189,390.584015 419.192352,379.175812 417.125183,367.390991 
	C424.733582,353.791962 432.467468,340.549500 440.278961,327.352966 
	C447.420715,315.287842 454.705017,303.306854 461.809570,291.220062 
	C465.146301,285.543427 468.101471,279.643066 471.417297,273.953552 
	C477.916779,262.801483 484.706879,251.816360 491.075928,240.591476 
	C496.523926,230.989792 501.552765,221.150253 506.762207,211.413345 
	C507.154663,210.679871 507.467896,209.902008 507.886932,209.185089 
	C511.307220,203.333298 512.973999,202.627304 519.364197,204.250229 
	C523.211365,205.227295 527.073364,206.147781 530.910034,207.163925 
	C534.801086,208.194443 536.168640,210.684753 534.284790,214.288925 
	C531.904236,218.843338 529.214050,223.237152 526.622009,227.679565 
	C516.377869,245.236786 506.021851,262.729675 495.898071,280.355927 
	C487.828949,294.404877 480.077148,308.635712 472.109222,322.743256 
	C465.520935,334.408173 458.818268,346.008423 452.174225,357.641907 
	C445.454010,369.408691 438.920685,381.287994 431.919708,392.885101 
	C429.853119,396.308441 426.477753,398.941711 423.355103,401.964630 
z"/>
<path fill="#ED6387" opacity="1.000000" stroke="none" 
	d="
M416.177551,305.586975 
	C416.767792,304.629517 417.321167,304.125671 417.912964,303.321045 
	C419.387909,302.156616 421.420166,301.644318 422.168701,300.374969 
	C429.586914,287.794861 436.785065,275.085205 444.061249,262.421234 
	C448.807648,254.160294 453.562592,245.904160 458.347473,237.665497 
	C461.081482,232.958069 463.966309,228.336655 466.631714,223.591415 
	C469.484222,218.513123 472.269867,213.389313 474.832092,208.161545 
	C475.466461,206.867203 475.123871,205.094040 475.083252,203.194077 
	C477.009796,202.228424 479.083466,201.609665 481.951965,200.990692 
	C483.493652,200.988251 484.240570,200.986023 485.391418,200.989136 
	C486.873749,200.981415 487.952118,200.968384 489.030457,200.955338 
	C493.020447,200.982986 497.029968,200.771515 500.995850,201.094818 
	C506.812347,201.568985 508.239044,204.349716 505.290466,209.422882 
	C495.999603,225.408295 486.527069,241.288315 477.271667,257.294037 
	C473.329254,264.111877 469.935120,271.247589 465.970459,278.051605 
	C456.246216,294.740051 446.279083,311.286835 436.524139,327.957581 
	C431.939270,335.792877 427.786530,343.884613 423.080048,351.643005 
	C421.575714,354.122742 418.920807,355.904541 416.427155,357.971558 
	C416.026886,354.929718 415.991882,351.922089 415.971802,347.993713 
	C415.965210,338.378510 415.943695,329.684021 415.922180,320.989563 
	C415.994995,316.006561 416.067841,311.023560 416.177551,305.586975 
z"/>
<path fill="#DE6595" opacity="1.000000" stroke="none" 
	d="
M488.787170,200.696838 
	C487.952118,200.968384 486.873749,200.981415 485.399536,200.766693 
	C485.003662,200.538925 485.023041,200.093781 485.023041,200.093781 
	C486.196655,200.208618 487.370270,200.323471 488.787170,200.696838 
z"/>
<path fill="#D168A1" opacity="1.000000" stroke="none" 
	d="
M484.685394,200.065247 
	C485.023041,200.093781 485.003662,200.538925 484.995544,200.761368 
	C484.240570,200.986023 483.493652,200.988251 482.373413,200.980225 
	C482.782623,200.658890 483.565186,200.347794 484.685394,200.065247 
z"/>
<path fill="#C86AAB" opacity="1.000000" stroke="none" 
	d="
M419.295105,283.947144 
	C419.108002,283.769928 419.210052,283.491333 419.602478,283.117310 
	C419.807861,283.304047 419.705017,283.578674 419.295105,283.947144 
z"/>
<path fill="#ADA2F2" opacity="1.000000" stroke="none" 
	d="
M553.466309,74.442551 
	C553.524719,74.406425 553.407837,74.478683 553.466309,74.442551 
z"/>
<path fill="#C86AAB" opacity="1.000000" stroke="none" 
	d="
M415.654175,321.262573 
	C415.943695,329.684021 415.965210,338.378510 415.956299,347.541321 
	C413.001190,339.240906 413.284027,330.406799 415.654175,321.262573 
z"/>
</svg>