<svg width="30" height="30" viewBox="0 0 30 30" fill="none" xmlns="http://www.w3.org/2000/svg">
<path d="M15 3C15.4142 3 15.75 3.33579 15.75 3.75V26.25C15.75 26.6642 15.4142 27 15 27C14.5858 27 14.25 26.6642 14.25 26.25V3.75C14.25 3.33579 14.5858 3 15 3Z" fill="#1E02AA"/>
<circle cx="15" cy="6" r="2.5" fill="#FF4747"/>
<circle cx="15" cy="12" r="2.5" fill="#00C851"/>
<circle cx="15" cy="18" r="2.5" fill="#FF8800"/>
<circle cx="15" cy="24" r="2.5" fill="#9C27B0"/>
<path d="M18.5 6H25C25.4142 6 25.75 6.33579 25.75 6.75C25.75 7.16421 25.4142 7.5 25 7.5H18.5C18.0858 7.5 17.75 7.16421 17.75 6.75C17.75 6.33579 18.0858 6 18.5 6Z" fill="#FF4747"/>
<path d="M18.5 12H25C25.4142 12 25.75 12.3358 25.75 12.75C25.75 13.1642 25.4142 13.5 25 13.5H18.5C18.0858 13.5 17.75 13.1642 17.75 12.75C17.75 12.3358 18.0858 12 18.5 12Z" fill="#00C851"/>
<path d="M18.5 18H25C25.4142 18 25.75 18.3358 25.75 18.75C25.75 19.1642 25.4142 19.5 25 19.5H18.5C18.0858 19.5 17.75 19.1642 17.75 18.75C17.75 18.3358 18.0858 18 18.5 18Z" fill="#FF8800"/>
<path d="M18.5 24H25C25.4142 24 25.75 24.3358 25.75 24.75C25.75 25.1642 25.4142 25.5 25 25.5H18.5C18.0858 25.5 17.75 25.1642 17.75 24.75C17.75 24.3358 18.0858 24 18.5 24Z" fill="#9C27B0"/>
</svg> 