<svg width="21" height="21" viewBox="0 0 21 21" fill="none" xmlns="http://www.w3.org/2000/svg">
<path d="M4.72656 6.8479C4.72656 6.58491 4.94437 6.37171 5.21305 6.37171H8.40515C8.40948 5.8109 8.47026 5.04206 9.02681 4.50982C9.46481 4.09095 10.0653 3.83203 10.7266 3.83203C11.3878 3.83203 11.9883 4.09095 12.4263 4.50982C12.9829 5.04206 13.0436 5.8109 13.048 6.37171H16.2401C16.5088 6.37171 16.7266 6.58491 16.7266 6.8479C16.7266 7.1109 16.5088 7.32409 16.2401 7.32409H5.21305C4.94437 7.32409 4.72656 7.1109 4.72656 6.8479Z" fill="#FF4747"/>
<path fill-rule="evenodd" clip-rule="evenodd" d="M10.457 17.1654H10.9962C12.8513 17.1654 13.7789 17.1654 14.382 16.5747C14.9851 15.9841 15.0468 15.0153 15.1702 13.0777L15.348 10.2858C15.4149 9.23444 15.4484 8.70877 15.1459 8.37567C14.8433 8.04256 14.3324 8.04256 13.3105 8.04256H8.14259C7.12074 8.04256 6.60982 8.04256 6.30726 8.37567C6.00471 8.70877 6.03819 9.23444 6.10515 10.2858L6.28296 13.0777C6.40636 15.0153 6.46806 15.9841 7.07116 16.5747C7.67425 17.1654 8.60182 17.1654 10.457 17.1654ZM9.55741 10.6243C9.52994 10.3351 9.28492 10.1241 9.01014 10.153C8.73537 10.1819 8.5349 10.4399 8.56238 10.7291L8.89571 14.2379C8.92319 14.5271 9.16821 14.7381 9.44298 14.7092C9.71775 14.6803 9.91822 14.4224 9.89075 14.1331L9.55741 10.6243ZM12.443 10.153C12.7178 10.1819 12.9182 10.4399 12.8907 10.7291L12.5574 14.2379C12.5299 14.5271 12.2849 14.7381 12.0101 14.7092C11.7354 14.6803 11.5349 14.4224 11.5624 14.1331L11.8957 10.6243C11.9232 10.3351 12.1682 10.1241 12.443 10.153Z" fill="#FF4747"/>
</svg>
