<svg width="18" height="18" viewBox="0 0 18 18" fill="none" xmlns="http://www.w3.org/2000/svg">
<path d="M0.800087 1.74747C-0.266696 2.81425 -0.266696 4.54384 0.800087 5.61063L2.30428 7.11482C2.31557 7.10176 2.32742 7.08901 2.33982 7.07661L6.12933 3.28709C6.1417 3.27473 6.15441 3.26291 6.16743 3.25165L4.66325 1.74747C3.59647 0.680683 1.86687 0.680683 0.800087 1.74747Z" fill="#0FE8E8"/>
<path d="M7.16963 4.25384C7.15836 4.26686 7.14655 4.27957 7.13418 4.29194L3.34467 8.08145C3.33226 8.09385 3.31952 8.1057 3.30646 8.117L12.3896 17.2001C13.4564 18.2669 15.1859 18.2669 16.2527 17.2001C17.3195 16.1333 17.3195 14.4037 16.2527 13.3369L7.16963 4.25384Z" fill="#0FE8E8"/>
<path d="M12.4107 0.291024C12.5632 -0.0970079 13.1103 -0.0970083 13.2628 0.291024L13.6705 1.32867C13.7171 1.44714 13.8105 1.54092 13.9285 1.58764L14.9624 1.99689C15.349 2.14992 15.349 2.69909 14.9624 2.85212L13.9285 3.26137C13.8105 3.30809 13.7171 3.40187 13.6705 3.52034L13.2628 4.55799C13.1103 4.94602 12.5632 4.94602 12.4107 4.55799L12.003 3.52034C11.9564 3.40187 11.863 3.30809 11.7449 3.26137L10.7111 2.85212C10.3245 2.69909 10.3245 2.14992 10.7111 1.99689L11.7449 1.58764C11.863 1.54092 11.9564 1.44714 12.003 1.32867L12.4107 0.291024Z" fill="#0FE8E8"/>
<path d="M16.0743 6.75429C16.2268 6.36626 16.774 6.36626 16.9264 6.75429L17.0751 7.13263C17.1216 7.2511 17.2151 7.34487 17.3331 7.39159L17.71 7.54081C18.0967 7.69385 18.0967 8.24301 17.71 8.39604L17.3331 8.54526C17.2151 8.59198 17.1216 8.68576 17.0751 8.80422L16.9264 9.18256C16.774 9.57059 16.2268 9.57059 16.0743 9.18256L15.9257 8.80422C15.8791 8.68576 15.7857 8.59198 15.6677 8.54526L15.2907 8.39604C14.9041 8.24301 14.9041 7.69385 15.2907 7.54081L15.6677 7.39159C15.7857 7.34487 15.8791 7.2511 15.9257 7.13263L16.0743 6.75429Z" fill="#0FE8E8"/>
<path d="M2.02095 12.6069C2.17342 12.2189 2.72056 12.2189 2.87303 12.6069L3.02169 12.9853C3.06825 13.1037 3.16168 13.1975 3.27971 13.2442L3.65665 13.3935C4.04325 13.5465 4.04325 14.0957 3.65665 14.2487L3.27971 14.3979C3.16168 14.4446 3.06825 14.5384 3.02169 14.6569L2.87303 15.0352C2.72056 15.4232 2.17342 15.4232 2.02095 15.0352L1.87228 14.6569C1.82573 14.5384 1.7323 14.4446 1.61427 14.3979L1.23733 14.2487C0.850728 14.0957 0.850728 13.5465 1.23733 13.3935L1.61427 13.2442C1.7323 13.1975 1.82573 13.1037 1.87228 12.9853L2.02095 12.6069Z" fill="#0FE8E8"/>
</svg>
