<svg width="16" height="20" viewBox="0 0 16 20" fill="none" xmlns="http://www.w3.org/2000/svg">
<path fill-rule="evenodd" clip-rule="evenodd" d="M0.5 3.29547V16.4205C0.5 17.9738 1.7592 19.233 3.3125 19.233H12.6875C14.2408 19.233 15.5 17.9738 15.5 16.4205V7.04547C15.5 5.49217 14.2408 4.23297 12.6875 4.23297H1.4375C0.919733 4.23297 0.5 3.81324 0.5 3.29547ZM3.54688 9.85797C3.54688 9.46965 3.86167 9.15485 4.25 9.15485H11.75C12.1383 9.15485 12.4531 9.46965 12.4531 9.85797C12.4531 10.2463 12.1383 10.5611 11.75 10.5611H4.25C3.86167 10.5611 3.54688 10.2463 3.54688 9.85797ZM3.54688 13.1392C3.54688 12.7509 3.86167 12.4361 4.25 12.4361H9.40625C9.79457 12.4361 10.1094 12.7509 10.1094 13.1392C10.1094 13.5275 9.79457 13.8423 9.40625 13.8423H4.25C3.86167 13.8423 3.54688 13.5275 3.54688 13.1392Z" fill="#0FE8E8"/>
<path d="M0.883236 2.43963C1.20994 2.58614 1.4375 2.91423 1.4375 3.29547H12.6875C13.0112 3.29547 13.3254 3.33649 13.625 3.41361V2.64488C13.625 1.50385 12.6144 0.627362 11.4848 0.788728L1.36212 2.23483C1.18168 2.26061 1.01816 2.33335 0.883236 2.43963Z" fill="#0FE8E8"/>
</svg>
