<svg width="25" height="24" viewBox="0 0 25 24" fill="none" xmlns="http://www.w3.org/2000/svg">
<path d="M4.5 7.36842C4.5 5.78053 4.5 4.98659 5.02721 4.49329C5.55442 4 6.40294 4 8.1 4C9.79706 4 10.6456 4 11.1728 4.49329C11.7 4.98659 11.7 5.78053 11.7 7.36842V16.6316C11.7 18.2195 11.7 19.0134 11.1728 19.5067C10.6456 20 9.79706 20 8.1 20C6.40294 20 5.55442 20 5.02721 19.5067C4.5 19.0134 4.5 18.2195 4.5 16.6316V7.36842Z" fill="#0FE8E8"/>
<path d="M13.2969 14.7192C13.2969 13.0599 13.2969 12.2302 13.8241 11.7147C14.3513 11.1992 15.1998 11.1992 16.8969 11.1992C18.5939 11.1992 19.4425 11.1992 19.9697 11.7147C20.4969 12.2302 20.4969 13.0599 20.4969 14.7192V16.4792C20.4969 18.1386 20.4969 18.9682 19.9697 19.4837C19.4425 19.9992 18.5939 19.9992 16.8969 19.9992C15.1998 19.9992 14.3513 19.9992 13.8241 19.4837C13.2969 18.9682 13.2969 18.1386 13.2969 16.4792V14.7192Z" fill="#0FE8E8"/>
<path d="M13.2969 6.8C13.2969 5.93024 13.2969 5.49536 13.4339 5.15232C13.6166 4.69494 13.967 4.33155 14.408 4.14209C14.7388 4 15.1582 4 15.9969 4H17.7969C18.6356 4 19.0549 4 19.3857 4.14209C19.8268 4.33155 20.1772 4.69494 20.3599 5.15232C20.4969 5.49536 20.4969 5.93024 20.4969 6.8C20.4969 7.66976 20.4969 8.10464 20.3599 8.44768C20.1772 8.90506 19.8268 9.26845 19.3857 9.45791C19.0549 9.6 18.6356 9.6 17.7969 9.6H15.9969C15.1582 9.6 14.7388 9.6 14.408 9.45791C13.967 9.26845 13.6166 8.90506 13.4339 8.44768C13.2969 8.10464 13.2969 7.66976 13.2969 6.8Z" fill="#0FE8E8"/>
</svg>
