<svg width="28" height="29" viewBox="0 0 28 29" fill="none" xmlns="http://www.w3.org/2000/svg">
<path d="M7.4443 12.4194C5.59081 11.678 4.66406 11.3073 4.66406 10.8466C4.66406 10.386 5.59081 10.0153 7.4443 9.27387L10.0655 8.22538C11.919 7.48398 12.8458 7.11328 13.9974 7.11328C15.149 7.11328 16.0758 7.48398 17.9292 8.22538L20.5505 9.27387C22.404 10.0153 23.3307 10.386 23.3307 10.8466C23.3307 11.3073 22.404 11.678 20.5505 12.4194L17.9292 13.4679C16.0758 14.2092 15.149 14.5799 13.9974 14.5799C12.8458 14.5799 11.919 14.2092 10.0655 13.4679L7.4443 12.4194Z" fill="#7E8799"/>
<path fill-rule="evenodd" clip-rule="evenodd" d="M4.66406 10.8466C4.66406 11.3073 5.59081 11.678 7.4443 12.4194L10.0655 13.4679C11.919 14.2092 12.8458 14.5799 13.9974 14.5799C15.149 14.5799 16.0758 14.2092 17.9292 13.4679L20.5505 12.4194C22.404 11.678 23.3307 11.3073 23.3307 10.8466C23.3307 10.386 22.404 10.0153 20.5505 9.27387L17.9292 8.22538C16.0758 7.48398 15.149 7.11328 13.9974 7.11328C12.8458 7.11328 11.919 7.48398 10.0655 8.22538L7.4443 9.27387C5.59081 10.0153 4.66406 10.386 4.66406 10.8466Z" fill="#7E8799"/>
<path opacity="0.7" d="M8.17912 12.7109L7.4443 13.0049C5.59081 13.7463 4.66406 14.117 4.66406 14.5776C4.66406 15.0382 5.59081 15.4089 7.4443 16.1503L10.0655 17.1988C11.919 17.9402 12.8458 18.3109 13.9974 18.3109C15.149 18.3109 16.0758 17.9402 17.9292 17.1988L20.5505 16.1503C22.404 15.4089 23.3307 15.0382 23.3307 14.5776C23.3307 14.117 22.404 13.7463 20.5505 13.0049L19.8157 12.7109L17.9292 13.4655C16.0758 14.2069 15.149 14.5776 13.9974 14.5776C12.8458 14.5776 11.919 14.2069 10.0655 13.4655L8.17912 12.7109Z" fill="#7E8799"/>
<path opacity="0.4" d="M8.17911 16.4453L7.4443 16.7392C5.59081 17.4806 4.66406 17.8513 4.66406 18.312C4.66406 18.7726 5.59081 19.1433 7.4443 19.8847L10.0655 20.9332C11.919 21.6746 12.8458 22.0453 13.9974 22.0453C15.149 22.0453 16.0758 21.6746 17.9292 20.9332L20.5505 19.8847C22.404 19.1433 23.3307 18.7726 23.3307 18.312C23.3307 17.8513 22.404 17.4806 20.5505 16.7392L19.8157 16.4453L17.9292 17.1999C16.0758 17.9413 15.149 18.312 13.9974 18.312C12.8458 18.312 11.919 17.9413 10.0655 17.1999L8.17911 16.4453Z" fill="#7E8799"/>
</svg>
