<svg width="29" height="29" viewBox="0 0 29 29" fill="none" xmlns="http://www.w3.org/2000/svg">
<g clip-path="url(#clip0_406_746)">
<path d="M16.5137 12.952C17.2017 13.2769 17.9695 13.4595 18.7796 13.4595C21.7154 13.4595 24.1038 11.0711 24.1038 8.13528C24.1038 5.19943 21.7154 2.81104 18.7796 2.81104C17.9695 2.81104 17.2017 2.99363 16.5137 3.3186C17.034 3.9889 17.4485 4.74516 17.7319 5.56216C18.0118 6.3689 18.1644 7.23453 18.1644 8.13528C18.1644 9.03603 18.0118 9.90165 17.7319 10.7084C17.4485 11.5254 17.034 12.2817 16.5137 12.952Z" fill="#FF7A00"/>
<path d="M17.8389 16.0506C18.8153 16.8108 19.6742 17.7147 20.3843 18.7304C21.5493 20.3969 22.3129 22.3636 22.5324 24.4897C22.5756 24.9082 22.5979 25.3327 22.5979 25.7625C22.5979 26.2086 22.5203 26.6368 22.379 27.0352H27.2647C27.9676 27.0352 28.5374 26.4653 28.5374 25.7625C28.5374 20.3821 24.1602 16.0049 18.7798 16.0049C18.4648 16.0049 18.1508 16.0204 17.8389 16.0506Z" fill="#FF7A00"/>
<path d="M10.2949 13.4595C12.0249 13.4595 13.5642 12.6297 14.5374 11.3477C15.2156 10.4541 15.6192 9.34114 15.6192 8.13528C15.6192 6.92941 15.2156 5.81645 14.5374 4.92283C13.5642 3.64085 12.0249 2.81104 10.2949 2.81104C7.3591 2.81104 4.9707 5.19943 4.9707 8.13528C4.9707 11.0711 7.3591 13.4595 10.2949 13.4595Z" fill="#FF7A00"/>
<path d="M1.80984 27.0352H18.7795C19.4824 27.0352 20.0523 26.4653 20.0523 25.7625C20.0523 25.3312 20.0238 24.9064 19.9692 24.4897C19.6765 22.252 18.6224 20.2507 17.0765 18.7542C16.3331 18.0346 15.4762 17.4315 14.5352 16.9755C13.2522 16.3539 11.8135 16.0049 10.2947 16.0049C4.91436 16.0049 0.537109 20.3821 0.537109 25.7625C0.537109 26.4653 1.10695 27.0352 1.80984 27.0352Z" fill="#FF7A00"/>
</g>
<defs>
<clipPath id="clip0_406_746">
<rect width="28" height="28" fill="white" transform="translate(0.537109 0.923096)"/>
</clipPath>
</defs>
</svg>
