<svg width="28" height="29" viewBox="0 0 28 29" fill="none" xmlns="http://www.w3.org/2000/svg">
<g clip-path="url(#clip0_74_6658)">
<g clip-path="url(#clip1_74_6658)">
<path fill-rule="evenodd" clip-rule="evenodd" d="M22.5707 24.5553V19.0931C22.8496 18.8306 23.112 18.5518 23.3745 18.2565C25.3757 15.9273 26.4747 12.9419 26.1466 9.82534C25.9826 8.26705 25.4741 6.77438 24.6867 5.44573C23.8994 4.11708 22.8332 2.93606 21.5538 2.03389C17.4366 -0.902251 11.7119 -0.623399 7.87362 2.608C6.21691 4.01866 4.97028 5.90501 4.36336 8.05381C4.36336 8.07022 4.34696 8.10302 4.34696 8.11943C4.21574 8.59511 4.11732 9.0708 4.05171 9.56289C3.98609 10.055 3.95329 10.5471 3.95329 11.0556C3.95329 11.5641 3.98609 12.0562 4.05171 12.5647C4.11732 13.0075 4.19933 13.4504 4.31416 13.8769L1.90291 17.6332C1.82089 17.748 1.78809 17.8792 1.78809 17.9941C1.78809 18.3385 2.03413 18.601 2.29658 18.7814C2.52622 18.929 2.82148 19.0275 3.06752 19.0275H4.34696V21.8816C4.34696 23.5383 5.69201 24.8833 7.34872 24.8833H10.0552V26.7697C10.0552 27.4422 10.6129 27.9999 11.2854 27.9999H20.4548C21.6194 27.9999 22.5707 27.0485 22.5707 25.8675V24.5553ZM17.7483 14.0737C18.3716 14.2542 19.2737 14.5166 19.6838 13.8605C19.7822 13.7129 19.8806 13.4996 19.9791 13.3356C20.4219 12.6795 19.6674 11.9249 19.2245 11.5149L19.1753 11.4492C19.2081 11.2524 19.2245 11.0392 19.2245 10.8259C19.2245 10.6127 19.2081 10.3994 19.1753 10.1862L19.2245 10.137C19.7002 9.67771 20.3891 9.02159 19.9955 8.31626L19.7166 7.84057C19.3393 7.10244 18.2896 7.41409 17.6662 7.59453C17.3382 7.33208 16.9773 7.11884 16.5836 6.97121C16.4196 6.33149 16.2064 5.3145 15.3698 5.3145H14.7957C13.9591 5.3145 13.7459 6.33149 13.5819 6.97121C13.1882 7.11884 12.8109 7.33208 12.4829 7.59453C11.8596 7.41409 10.8754 7.10244 10.4653 7.82417C10.3177 8.07022 10.0716 8.41468 10.0552 8.70994C10.0224 9.26764 10.5473 9.75973 10.941 10.137L10.9902 10.1862C10.9246 10.6127 10.9246 11.0392 10.9902 11.4492L10.941 11.5149C10.4653 11.9577 9.79277 12.6139 10.1536 13.3028C10.2357 13.4668 10.3669 13.6637 10.4653 13.8277C10.859 14.5166 11.7775 14.2542 12.4173 14.0737L12.4829 14.0409C12.8109 14.3198 13.1882 14.533 13.5819 14.6806L13.5983 14.7627C13.7623 15.4024 13.992 16.3209 14.7957 16.3209C14.9925 16.3209 15.2222 16.3374 15.419 16.3209C16.1736 16.2881 16.4032 15.386 16.5508 14.7627L16.5836 14.6806C16.9773 14.533 17.3382 14.3198 17.6662 14.0409L17.7483 14.0737ZM17.8139 10.8259C17.8139 11.5805 17.5186 12.2694 17.0101 12.7615C16.518 13.2536 15.8291 13.5652 15.0746 13.5652C14.32 13.5652 13.6475 13.2536 13.139 12.7615C12.6469 12.2694 12.3516 11.5805 12.3516 10.8259C12.3516 10.0714 12.6469 9.38246 13.139 8.89037C13.6475 8.39828 14.32 8.08662 15.0746 8.08662C15.8291 8.08662 16.518 8.39828 17.0101 8.89037C17.5186 9.38246 17.8139 10.0714 17.8139 10.8259ZM20.3563 16.0913C19.0113 17.4528 17.1413 18.2893 15.0746 18.2893C13.0242 18.2893 11.1542 17.4528 9.80918 16.0913C8.46413 14.7463 7.62757 12.8763 7.62757 10.8259C7.62757 8.75914 8.46413 6.9056 9.80918 5.54415C11.1542 4.1991 13.0242 3.36254 15.0746 3.36254C17.1413 3.36254 19.0113 4.1991 20.3563 5.54415C21.7014 6.9056 22.5379 8.75914 22.5379 10.8259C22.5379 12.8763 21.7014 14.7463 20.3563 16.0913Z" fill="#FF4747"/>
</g>
</g>
<defs>
<clipPath id="clip0_74_6658">
<rect width="27.8674" height="27.8674" fill="white" transform="translate(-0.00585938 0.277344)"/>
</clipPath>
<clipPath id="clip1_74_6658">
<rect width="28" height="28" fill="white"/>
</clipPath>
</defs>
</svg>
