<svg width="30" height="30" viewBox="0 0 30 30" fill="none" xmlns="http://www.w3.org/2000/svg">
<path d="M15 4.20937C15.4659 4.20937 15.8437 3.83156 15.8437 3.36562V1.875C15.8437 1.40906 15.4659 1.03125 15 1.03125C14.5341 1.03125 14.1562 1.40906 14.1562 1.875V3.36562C14.1562 3.83156 14.5341 4.20937 15 4.20937Z" fill="#00BF58"/>
<path d="M8.91571 5.21993C9.08258 5.40556 9.31227 5.49931 9.54289 5.49931C9.74446 5.49931 9.94602 5.42806 10.1073 5.28368C10.4541 4.9715 10.4823 4.43899 10.1701 4.09212L9.22227 3.03837C8.91008 2.69056 8.37664 2.66431 8.03071 2.97462C7.68383 3.28681 7.65571 3.81931 7.96789 4.16618L8.91571 5.21993Z" fill="#00BF58"/>
<path d="M20.4574 5.49947C20.688 5.49947 20.9177 5.40478 21.0846 5.22009L22.0324 4.16634C22.3446 3.81947 22.3164 3.28697 21.9696 2.97478C21.6246 2.66447 21.0902 2.69166 20.778 3.03853L19.8302 4.09228C19.518 4.43916 19.5461 4.97166 19.893 5.28385C20.0552 5.42822 20.2558 5.49947 20.4574 5.49947Z" fill="#00BF58"/>
<path d="M15.5409 28.125H14.46C12.389 28.125 10.71 26.446 10.71 24.375V24.0713H19.2909V24.375C19.2909 26.446 17.6118 28.125 15.5409 28.125Z" fill="#00BF58"/>
<path d="M14.9999 6.82959C10.6368 6.82959 7.07617 10.3808 7.07617 14.7533C7.07617 16.7774 7.84961 18.629 9.10961 20.0324C9.72648 20.7196 10.1896 21.5193 10.4559 22.3837H14.1562V18.5821L12.0562 16.4821C11.7262 16.153 11.7262 15.6187 12.0562 15.2896C12.3862 14.9596 12.9205 14.9596 13.2496 15.2896L14.9999 17.0399L16.7502 15.2896C17.0802 14.9596 17.6146 14.9596 17.9437 15.2896C18.2737 15.6187 18.2737 16.153 17.9437 16.4821L15.8437 18.5821V22.3837H19.544C19.8102 21.5193 20.2734 20.7196 20.8902 20.0324C22.1502 18.629 22.9237 16.7774 22.9237 14.7533C22.9237 10.3808 19.363 6.82959 14.9999 6.82959Z" fill="#00BF58"/>
</svg>
