<?xml version="1.0" encoding="UTF-8"?>
<svg id="Layer_1" xmlns="http://www.w3.org/2000/svg" xmlns:xlink="http://www.w3.org/1999/xlink" viewBox="0 0 1080 1080">
  <defs>
    <style>
      .cls-1 {
        fill: url(#linear-gradient-10);
      }

      .cls-2 {
        fill: url(#linear-gradient-12);
      }

      .cls-3 {
        fill: #fff;
      }

      .cls-4 {
        stroke: url(#linear-gradient-13);
      }

      .cls-4, .cls-5 {
        fill: none;
        stroke-miterlimit: 10;
      }

      .cls-6 {
        fill: url(#linear-gradient-5);
      }

      .cls-6, .cls-7, .cls-8, .cls-9 {
        opacity: .33;
      }

      .cls-10 {
        fill: url(#linear-gradient-8);
      }

      .cls-11 {
        fill: url(#linear-gradient-7);
      }

      .cls-7 {
        fill: url(#linear-gradient-2);
      }

      .cls-12 {
        fill: url(#linear-gradient-9);
      }

      .cls-13 {
        fill: #0e28f5;
        opacity: .35;
      }

      .cls-14 {
        fill: url(#linear-gradient-11);
      }

      .cls-8 {
        fill: url(#linear-gradient-3);
      }

      .cls-5 {
        stroke: url(#linear-gradient-6);
        stroke-width: .6px;
      }

      .cls-9 {
        fill: url(#linear-gradient-4);
      }

      .cls-15 {
        fill: url(#linear-gradient);
      }
    </style>
    <linearGradient id="linear-gradient" x1="-684.35" y1="-1979.83" x2="171.15" y2="-1979.83" gradientTransform="translate(283.6 -1199.18) rotate(-180)" gradientUnits="userSpaceOnUse">
      <stop offset="0" stop-color="#0062ff"/>
      <stop offset="1" stop-color="#1daeff"/>
    </linearGradient>
    <linearGradient id="linear-gradient-2" x1="967.95" y1="798.51" x2="366.58" y2="798.51" gradientTransform="matrix(1,0,0,1,0,0)" xlink:href="#linear-gradient"/>
    <linearGradient id="linear-gradient-3" x1="967.95" y1="825.36" x2="489.87" y2="825.36" gradientTransform="matrix(1,0,0,1,0,0)" xlink:href="#linear-gradient"/>
    <linearGradient id="linear-gradient-4" x1="967.95" y1="857.46" x2="597.38" y2="857.46" gradientTransform="matrix(1,0,0,1,0,0)" xlink:href="#linear-gradient"/>
    <linearGradient id="linear-gradient-5" x1="962.37" y1="948.76" x2="688.68" y2="948.76" gradientTransform="matrix(1,0,0,1,0,0)" xlink:href="#linear-gradient"/>
    <linearGradient id="linear-gradient-6" x1="-684.65" y1="-1979.83" x2="171.45" y2="-1979.83" xlink:href="#linear-gradient"/>
    <linearGradient id="linear-gradient-7" x1="-48.48" y1="246.96" x2="807.03" y2="246.96" gradientTransform="translate(160.52 52.4)" gradientUnits="userSpaceOnUse">
      <stop offset="0" stop-color="#00ffce"/>
      <stop offset="1" stop-color="#0fe8e8"/>
    </linearGradient>
    <linearGradient id="linear-gradient-8" y1="229.09" x2="552.9" y2="229.09" xlink:href="#linear-gradient-7"/>
    <linearGradient id="linear-gradient-9" y1="220.35" x2="482.57" y2="220.35" xlink:href="#linear-gradient-7"/>
    <linearGradient id="linear-gradient-10" y1="202.24" x2="429.61" y2="202.24" xlink:href="#linear-gradient-7"/>
    <linearGradient id="linear-gradient-11" y1="170.14" x2="322.1" y2="170.14" xlink:href="#linear-gradient-7"/>
    <linearGradient id="linear-gradient-12" x1="-42.89" y1="78.84" x2="230.8" y2="78.84" xlink:href="#linear-gradient-7"/>
    <linearGradient id="linear-gradient-13" x1="-48.98" x2="807.53" xlink:href="#linear-gradient-7"/>
  </defs>
  <rect class="cls-3" width="1080" height="1080"/>
  <g>
    <path class="cls-15" d="M142.99,936.79c9.32-34.64,21.61-68.53,36.54-101.26,47.24-102.85,121.59-193.3,215.44-257.28,4.66-3.18,9.32-6.14,13.98-9.11,80.5-50.63,181.23-77.11,275.81-68.53,43.64,3.92,85.9,15.36,124.35,35.27,10.17,5.19,20.02,11.02,29.55,17.48,15.46,10.38,30.19,22.45,43.74,36.22,13.66,13.77,26.27,29.34,37.71,46.71,3.81,5.83,7.41,11.65,10.7,17.48,35.91,62.81,44.27,126.47,31.56,184.4-1.38,6.99-3.18,13.77-5.3,20.55-23.3,75.31-80.71,136.42-150.72,171.06-38.87,19.17-77.74,26.59-117.68,29.55-26.69,1.91-53.81,1.8-81.87,1.8H234.61c-40.35,0-81.66,2.54-121.91,0-3.28-1.06,27.75-114.6,30.29-124.35Z"/>
    <path class="cls-7" d="M366.58,1061.14c108.88-84.52,316.91-268.93,442.53-525.25,10.17,5.19,20.02,11.02,29.55,17.48,15.46,10.38,30.19,22.45,43.74,36.22,13.66,13.77,26.27,29.34,37.71,46.71,3.81,5.83,7.41,11.65,10.7,17.48,35.91,62.81,44.27,126.47,31.56,184.4-1.38,6.99-3.18,13.77-5.3,20.55-23.3,75.31-80.71,136.42-150.72,171.06-38.87,19.17-77.74,26.59-117.68,29.55-26.69,1.91-53.81,1.8-81.87,1.8h-240.22Z"/>
    <path class="cls-8" d="M489.87,1061.14c281.85-81.24,377.18-410.54,392.53-471.55,13.66,13.77,26.27,29.34,37.71,46.71,3.81,5.83,7.41,11.65,10.7,17.48,35.91,62.81,44.27,126.47,31.56,184.4-1.38,6.99-3.18,13.77-5.3,20.55-23.3,75.31-80.71,136.42-150.72,171.06-38.87,19.17-77.74,26.59-117.68,29.55-26.69,1.91-53.81,1.8-81.87,1.8h-116.93Z"/>
    <path class="cls-9" d="M597.38,1061.14c223.38-97.97,305.36-302.93,333.43-407.36,35.91,62.81,44.27,126.47,31.56,184.4-1.38,6.99-3.18,13.77-5.3,20.55-23.3,75.31-80.71,136.42-150.72,171.06-38.87,19.17-77.74,26.59-117.68,29.55-26.69,1.91-53.81,1.8-81.87,1.8h-9.43Z"/>
    <path class="cls-6" d="M688.68,1059.34c104.75-65.56,208.45-158.35,273.69-221.16-1.38,6.99-3.18,13.77-5.3,20.55-23.3,75.31-80.71,136.42-150.72,171.06-38.87,19.17-77.74,26.59-117.68,29.55Z"/>
    <path class="cls-5" d="M142.99,936.79c9.32-34.64,21.61-68.53,36.54-101.26,47.24-102.85,121.59-193.3,215.44-257.28,4.66-3.18,9.32-6.14,13.98-9.11,80.5-50.63,181.23-77.11,275.81-68.53,43.64,3.92,85.9,15.36,124.35,35.27,10.17,5.19,20.02,11.02,29.55,17.48,15.46,10.38,30.19,22.45,43.74,36.22,13.66,13.77,26.27,29.34,37.71,46.71,3.81,5.83,7.41,11.65,10.7,17.48,35.91,62.81,44.27,126.47,31.56,184.4-1.38,6.99-3.18,13.77-5.3,20.55-23.3,75.31-80.71,136.42-150.72,171.06-38.87,19.17-77.74,26.59-117.68,29.55-26.69,1.91-53.81,1.8-81.87,1.8H234.61c-40.35,0-81.66,2.54-121.91,0-3.28-1.06,27.75-114.6,30.29-124.35Z"/>
    <g>
      <path class="cls-11" d="M937.01,143.21c-9.32,34.64-21.61,68.53-36.54,101.26-47.24,102.85-121.59,193.3-215.44,257.28-4.66,3.18-9.32,6.14-13.98,9.11-80.5,50.63-181.23,77.11-275.81,68.53-43.64-3.92-85.9-15.36-124.35-35.27-10.17-5.19-20.02-11.02-29.55-17.48-15.46-10.38-30.19-22.45-43.74-36.22-13.66-13.77-26.27-29.34-37.71-46.71-3.81-5.83-7.41-11.65-10.7-17.48-35.91-62.81-44.27-126.47-31.56-184.4,1.38-6.99,3.18-13.77,5.3-20.55,23.3-75.31,80.71-136.42,150.72-171.06,38.87-19.17,77.74-26.59,117.68-29.55,26.69-1.91,53.81-1.8,81.87-1.8h372.2c40.35,0,81.66-2.54,121.91,0,3.28,1.06-27.75,114.6-30.29,124.35Z"/>
      <path class="cls-10" d="M713.42,18.86c-108.88,84.52-316.91,268.93-442.53,525.25-10.17-5.19-20.02-11.02-29.55-17.48-15.46-10.38-30.19-22.45-43.74-36.22-13.66-13.77-26.27-29.34-37.71-46.71-3.81-5.83-7.41-11.65-10.7-17.48-35.91-62.81-44.27-126.47-31.56-184.4,1.38-6.99,3.18-13.77,5.3-20.55,23.3-75.31,80.71-136.42,150.72-171.06,38.87-19.17,77.74-26.59,117.68-29.55,26.69-1.91,53.81-1.8,81.87-1.8h240.22Z"/>
      <path class="cls-12" d="M643.09,18.86c-162.37,102.42-326.02,371.67-401.75,507.77-15.46-10.38-30.19-22.45-43.74-36.22-13.66-13.77-26.27-29.34-37.71-46.71-3.81-5.83-7.41-11.65-10.7-17.48-35.91-62.81-44.27-126.47-31.56-184.4,1.38-6.99,3.18-13.77,5.3-20.55,23.3-75.31,80.71-136.42,150.72-171.06,38.87-19.17,77.74-26.59,117.68-29.55,26.69-1.91,53.81-1.8,81.87-1.8h169.89Z"/>
      <path class="cls-1" d="M590.13,18.86C308.28,100.1,212.96,429.4,197.6,490.41c-13.66-13.77-26.27-29.34-37.71-46.71-3.81-5.83-7.41-11.65-10.7-17.48-35.91-62.81-44.27-126.47-31.56-184.4,1.38-6.99,3.18-13.77,5.3-20.55,23.3-75.31,80.71-136.42,150.72-171.06,38.87-19.17,77.74-26.59,117.68-29.55,26.69-1.91,53.81-1.8,81.87-1.8h116.93Z"/>
      <path class="cls-14" d="M482.62,18.86C259.24,116.84,177.26,321.79,149.19,426.23c-35.91-62.81-44.27-126.47-31.56-184.4,1.38-6.99,3.18-13.77,5.3-20.55,23.3-75.31,80.71-136.42,150.72-171.06,38.87-19.17,77.74-26.59,117.68-29.55,26.69-1.91,53.81-1.8,81.87-1.8h9.43Z"/>
      <path class="cls-2" d="M391.32,20.66c-104.75,65.56-208.45,158.35-273.69,221.16,1.38-6.99,3.18-13.77,5.3-20.55,23.3-75.31,80.71-136.42,150.72-171.06,38.87-19.17,77.74-26.59,117.68-29.55Z"/>
      <path class="cls-4" d="M937.01,143.21c-9.32,34.64-21.61,68.53-36.54,101.26-47.24,102.85-121.59,193.3-215.44,257.28-4.66,3.18-9.32,6.14-13.98,9.11-80.5,50.63-181.23,77.11-275.81,68.53-43.64-3.92-85.9-15.36-124.35-35.27-10.17-5.19-20.02-11.02-29.55-17.48-15.46-10.38-30.19-22.45-43.74-36.22-13.66-13.77-26.27-29.34-37.71-46.71-3.81-5.83-7.41-11.65-10.7-17.48-35.91-62.81-44.27-126.47-31.56-184.4,1.38-6.99,3.18-13.77,5.3-20.55,23.3-75.31,80.71-136.42,150.72-171.06,38.87-19.17,77.74-26.59,117.68-29.55,26.69-1.91,53.81-1.8,81.87-1.8h372.2c40.35,0,81.66-2.54,121.91,0,3.28,1.06-27.75,114.6-30.29,124.35Z"/>
    </g>
    <path class="cls-13" d="M670.88,509.73c4.66-2.97,9.32-5.93,13.88-9.11-94.59-8.58-195.31,17.9-275.81,68.53-4.66,2.97-9.32,5.93-13.98,9.11,94.59,8.58,195.31-17.79,275.92-68.53Z"/>
  </g>
</svg>