<?xml version="1.0" encoding="UTF-8"?>
<svg xmlns="http://www.w3.org/2000/svg" version="1.1" viewBox="0 0 5000 5000">
  <defs>
    <style>
      .cls-1 {
        fill: #33e5c3;
      }

      .cls-2 {
        fill: #ffd7cc;
      }

      .cls-3 {
        fill: #0a0a19;
      }

      .cls-4 {
        fill: #ffbb32;
      }

      .cls-5 {
        fill: #ffc8bb;
      }

      .cls-6 {
        fill: #fa5743;
      }

      .cls-7 {
        fill: #fa0;
      }

      .cls-8 {
        fill: #fca495;
      }

      .cls-9 {
        fill: #1e02a8;
      }

      .cls-10 {
        fill: #2f2f3f;
      }

      .cls-11 {
        fill: #00e2b7;
      }

      .cls-12 {
        fill: #ffcb64;
      }

      .cls-13 {
        fill: #e6ebfd;
      }

      .cls-14 {
        fill: #321ec6;
      }
    </style>
  </defs>
  <!-- Generator: Adobe Illustrator 28.6.0, SVG Export Plug-In . SVG Version: 1.2.0 Build 709)  -->
  <g>
    <g id="Layer_1">
      <g>
        <g id="_x32_3">
          <g>
            <g>
              <g>
                <g>
                  <g>
                    <g>
                      <g>
                        <path class="cls-8" d="M1857.09,3219.77c-41.06-174.64,14.77-330.55,123.59-469.54,1.9-2.43,5.41-2.86,7.84-.95,2.43,1.9,2.86,5.41.95,7.84-106.26,135.74-161.9,288.31-121.51,460.09.71,3.01-1.16,6.01-4.16,6.72-2.98.7-6.01-1.14-6.72-4.16Z"/>
                        <path class="cls-13" d="M2900.07,3354.63c-23.01,44.68-755.05,49.59-774.37,0,0,0-167.89-124.27-98.67-353.41,44.56-147.36,232.81-311.49,361.48-409.89,65.57-50.15,65.04-148.55.04-198.25-128.62-98.36-316.96-262.58-361.52-409.98-69.27-229.13,98.63-353.41,98.63-353.41,22.96-44.56,755.03-49.68,774.33,0,0,0,167.89,124.27,98.72,353.41-44.56,147.41-232.81,311.58-361.43,409.94-65.93,50.35-64.88,148.71-.09,198.24,128.67,98.41,316.96,262.58,361.52,409.94,69.22,229.13-98.63,353.41-98.63,353.41Z"/>
                        <path class="cls-8" d="M1938.43,3206.94c-64.07-255.97,128.43-462.12,335.29-631.67,2.39-1.96,5.91-1.6,7.87.78,1.96,2.39,1.61,5.91-.78,7.87-200.57,164.38-394.78,367.68-331.53,620.31.75,2.99-1.07,6.03-4.06,6.78-3.01.75-6.03-1.08-6.78-4.06Z"/>
                        <path class="cls-12" d="M2752.92,1881.91s-282.98,182.65-290.45,183.18c-7.5.53-292.89-36.94-292.89-36.94,0,0-55.33-28.27-62.75-31.28l-55.97-114.96c177-96.26,422.82-76.32,702.07,0Z"/>
                        <path class="cls-4" d="M2752.92,1881.91s-282.98,182.65-290.45,183.18c-7.5.53-292.89-36.94-292.89-36.94,0,0-55.33-28.27-62.75-31.28l-55.97-114.96c240.54,81.3,474.19,76.55,702.07,0Z"/>
                        <path class="cls-10" d="M2168.74,2029.82c-.55-.28-55.33-28.28-62.61-31.22-1.22-.5,2.98,6.8-56.93-115.86-.44-.9-.09-1.98.78-2.45,77.16-41.96,168.23-63.24,278.42-65.05h.03c1.02,0,1.84.81,1.86,1.83.02,1.03-.8,1.88-1.83,1.89-108.83,1.78-198.85,22.63-275.13,63.75l54.86,112.71c9.24,4,57.31,28.56,61.95,30.93,97.89,12.84,283.5,36.89,292.06,36.89,6.1,0,279.12-176.05,286.21-180.63-16.56-4.5-33.02-8.8-48.97-12.8-1-.25-1.6-1.26-1.36-2.26.25-1,1.27-1.6,2.26-1.35,17.28,4.33,35.14,9.01,53.08,13.92,1.55.42,1.87,2.48.52,3.36-47.32,30.54-283.76,182.93-291.34,183.48-7.33.49-293.25-36.82-293.87-37.14Z"/>
                        <path class="cls-10" d="M2647.31,1857.39c-93.02-20.99-175.24-33.14-251.36-37.13-1.03-.05-1.82-.93-1.76-1.96.05-1.03.98-1.79,1.96-1.76,76.33,4,158.75,16.18,251.99,37.22,1,.23,1.63,1.22,1.4,2.23-.22,1.01-1.23,1.63-2.23,1.41Z"/>
                        <path class="cls-12" d="M2974.94,1881.92c-.67,27.39-5.11,57.25-14.88,89.53-31.38,103.92-154.76,242.31-347.31,389.59-32.37,24.7-54.34,60.75-62,100.2-7.99,41.3-67.81,41.36-75.81-.09-2.82-14.66-7.58-28.92-14.17-42.19-11.12-22.46-27.62-42.5-47.7-57.88-50.08-38.29-95.49-75.99-135.79-112.66-114.77-104.28-188.38-200.04-211.65-277.01-9.73-32.23-14.17-62.09-14.75-89.48,479.61,385.28,530.13-111.45,924.07,0Z"/>
                      </g>
                      <g>
                        <path class="cls-10" d="M2493.54,3391.77c-66.3,0-130.96-1.44-185.49-4.3-79.18-4.15-174.95-13-183.86-31.61-4.43-3.41-44.01-34.8-75.4-91.06-30.58-54.79-59.48-145.09-23.56-264.08,17.24-57.03,57.54-121.55,119.8-191.76.68-.77,1.86-.84,2.63-.16.77.68.84,1.86.16,2.63-61.89,69.8-101.94,133.85-119.02,190.36-35.55,117.74-6.98,207.02,23.24,261.19,32.75,58.68,74.35,89.88,74.77,90.19.28.21.5.49.63.82,2.42,6.23,24.88,21.58,180.8,29.75,231.18,12.12,575.42-1.31,590.16-29.93.71-1.38,41.68-30.47,75.39-90.98,30.17-54.14,58.67-143.38,23.12-261.04-4.17-13.77-9.76-28.18-16.64-42.82-.44-.93-.04-2.04.89-2.48.94-.44,2.04-.04,2.48.89,6.96,14.8,12.62,29.38,16.83,43.33,35.95,118.99,7.06,209.28-23.51,264.08-31.59,56.61-71.47,88.05-75.48,91.12-14.54,24.02-217.86,35.84-407.96,35.84Z"/>
                        <path class="cls-10" d="M2947.93,2901.73c-76.37-116.66-211.74-232.4-311.85-308.95-31.17-23.84-49.79-61.45-49.79-100.6s18.62-76.77,49.8-100.61c64.83-49.56,157.99-126.13,233.59-209.45.69-.76,1.87-.81,2.63-.13.76.69.82,1.87.13,2.63-75.79,83.53-169.13,160.25-234.09,209.91-30.27,23.14-48.34,59.64-48.34,97.65s18.06,74.5,48.33,97.64c100.34,76.73,236.04,192.78,312.7,309.88.56.86.32,2.02-.54,2.58-.85.56-2.01.33-2.58-.54Z"/>
                        <path class="cls-10" d="M2934.59,2105.4c-.84-.6-1.03-1.76-.44-2.6,30.49-42.85,51.61-83.29,62.78-120.23,35.55-117.74,6.98-207.02-23.25-261.19-32.75-58.68-74.35-89.88-74.77-90.19-.28-.21-.5-.49-.63-.82-2.42-6.22-24.88-21.58-180.78-29.75-231.17-12.12-575.44,1.31-590.19,29.93-.13.25-.32.47-.55.64-.58.43-58.09,43.69-91.23,124.29-.39.96-1.48,1.41-2.43,1.02-.95-.39-1.4-1.48-1.02-2.43,32.25-78.43,87.38-121.97,92.14-125.62,27.15-44.95,752.85-51.02,777.3.06,4.43,3.41,44.01,34.8,75.41,91.06,30.58,54.79,59.48,145.09,23.55,264.08-11.28,37.32-32.59,78.13-63.31,121.31-.6.84-1.76,1.03-2.6.44Z"/>
                        <path class="cls-10" d="M2215.91,2738.18c-.71-.74-.69-1.92.05-2.63,49.6-47.63,107.28-96.65,171.42-145.69,30.27-23.14,48.34-59.64,48.34-97.65s-18.06-74.5-48.33-97.64c-141.18-107.96-318.61-266.88-362.15-410.91-18.28-60.48-21.67-119.2-10.09-174.54.21-1.01,1.21-1.66,2.2-1.44,1.01.21,1.65,1.2,1.44,2.2-11.46,54.71-8.09,112.82,10.01,172.69,43.25,143.08,220.11,301.41,360.85,409.03,31.17,23.84,49.79,61.45,49.79,100.6s-18.62,76.77-49.8,100.61c-64.04,48.95-121.6,97.88-171.1,145.41-.75.72-1.93.68-2.63-.05Z"/>
                      </g>
                      <g>
                        <path class="cls-14" d="M3076.96,1647.13c-4.17,16.28-8.35,32.56-12.52,48.81-3.54,13.93-17.66,22.43-31.56,19.04-341.69-83.46-698.35-83.46-1040.04,0-13.93,3.39-28.02-5.1-31.56-19.04-12.85-50.03-9.06-35.16-12.52-48.81-3.69-14.23,5.03-28.58,19.3-32.12,293.77-71.79,598.28-84.65,895.89-38.56,64.94,10.02,129.58,22.91,193.7,38.56,14.27,3.54,22.99,17.88,19.3,32.12Z"/>
                        <path class="cls-9" d="M3076.97,1647.15c-4.18,16.25-8.36,32.54-12.54,48.8-3.54,13.92-17.63,22.41-31.55,19.02-341.67-83.43-698.36-83.43-1040.04,0-13.92,3.4-28.01-5.1-31.55-19.02-3.54-13.77-7.08-27.55-10.62-41.32,121.28-22.17,284.08-54.77,392.88-52.27,395.74,9.1,633.7,87.68,639.94,37.57,3.08-24.75-57.44-47.17-119.51-63.46,64.94,10.02,129.57,22.91,193.69,38.56,14.27,3.51,22.98,17.88,19.3,32.12Z"/>
                        <path class="cls-10" d="M3032.43,1716.77c-339.9-83.01-699.22-83.01-1039.12,0-14.84,3.63-30.01-5.51-33.83-20.35l-12.54-48.82c-3.9-15.2,5.38-30.63,20.68-34.37,356.71-87.17,733.8-87.17,1090.49,0,15.3,3.74,24.58,19.17,20.68,34.37h0l-12.53,48.82c-3.81,14.85-18.99,23.97-33.83,20.35ZM2512.87,1650.79c175.1,0,350.21,20.79,520.44,62.36,12.88,3.15,26.04-4.78,29.34-17.66l12.53-48.82c3.39-13.18-4.67-26.58-17.96-29.82-356.12-87.04-732.6-87.04-1088.72,0-13.28,3.24-21.35,16.63-17.96,29.83l12.54,48.82c3.31,12.88,16.46,20.81,29.34,17.66,170.24-41.57,345.34-62.36,520.44-62.36ZM3076.99,1647.14h.04-.04Z"/>
                        <path class="cls-14" d="M3057.67,3384.94c-357.93,87.5-731.68,87.5-1089.61,0-14.27-3.47-22.98-17.88-19.3-32.08,4.18-16.29,8.36-32.54,12.54-48.83,3.54-13.88,17.63-22.41,31.55-19.01,4.36,1.06,8.68,2.09,12.96,3.08,343.12,81.66,695.15,77.99,1027.07-3.08,13.92-3.4,28.01,5.13,31.55,19.01.97,3.75,11.14,43.36,12.54,48.83,3.68,14.2-5.03,28.61-19.3,32.08Z"/>
                        <path class="cls-9" d="M3057.67,3384.94c-357.93,87.5-731.68,87.5-1089.61,0-14.27-3.47-22.98-17.88-19.3-32.08,4.18-16.29,8.36-32.54,12.54-48.83,3.54-13.88,17.63-22.41,31.55-19.01,4.36,1.06,8.68,2.09,12.96,3.08,105.35,25.07,212.11,42.25,319.4,51.42-3.22,14.98,3.33,38.03,46.95,49.04,51.7,13.03,548.15-25.14,696.59-67.74,2.72,10.69,5.49,21.35,8.21,32.05,3.68,14.2-5.03,28.61-19.3,32.08Z"/>
                        <path class="cls-10" d="M1967.62,3386.77c-15.3-3.74-24.58-19.17-20.68-34.37h0l12.54-48.82c3.81-14.84,18.99-23.98,33.83-20.35,339.91,83.01,699.22,83.01,1039.12,0,14.82-3.64,30.01,5.5,33.83,20.35l12.53,48.82c3.91,15.23-5.41,30.64-20.68,34.37-356.69,87.18-733.8,87.18-1090.49,0ZM1950.55,3353.32c-3.39,13.18,4.67,26.58,17.96,29.83,355.38,86.85,731.85,87.22,1088.72,0,13.28-3.25,21.35-16.63,17.96-29.83l-12.53-48.82c-3.3-12.88-16.46-20.81-29.34-17.66-340.47,83.15-700.41,83.15-1040.88,0-12.87-3.14-26.03,4.78-29.34,17.66l-12.54,48.82Z"/>
                      </g>
                    </g>
                    <path class="cls-4" d="M2974.94,1881.92c-.67,27.39-5.11,57.25-14.88,89.53-31.38,103.92-154.76,242.31-347.31,389.59-32.37,24.7-54.34,60.75-62,100.2-7.99,41.3-67.81,41.36-75.81-.09-2.82-14.66-7.58-28.92-14.17-42.19-11.12-22.46-27.62-42.5-47.7-57.88-50.08-38.29-95.49-75.99-135.79-112.66,431.55-17.75,697.67-366.5,697.67-366.5Z"/>
                    <path class="cls-10" d="M2473.1,2461.49c-2.82-14.64-7.53-28.67-14-41.71-11.01-22.25-27.32-42.03-47.16-57.22-49.81-38.08-95.54-76.02-135.92-112.76-.76-.69-.82-1.87-.12-2.63.69-.76,1.87-.81,2.63-.12,40.3,36.67,85.95,74.54,135.67,112.56,20.3,15.54,36.97,35.78,48.24,58.53,6.62,13.34,11.44,27.69,14.32,42.66,7.59,39.34,64.53,39.48,72.15.09,7.87-40.49,30.14-76.47,62.7-101.33,192.27-147.06,315.39-285.08,346.66-388.64,8.52-28.15,13.43-56.18,14.61-83.4-12.05,14.92-54.56,65.42-122.53,123.6-.78.67-1.96.58-2.63-.2-.67-.78-.58-1.96.2-2.63,80.49-68.89,125.09-126.91,125.53-127.49,1.09-1.43,3.38-.63,3.34,1.18-.72,29.32-5.76,59.61-14.96,90.02-31.5,104.31-155.07,243-347.96,390.53-31.84,24.3-53.61,59.48-61.3,99.07-8.4,43.35-71.08,43.33-79.47-.09Z"/>
                    <path class="cls-10" d="M2553.73,2189.52c-.38-.96.09-2.04,1.05-2.41,78.79-31.01,155.61-73.86,228.34-127.35.82-.61,1.99-.44,2.6.4.61.83.43,1.99-.4,2.6-72.98,53.69-150.08,96.7-229.18,127.82-.9.37-2.02-.06-2.41-1.05Z"/>
                    <path class="cls-10" d="M2415.64,2231.01c-.21-1,.43-1.99,1.43-2.21,37.82-8.09,75.86-18.99,113.06-32.4.98-.33,2.03.15,2.39,1.12.35.97-.15,2.04-1.12,2.39-37.36,13.46-75.56,24.41-113.55,32.54-1.08.21-2.01-.48-2.21-1.43Z"/>
                    <path class="cls-10" d="M2473.1,2461.49c-2.82-14.64-7.53-28.67-14-41.71-11.01-22.25-27.32-42.03-47.16-57.22-49.81-38.08-95.54-76.02-135.92-112.76-115.62-105.05-188.99-201.13-212.18-277.85-9.22-30.55-14.21-60.83-14.83-89.98-.03-1.58,1.79-2.48,3.03-1.49,278.93,224.08,411.94,148.92,552.76,69.36,101.22-57.19,205.89-116.32,370.65-69.7.82.23,1.38.99,1.36,1.84-.72,29.32-5.76,59.61-14.96,90.02-31.5,104.31-155.07,243-347.96,390.53-31.84,24.3-53.61,59.48-61.3,99.07-8.4,43.35-71.08,43.33-79.47-.09ZM2052.85,1885.89c.97,27.59,5.86,56.15,14.56,84.98,22.99,76.08,96,171.57,211.12,276.17,40.31,36.67,85.95,74.54,135.68,112.56,20.3,15.54,36.97,35.78,48.24,58.53,6.62,13.34,11.44,27.69,14.32,42.66,7.59,39.34,64.53,39.48,72.15.09,7.87-40.49,30.14-76.47,62.7-101.33,192.27-147.06,315.39-285.08,346.66-388.64,8.96-29.6,13.93-59.06,14.76-87.59-162.45-45.46-266.14,13.11-366.41,69.75-71.67,40.49-141.35,79.85-228.91,79.86-85.22,0-187.37-37.26-324.87-147.04Z"/>
                  </g>
                  <g>
                    <path class="cls-5" d="M2964.06,3233.71c0,32.7-202.01,59.23-451.21,59.23s-451.21-26.53-451.21-59.23,202.01-59.16,451.21-59.16,451.21,26.47,451.21,59.16Z"/>
                    <path class="cls-8" d="M2964.07,3233.7c0,32.68-202.02,59.22-451.21,59.22s-442.06-25.37-450.86-57c73.97,19.5,227.06,32.85,403.92,32.85,249.2,0,451.21-26.53,451.21-59.27,0-.72-.12-1.44-.35-2.16,30.28,7.92,47.3,16.9,47.3,26.37Z"/>
                    <path class="cls-10" d="M2516.51,3294.79c-2.19,0-10.31.01-21.35-.04-1.03,0-1.86-.84-1.85-1.87,0-1.03.86-1.77,1.87-1.85,11.13.06,19.02.04,21.32.04,1.03,0,1.86.83,1.86,1.86s-.83,1.86-1.86,1.86Z"/>
                    <path class="cls-10" d="M2577.63,3294.19c-1.01,0-1.84-.81-1.86-1.83-.02-1.03.8-1.88,1.83-1.9,240.74-4.54,384.6-32.43,384.6-56.76,0-6.04-9.37-18.04-72.12-30.58-1.01-.2-1.66-1.18-1.46-2.19.2-1.02,1.2-1.67,2.19-1.46,49.85,9.97,75.12,21.48,75.12,34.24,0,34.9-195.32,56.84-388.25,60.48h-.04Z"/>
                  </g>
                </g>
                <path class="cls-13" d="M2223.93,2469.63c0,18.31-14.85,33.16-33.16,33.16s-33.16-14.85-33.16-33.16,14.85-33.16,33.16-33.16,33.16,14.85,33.16,33.16Z"/>
                <path class="cls-13" d="M2947.56,2288.02c0,18.31-14.85,33.16-33.16,33.16s-33.16-14.85-33.16-33.16,14.85-33.16,33.16-33.16,33.16,14.85,33.16,33.16Z"/>
                <g>
                  <path class="cls-13" d="M2540.41,1769.75s.35-37.95,47.44-33.38c0,0,11.95-28.81,43.92-24.6,31.98,4.22,44.63,33.38,44.63,33.38,0,0,15.2-20.62,38.87-19.67,23.67.95,35.7,23.44,44.5,27.69,7.79,3.76,36.06,14.36,61.31,16.58h-280.67Z"/>
                  <path class="cls-10" d="M2676.19,1747.01c-1.87-.21-1.01-1.56-5.91-8.68-.58-.85-.37-2.01.48-2.59.83-.58,2-.37,2.59.48,1.52,2.21,2.65,4.13,3.43,5.56,2.09-2.36,5.85-6.18,11.07-9.73.84-.57,2.01-.36,2.59.49.58.85.36,2.01-.49,2.59-7.62,5.19-12,11.08-12.05,11.14-.38.51-1,.82-1.71.75Z"/>
                  <path class="cls-10" d="M2558.69,1742.41c-.68,0-1.33-.37-1.66-1.02-.47-.92-.1-2.04.81-2.51,7.7-3.92,17.42-5.43,28.88-4.49,2.86-5.66,16.19-28.32,45.29-24.47,11.72,1.54,22.23,6.47,31.22,14.65.76.69.81,1.87.12,2.63-.69.76-1.86.82-2.63.12-8.42-7.66-18.24-12.27-29.2-13.72-30.12-3.97-41.49,22.35-41.96,23.47-.31.75-1.11,1.2-1.9,1.14-11.31-1.1-20.79.24-28.14,3.98-.27.14-.56.2-.84.2Z"/>
                </g>
                <g>
                  <path class="cls-13" d="M2124.42,1782.16s.26-27.81,34.76-24.46c0,0,8.75-21.11,32.18-18.02,23.43,3.09,32.7,24.46,32.7,24.46,0,0,11.14-15.11,28.48-14.42,17.34.69,26.16,17.18,32.61,20.29,5.7,2.76,26.42,10.52,44.92,12.15h-205.65Z"/>
                  <path class="cls-10" d="M2223.86,1765.99c-1.72-.19-1.07-1.31-4.69-6.57-.58-.85-.37-2.01.48-2.59.85-.58,2.01-.37,2.59.48.92,1.34,1.65,2.53,2.2,3.51,1.62-1.76,4.24-4.31,7.73-6.69.84-.57,2.01-.37,2.59.49.58.85.36,2.01-.49,2.59-5.48,3.73-8.67,8.01-8.7,8.05-.41.56-1.1.82-1.71.74Z"/>
                  <path class="cls-10" d="M2137.82,1762.63c-.68,0-1.33-.37-1.66-1.02-.47-.92-.1-2.04.81-2.51,5.65-2.88,12.72-4.01,21.1-3.37,2.44-4.68,12.42-20.7,33.54-17.9,8.69,1.14,16.47,4.8,23.14,10.86.76.69.82,1.87.13,2.63-.69.76-1.87.82-2.63.13-6.1-5.54-13.2-8.88-21.12-9.93-21.76-2.87-29.88,16.09-30.22,16.89-.32.75-1.12,1.21-1.9,1.14-14.7-1.42-19.61,3.07-21.19,3.07Z"/>
                </g>
              </g>
              <g>
                <g>
                  <path class="cls-2" d="M2579.65,2569.11c1.8,17.13.42,29.62.42,29.62l-39.77,25.47s-41.26-33.59-40.09-46.4c1.23-13.09,26.09-1.79,27.72-1.05-1.27-1.23-20.35-19.72-14.46-26.33,4.67-5.34,21.84,14.21,24.9,17.69-3.08-3.77-21-26.66-13.69-31.21,6.82-4.23,16.65,10.24,24.34,22.83-3.01-5.53-13.6-25.77-6.3-27.75,6.88-1.87,17.2,17.42,18.98,20.88-.93-2.14-4.17-10.12.66-12.88,4.37-2.45,15.07,7.41,17.29,29.11Z"/>
                  <path class="cls-8" d="M2539.12,2625.64c-4.3-3.5-42-34.59-40.77-48,.28-2.96,1.64-5.22,3.94-6.55,4.62-2.66,12.35-1.11,18.47.89-6.52-7.35-13.47-17.42-8.68-22.8.88-1,2.11-1.54,3.54-1.54.37.12,2.95-.51,9.74,4.9-3.02-5.43-6.92-13.94-1.64-17.22,5.46-3.41,11.51,2.16,15.67,7.09-1.38-4.9-2.06-10.9,2.86-12.23,5.22-1.43,11.2,5.41,15.9,12.73.46-1.99,1.56-3.54,3.3-4.53,1.62-.91,3.67-.79,5.8.31,5.88,3.05,12.57,13.58,14.27,30.22,1.81,17.14.48,29.5.42,30.02-.06.56-.37,1.06-.85,1.36l-39.78,25.47c-.67.43-1.56.39-2.18-.12ZM2504.15,2574.31c-11.34,6.57,26.03,39.16,36.27,47.59l37.88-24.25c.26-3.1.99-14.16-.51-28.35-1.55-15.18-7.45-24.79-12.28-27.3-.94-.49-1.78-.62-2.25-.37-3.43,1.95-.48,9.07.15,10.48.41.92.01,2-.9,2.43-.9.44-2,.08-2.46-.82-6.46-12.46-13.59-20.82-16.85-19.95-.43.12-.68.34-.87.77-1.31,3.08,1.95,12.62,8.31,24.3.48.89.17,2-.71,2.5-.87.51-1.99.23-2.52-.64-3.68-6.03-15.79-25.96-21.75-22.22h0c-.3.19-.67.51-.8,1.33-.84,4.97,7.16,17.55,14.95,27.14.64.79.53,1.94-.24,2.6-.78.65-1.93.57-2.6-.2-11.61-13.26-18.64-17.99-21.35-17.99h0c-.44,0-.62.13-.75.28-3.09,3.47,4.88,14.58,14.35,23.77,1.49,1.45-.16,3.89-2.06,3.04-5.34-2.43-17.93-7.08-23-4.15ZM2524.69,2536.91h.04-.04Z"/>
                </g>
                <g>
                  <g>
                    <g>
                      <g>
                        <path d="M2595.74,3150.36h-269.91c-.72,0-1.3-.58-1.3-1.3v-97.6c0-.72.58-1.3,1.3-1.3h256.65c.6,0,1.13.41,1.27,1,.98,4.13,2.07,8.43,3.21,12.9,6.11,24.01,13.71,53.88,10.09,85.15-.08.66-.63,1.15-1.3,1.15ZM2327.13,3147.76h267.44c3.25-30.38-4.17-59.55-10.15-83.05-1.05-4.12-2.06-8.1-2.98-11.94h-254.31v94.99Z"/>
                        <path class="cls-10" d="M2630.36,3225.3c-35.44,10.8-80.17,16.4-135.3,13.5-6.09-10.63-54.88-95.76-60.97-106.38,0,0,233.68-104.67,287.85-64.81,41.53,30.55,24.91,122.19-91.58,157.69Z"/>
                        <path class="cls-3" d="M2630.36,3225.3c-35.44,10.8-80.17,16.4-135.3,13.5l-41.41-72.26c22.98-7.66,18.04-5.4,21.6-12,1.81-3.33,6.96-3.41,10.53-3.84,9.32-1.14,16.31-.36,20.98,7.81,10.67,18.67,26.32,20.46,67.41,13.4,7.75,0,15.59-.89,23.18.73,14.8,3.13,26.47,15.87,30.87,30.36,2.21,7.23,2.78,14.78,2.15,22.31Z"/>
                        <path class="cls-6" d="M2600.94,3233.85c-7.48,7.45-19.58,12.76-37.41,13.25-62.91,1.7-79.53-5.68-79.53-5.68l8.74-68.64s51.89,10.69,88.01,6.87c4.46-.47,8.57.18,12.24,1.67,18.06,7.38,25.04,35.53,7.95,52.53Z"/>
                        <path class="cls-4" d="M2600.94,3233.85c-11.77-4.05-20.2-15.21-20.2-28.34,0-9.92,4.81-18.72,12.25-24.19,18.06,7.38,25.04,35.53,7.95,52.53Z"/>
                        <path class="cls-3" d="M2440.17,3164.09c-.45-.92-.08-2.04.85-2.49,99.44-49.05,214.21-69.05,215.36-69.25,1.75-.32,17.37-2.93,22.32,2.36,1.02,1.09,2.08,3.02,1.34,6-2.81,11.33-20.6,15.91-21.36,16.1-1,.23-2.01-.36-2.26-1.36-.25-1,.35-2.01,1.35-2.26.16-.04,16.38-4.21,18.65-13.37.36-1.46-.05-2.13-.45-2.55-2.7-2.89-13.06-2.3-18.96-1.24-1.16.2-115.41,20.11-214.36,68.91-.9.45-2.03.09-2.49-.85Z"/>
                        <path class="cls-10" d="M2494.5,3159.58s-236.93-132.02-291.1-92.16c-54.17,39.86-28.92,179.97,279.72,182.65,8.63,1.08,20.01-89.4,11.37-90.49Z"/>
                        <path d="M2514.75,3230.06c-1.91-12.65-.58-25.3,3.93-37.6.25-.67.99-1.02,1.67-.77.67.25,1.02,1,.77,1.67-4.36,11.88-5.64,24.09-3.8,36.31.11.71-.38,1.38-1.1,1.48-.67.11-1.37-.36-1.48-1.1Z"/>
                        <path d="M2527.44,3230.75c-1.91-12.65-.59-25.3,3.93-37.6.25-.68,1-1.02,1.67-.77.67.25,1.02,1,.77,1.67-4.36,11.88-5.64,24.1-3.8,36.31.11.71-.38,1.38-1.1,1.48-.67.11-1.37-.36-1.48-1.1Z"/>
                        <path d="M2540.13,3231.45c-1.91-12.65-.59-25.3,3.93-37.6.25-.68.99-1.02,1.67-.77.67.25,1.02,1,.77,1.67-4.36,11.88-5.64,24.1-3.8,36.31.11.71-.38,1.38-1.1,1.48-.67.11-1.37-.36-1.48-1.1Z"/>
                        <path d="M2552.82,3232.14c-1.91-12.65-.58-25.31,3.93-37.6.25-.68,1-1.02,1.67-.77.67.25,1.02,1,.77,1.67-4.36,11.88-5.64,24.09-3.8,36.31.11.71-.38,1.38-1.1,1.48-.67.11-1.37-.36-1.48-1.1Z"/>
                        <path class="cls-3" d="M2451.35,3207.42c-109.03-15.71-267.14-109.33-268.72-110.27-.88-.53-1.18-1.67-.65-2.55.53-.89,1.68-1.18,2.55-.65,1.58.94,159.06,94.18,267.35,109.78,1.02.15,1.72,1.09,1.58,2.11-.14.95-1,1.71-2.11,1.58Z"/>
                      </g>
                      <polygon points="2451.62 3124.86 2466.51 3144.65 2438.5 3130.47 2451.62 3124.86"/>
                    </g>
                    <g>
                      <g>
                        <path class="cls-1" d="M2665.21,2786.57c-6.78,25.06-22.77,46.77-50.92,62.64-18.36,10.33-41.91,18.13-71.46,22.69l-2.53-4.26-55.71-94.98c144.92,3.39,80.06-70.07,39.58-149.52-2.38-4.26,67.31-43.16,69.69-38.9,43.13,53.27,89.06,136.53,71.35,202.32Z"/>
                        <g>
                          <path class="cls-6" d="M2610.65,2606.33"/>
                          <path class="cls-12" d="M2610.63,2606.33c-98.71,59.76-64.66,39.15-72.03,43.61-5.02-9.07-9.77-17.65-14.44-26.8-2.37-4.26,67.32-43.16,69.69-38.9,5.77,7.12,11.38,14.51,16.77,22.09Z"/>
                          <path class="cls-7" d="M2610.63,2606.33l-14.47,8.78c-6.41-17.07-46.36,12.25-62.83,25.25-3.13-5.69-6.22-11.46-9.16-17.22-2.37-4.26,67.32-43.16,69.69-38.9,5.77,7.12,11.38,14.51,16.77,22.09Z"/>
                          <path class="cls-3" d="M2538.13,2651.74c-1.21-.33-1.31-1.43-2.53-3.37-3.12-5.56-8.96-16.31-13.09-24.38-.23-.41-.55-1.39.23-2.7,4.45-7.45,61.38-39.24,70.25-39.24h.05c1.52.02,2.18.81,2.44,1.28,5.66,6.95,11.33,14.41,16.66,21.91.62.86.39,2.1-.55,2.67-76.73,46.23-72.01,44.18-73.47,43.82ZM2526.13,2622.89c6.54,12.74,12.95,24.08,13.16,24.46l68.66-41.57c-4.86-6.76-9.98-13.48-15.24-20-7.51.29-61.99,30.69-66.57,37.12ZM2525.8,2622.24s.03.06.05.09c-.01-.03-.03-.06-.05-.09ZM2592.41,2585.42s.05.09.11.13c-.04-.04-.07-.08-.11-.13Z"/>
                        </g>
                        <path class="cls-3" d="M2566.7,2708.96c-9.18-24.13-29.03-55.21-44.19-84.97-.84-1.5-2.66-4.77,33.86-25.14,36.43-20.33,38.24-17.08,39.12-15.5,31.5,38.87,55.37,81.67,67.02,120.26.3.99-.26,2.02-1.24,2.32-.98.3-2.02-.26-2.32-1.24-11.48-38.02-34.99-80.23-66.24-118.9-7.51.29-62,30.69-66.57,37.12,15.33,29.97,34.64,60.02,44.05,84.75.36.96-.12,2.04-1.08,2.4-1.01.37-2.05-.16-2.4-1.08ZM2525.8,2622.24s.03.06.05.09c-.01-.03-.03-.06-.05-.09ZM2592.41,2585.42s.05.09.11.13c-.04-.04-.07-.08-.11-.13Z"/>
                        <path class="cls-11" d="M2614.3,2849.2c-18.37,10.34-41.92,18.16-71.47,22.71l-2.51-4.28,1.19-69.64s40.17,17.15,72.79,51.21Z"/>
                        <path class="cls-1" d="M2614.06,3076.6c-110.9,21.55-145.03,30.75-266.87,9.3-30.77-8.87-52.49-24.27-67.15-43.42-17.71-23.1-25.19-51.67-26-80.89-1.4-50.55,17.11-103,37.06-132.41,51.79-76.33,142.06-58.47,180.5-56.38,38.46-2.08,65.47-3.48,99.36,80.17,35.73,88.19-31.78,93.4,43.1,223.63Z"/>
                        <path class="cls-3" d="M2579.44,2936.33c-1.02-.14-1.73-1.08-1.59-2.1,3.01-21.71,6.13-44.16-8.62-80.56-11.27-27.82-22.29-47.4-33.68-59.84-.69-.76-.64-1.94.12-2.63.76-.7,1.94-.64,2.63.12,11.69,12.79,22.94,32.72,34.38,60.97,15.12,37.33,11.94,60.27,8.86,82.47-.13.97-1.01,1.73-2.1,1.59Z"/>
                        <path class="cls-11" d="M2365.11,2899.37c-4.58,9.33,8.12,31.64,11.51,41.46,14.94,43.28,53.25,77.68,97.89,87.88-22.68,17.74-55.14,15.95-75.73-4.17-9.33-9.11-15.26-21.06-21.02-32.76-8.28-16.81-16.67-33.99-19.21-52.56-1.22-8.9.52-17.2,2.64-25.86l3.93-13.99Z"/>
                        <path class="cls-3" d="M2385.64,3034.63c-68.38-82.92-.78-181.74-.09-182.73.59-.85,1.76-1.04,2.59-.46.84.59,1.05,1.75.46,2.59-.68.97-66.65,97.51-.09,178.22.65.79.54,1.97-.25,2.62-.8.66-1.98.53-2.62-.25Z"/>
                        <path class="cls-3" d="M2317.27,2994.72c-.86,0-1.63-.6-1.82-1.47l-6.73-31.03c-3.3-15.23,8.3-29.61,23.87-29.61h132.26c1.03,0,1.86.83,1.86,1.86s-.83,1.86-1.86,1.86h-132.26c-13.21,0-23.02,12.2-20.23,25.09l6.73,31.03c.22,1.01-.42,2-1.42,2.22-.13.03-.27.04-.4.04Z"/>
                        <path class="cls-3" d="M2559.99,3119.41h-197.48c-11.41,0-21.44-8.09-23.86-19.24l-17.41-80.24c-.22-1.01.42-2,1.42-2.22,1.02-.22,2,.42,2.22,1.42l17.41,80.24c2.05,9.45,10.56,16.31,20.23,16.31h197.48c9.67,0,18.18-6.86,20.23-16.31l16-73.75c.22-1,1.17-1.66,2.22-1.42,1,.22,1.64,1.21,1.42,2.22l-16,73.75c-2.42,11.15-12.46,19.24-23.87,19.24Z"/>
                        <path class="cls-3" d="M2603.66,3000.11c-1-.22-1.64-1.21-1.42-2.22l7.91-36.46c2.8-12.9-7.04-25.09-20.23-25.09h-94.02c-1.03,0-1.86-.83-1.86-1.86s.83-1.86,1.86-1.86h94.02c15.59,0,27.17,14.4,23.86,29.61l-7.91,36.46c-.21.99-1.19,1.64-2.22,1.42Z"/>
                      </g>
                      <path class="cls-3" d="M2459.3,3043.25c-9.51,0-17.24-7.72-17.24-17.22s7.73-17.24,17.24-17.24,17.22,7.73,17.22,17.24-7.72,17.22-17.22,17.22ZM2459.3,3012.51c-7.45,0-13.51,6.06-13.51,13.51s6.06,13.49,13.51,13.49,13.49-6.05,13.49-13.49-6.05-13.51-13.49-13.51Z"/>
                    </g>
                  </g>
                  <g>
                    <path d="M2512.31,2701.51c-.98,0-1.8-.76-1.86-1.75-.06-1.03.72-1.91,1.75-1.97l12.35-.72c.97-.12,1.91.72,1.97,1.75.06,1.03-.72,1.91-1.75,1.97l-12.35.72s-.07,0-.11,0Z"/>
                    <g>
                      <path d="M2424.86,2779.43c-1-.9-1.92-1.84-2.76-2.82-.67-.78-.57-1.96.21-2.63.78-.66,1.95-.57,2.63.21.75.87,1.55,1.7,2.41,2.47.76.69.83,1.86.14,2.63-.68.76-1.86.83-2.63.14Z"/>
                      <path d="M2433.05,2784.9c-.92-.46-1.3-1.58-.84-2.5.46-.92,1.59-1.29,2.5-.84,12.38,6.15,31.85,7.51,43.32-.75.82-.6,1.99-.41,2.6.43.6.83.41,2-.43,2.6-12.58,9.05-33.44,7.87-47.15,1.06Z"/>
                      <path class="cls-5" d="M2482.27,2746.26l-.17.93-3.34,18.84c-2.74,21.03-53.8,14.31-51.01-6.7l10.1-41.77c-14.22-42.25-2.81-62.03,44.84-50.04,34.66,1,49,69.41-.42,78.73Z"/>
                    </g>
                    <path class="cls-8" d="M2460.02,2744.32c-.9-.49-1.24-1.63-.75-2.53.49-.91,1.63-1.23,2.53-.75,7.04,3.84,14.8,4.53,19.78,3.23,1-.28,2.01.34,2.27,1.33.26.99-.33,2.01-1.33,2.27-6.28,1.65-14.9.58-22.5-3.56Z"/>
                    <path d="M2455.29,2675.99s9.87,30.55-18.18,33.42l-4.62,5.89s-42.14-59.91,3.02-62.41c0,0-2.98-21.87,17.4-23.92,20.38-2.09,21.72,28.54,40.8,10.69,19.04-17.85,66.09,74.74-38.41,36.33Z"/>
                    <g>
                      <path class="cls-5" d="M2442.24,2717.45c-5.5,1.43-11.45-1.73-13.32-7.09-1.85-5.37,1.1-10.89,6.59-12.35,5.5-1.43,11.44,1.76,13.31,7.12"/>
                      <path d="M2427.16,2710.97c-2.2-6.42,1.34-13.03,7.87-14.76,6.39-1.68,13.36,2.06,15.54,8.31.34.97-.17,2.03-1.14,2.37-.97.35-2.04-.17-2.37-1.14-1.56-4.46-6.53-7.11-11.08-5.94-4.35,1.15-6.82,5.51-5.3,9.94,1.55,4.44,6.55,7.08,11.09,5.89,1-.28,2.01.33,2.27,1.33.26.99-.33,2.01-1.33,2.27-6.32,1.66-13.36-1.98-15.55-8.28Z"/>
                    </g>
                    <path class="cls-8" d="M2482.11,2747.2l-3.34,18.84c-.91,6.94-7.11,10.88-14.91,12.26,9.57-17.45.62-33.93.62-33.93,5.69,1.83,11.55,2.78,17.63,2.83Z"/>
                    <path d="M2485.31,2721.59c-.08,0-.16,0-.24,0-6.97-.19-12.22-8.06-11.96-17.92.12-4.57,1.45-8.85,3.73-12.06,2.45-3.44,5.64-5.19,9.16-5.18,6.96.19,12.21,8.06,11.95,17.92h0c-.26,9.74-5.8,17.26-12.65,17.26ZM2485.76,2690.14c-2.13,0-4.22,1.28-5.88,3.62-1.86,2.62-2.94,6.17-3.05,10.01-.2,7.51,3.61,13.96,8.33,14.09.04,0,.09,0,.14,0,4.65,0,8.73-6.19,8.93-13.63h0c.2-7.52-3.62-13.97-8.33-14.1-.05,0-.09,0-.14,0ZM2496.1,2704.29h.04-.04Z"/>
                    <path d="M2514.46,2721.99c-.08,0-.17,0-.25,0-3.46-.09-6.61-2.11-8.87-5.67-2.11-3.33-3.2-7.68-3.08-12.25.27-9.86,5.98-17.29,12.89-17.25,6.96.19,12.21,8.06,11.95,17.92-.12,4.57-1.45,8.85-3.73,12.06-2.38,3.35-5.54,5.19-8.91,5.19ZM2514.91,2690.55c-4.66,0-8.73,6.19-8.93,13.63-.1,3.83.79,7.44,2.5,10.15,1.57,2.48,3.64,3.88,5.83,3.94,2.09.21,4.32-1.23,6.02-3.62,1.86-2.62,2.94-6.17,3.04-10.01.2-7.51-3.61-13.96-8.32-14.09-.05,0-.09,0-.14,0Z"/>
                    <path d="M2475.68,2700.53h-.05l-37.46-1c-1.03-.03-1.84-.88-1.81-1.91.03-1.01.86-1.81,1.86-1.81h.05l37.46,1c1.03.03,1.84.88,1.81,1.91-.03,1.01-.86,1.81-1.86,1.81Z"/>
                    <path d="M2503.72,2701.03c-3.57-2.16-5.69-1.22-6.97-.31-.83.59-2,.4-2.6-.44-.59-.84-.39-2,.44-2.6,2.27-1.61,6.04-2.89,11.06.17.88.53,1.16,1.68.62,2.56-.53.88-1.69,1.16-2.56.62Z"/>
                    <path d="M2512.62,2705.01c-.05,1.85-1.03,3.32-2.2,3.29-1.16-.03-2.07-1.55-2.02-3.4.05-1.85,1.03-3.32,2.2-3.29,1.16.03,2.07,1.55,2.02,3.4Z"/>
                    <path d="M2490.2,2704.13c-.05,1.85-1.03,3.32-2.2,3.29-1.16-.03-2.07-1.55-2.02-3.4.05-1.85,1.03-3.32,2.2-3.29s2.07,1.55,2.02,3.4Z"/>
                    <path d="M2502.14,2727.05c-.08,2.89-1.78,5.18-3.81,5.13-2.01-.05-3.59-2.44-3.51-5.32.08-2.89,1.78-5.18,3.79-5.13,2.03.05,3.61,2.44,3.53,5.32Z"/>
                    <path class="cls-8" d="M2499.79,2718.32h-.09c-1.03-.01-1.86-.85-1.84-1.88.01-1.02.84-1.84,1.86-1.84.01,0,.05,0,.08,0,1.47,0,1.75-.49,1.84-.66,1.08-1.88-1.23-7.5-3.14-10.7-.53-.88-.24-2.03.65-2.55.87-.53,2.02-.24,2.55.65.98,1.64,5.71,10.03,3.17,14.46-.67,1.16-2.08,2.53-5.08,2.53Z"/>
                  </g>
                </g>
              </g>
            </g>
            <path class="cls-14" d="M3249.62,1822.84l-115.12-87.77c-2.46-1.87-2.93-5.38-1.06-7.83,1.87-2.45,5.38-2.93,7.83-1.06l115.12,87.77c2.46,1.87,2.93,5.38,1.06,7.83-1.86,2.44-5.37,2.93-7.83,1.06Z"/>
            <path class="cls-14" d="M3159.05,1686.72c-.37-3.06,1.81-5.85,4.88-6.22l112.03-13.6c3.06-.36,5.85,1.81,6.22,4.88.37,3.06-1.81,5.85-4.88,6.22l-112.03,13.6c-3.09.37-5.85-1.83-6.22-4.88Z"/>
            <path class="cls-14" d="M3117.95,1885.04c-3.67-39.63-11.95-78.92-24.61-116.78-.98-2.93.6-6.09,3.53-7.07,2.95-.98,6.09.6,7.07,3.53,12.92,38.67,21.38,78.81,25.13,119.29.29,3.07-1.98,5.79-5.05,6.08-3.04.29-5.8-1.95-6.08-5.05Z"/>
          </g>
        </g>
        <g>
          <path class="cls-9" d="M3299.62,2379.81c-66.12,0-115.16,48.6-115.16,113.84,0,13.57,2.19,26.71,6.13,38.97-49.48,1.31-73.56,23.64-73.56,75.75,0,43.35,3.07,91.95,8.76,144.93h83.19c-5.69-52.1-8.76-99.39-8.76-142.3,0-12.7,7.44-18.83,22.77-18.83,10.07,0,19.7,2.19,29.34,6.13,14.45,6.13,30.21,9.19,47.29,9.19,66.12,0,115.16-48.6,115.16-113.84s-49.04-113.84-115.16-113.84ZM3298.74,2524.3c-18.83,0-30.21-13.57-30.21-30.65s11.38-30.65,30.21-30.65c20.58,0,31.96,13.57,31.96,30.65s-11.38,30.65-31.96,30.65Z"/>
          <path class="cls-9" d="M3523.36,2362.3h-40.28v83.19h60.86c22.33,0,37.22,7.88,37.22,26.71v41.16h-131.36v89.76h214.55v-135.3c-2.19-82.32-30.65-104.21-140.99-105.52Z"/>
          <path class="cls-9" d="M3999.31,2351.79c-66.99,0-117.34,32.4-117.34,93.7,0,28.9,10.95,51.67,32.4,67.87h-66.55c-21.46,0-37.22-2.19-47.73-6.13v-223.74h-83.19v239.94c0,30.21,8.32,44.66,32.84,58.23,22.77,12.26,57.8,21.45,97.64,21.45h95.45c66.99,0,125.23-13.14,157.19-32.84v-195.28c-34.59-15.32-67.87-23.21-100.71-23.21ZM4016.82,2501.97c-29.34-4.82-50.35-17.51-50.35-40.28,0-17.08,12.26-27.58,31.09-27.58,7.01,0,13.57.88,19.27,3.06v64.8Z"/>
          <path class="cls-9" d="M4045.28,2329.89c22.77,0,41.16-18.39,41.16-41.6s-18.39-41.6-41.16-41.6-41.6,18.39-41.6,41.6,18.39,41.6,41.6,41.6Z"/>
          <path class="cls-9" d="M3953.77,2329.89c22.77,0,41.16-18.39,41.16-41.6s-18.39-41.6-41.16-41.6-41.6,18.39-41.6,41.6,18.39,41.6,41.6,41.6Z"/>
        </g>
        <g>
          <path class="cls-9" d="M1121.1,2642.08c-23.21,0-41.6,18.39-41.6,41.6s18.39,41.6,41.6,41.6,41.6-18.39,41.6-41.6-18.83-41.6-41.6-41.6Z"/>
          <path class="cls-9" d="M1209.11,2620.19h.88c59.99,0,107.71-20.58,130.48-48.6v-179.96h-83.19v132.67c-10.51,3.94-26.27,6.13-47.73,6.13s-37.22-2.19-47.73-6.13v-132.67h-83.19v132.67c-10.51,3.94-26.27,6.13-47.73,6.13s-37.22-2.19-47.73-6.13v-223.74h-83.19v239.94c0,30.21,8.32,44.66,32.84,58.23,22.77,12.26,57.8,21.45,97.64,21.45h.88c32.84,0,62.61-7.88,88.88-24.08,26.27,16.2,56.05,24.08,88.88,24.08Z"/>
          <path class="cls-9" d="M1241.95,2642.08c-23.21,0-41.6,18.39-41.6,41.6s18.39,41.6,41.6,41.6,41.16-18.39,41.16-41.6-18.39-41.6-41.16-41.6Z"/>
          <path class="cls-9" d="M1333.46,2642.08c-23.21,0-41.6,18.39-41.6,41.6s18.39,41.6,41.6,41.6,41.16-18.39,41.16-41.6-18.39-41.6-41.16-41.6Z"/>
          <path class="cls-9" d="M1804.59,2346.97c22.77,0,41.16-18.39,41.16-41.6s-18.39-41.6-41.16-41.6-41.6,18.39-41.6,41.6,18.39,41.6,41.6,41.6Z"/>
          <path class="cls-9" d="M1713.08,2346.97c22.77,0,41.16-18.39,41.16-41.6s-18.39-41.6-41.16-41.6-41.6,18.39-41.6,41.6,18.39,41.6,41.6,41.6Z"/>
          <path class="cls-9" d="M1758.61,2368.86c-66.99,0-117.34,32.4-117.34,93.7,0,28.9,10.95,51.67,32.4,67.87h-66.55c-21.45,0-37.22-2.19-47.73-6.13v-123.04h-83.19v199.22c0,33.28-11.82,48.16-52.1,48.16h-14.89l-16.2,84.94c9.19,1.75,20.58,2.63,34.15,2.63,37.66,0,68.31-9.63,92.39-28.9,24.08-19.27,37.22-50.35,39.41-93.7,14.45,4.38,30.65,6.57,47.73,6.57h95.45c66.99,0,125.23-13.14,157.19-32.84v-195.28c-34.59-15.32-67.87-23.21-100.71-23.21ZM1776.13,2519.05c-29.34-4.82-50.35-17.51-50.35-40.28,0-17.08,12.26-27.58,31.09-27.58,7.01,0,13.57.88,19.27,3.06v64.8Z"/>
        </g>
      </g>
    </g>
  </g>
</svg>